<?xml version="1.0" encoding="UTF-8"?>
<svg id="Layer_1" data-name="Layer 1" xmlns="http://www.w3.org/2000/svg" xmlns:xlink="http://www.w3.org/1999/xlink" viewBox="0 0 5518.58 1049.98">
  <defs>
    <style>
      .cls-1 {
        clip-path: url(#clippath-1);
      }

      .cls-2 {
        fill: #fff;
        opacity: .37;
      }

      .cls-3 {
        opacity: .82;
      }

      .cls-4 {
        fill: none;
      }

      .cls-5 {
        fill: #050505;
      }

      .cls-6 {
        fill: #1e1e1e;
      }
    </style>
    <clipPath id="clippath-1">
      <polygon class="cls-4" points="0 1052.17 0 -4.18 5518.58 -4.18 5518.58 1052.68 0 1052.17"/>
    </clipPath>
  </defs>
  <g class="cls-1">
    <g>
      <g>
        <g>
          <g class="cls-3">
            <path class="cls-6" d="m-1097.46,0v1049.99H3.8V0h-1101.26ZM-276.17,59.13c0-8.34,6.34-15.16,14.07-15.16h41.91c7.73,0,14.07,6.81,14.07,15.16v72.44c0,8.34-6.34,15.16-14.07,15.16h-41.91c-7.73,0-14.07-6.81-14.07-15.16V59.13ZM-22.55,211.63v637.5c0,23.2-17.46,42.01-38.99,42.01h-970.57c-21.53,0-38.99-18.81-38.99-42.01V211.63c0-23.2,17.46-42.01,38.99-42.01H-61.54c21.53,0,38.99,18.81,38.99,42.01ZM-414.93,43.98h41.89c7.74,0,14.07,6.81,14.07,15.16v72.44c0,8.34-6.32,15.16-14.07,15.16h-41.89c-7.74,0-14.07-6.81-14.07-15.16V59.13c0-8.34,6.32-15.16,14.07-15.16Zm-166.91,15.16c0-8.34,6.34-15.16,14.07-15.16h41.89c7.74,0,14.08,6.81,14.08,15.16v72.44c0,8.34-6.34,15.16-14.08,15.16h-41.89c-7.73,0-14.07-6.81-14.07-15.16V59.13Zm-96.87-15.16c7.74,0,14.07,6.81,14.07,15.16v72.44c0,8.34-6.32,15.16-14.07,15.16h-41.89c-7.74,0-14.08-6.81-14.08-15.16V59.13c0-8.34,6.34-15.16,14.08-15.16h41.89Zm-208.8,15.16c0-8.34,6.32-15.16,14.07-15.16h41.89c7.74,0,14.08,6.81,14.08,15.16v72.44c0,8.34-6.34,15.16-14.08,15.16h-41.89c-7.74,0-14.07-6.81-14.07-15.16V59.13Zm-152.85,0c0-8.34,6.34-15.16,14.08-15.16h41.89c7.74,0,14.07,6.81,14.07,15.16v72.44c0,8.34-6.32,15.16-14.07,15.16h-41.89c-7.74,0-14.08-6.81-14.08-15.16V59.13Zm14.08,957.64c-7.74,0-14.08-6.81-14.08-15.16v-72.44c0-8.34,6.34-15.16,14.08-15.16h41.89c7.74,0,14.07,6.81,14.07,15.16v72.44c0,8.34-6.32,15.16-14.07,15.16h-41.89Zm208.8-15.16c0,8.34-6.34,15.16-14.08,15.16h-41.89c-7.74,0-14.07-6.81-14.07-15.16v-72.44c0-8.34,6.32-15.16,14.07-15.16h41.89c7.74,0,14.08,6.81,14.08,15.16v72.44Zm152.83,0c0,8.34-6.32,15.16-14.07,15.16h-41.89c-7.74,0-14.08-6.81-14.08-15.16v-72.44c0-8.34,6.34-15.16,14.08-15.16h41.89c7.74,0,14.07,6.81,14.07,15.16v72.44Zm152.85,0c0,8.34-6.34,15.16-14.08,15.16h-41.89c-7.73,0-14.07-6.81-14.07-15.16v-72.44c0-8.34,6.34-15.16,14.07-15.16h41.89c7.74,0,14.08,6.81,14.08,15.16v72.44Zm96.87,15.16c-7.74,0-14.07-6.81-14.07-15.16v-72.44c0-8.34,6.32-15.16,14.07-15.16h41.89c7.74,0,14.07,6.81,14.07,15.16v72.44c0,8.34-6.32,15.16-14.07,15.16h-41.89Zm194.73,0h-41.91c-7.73,0-14.07-6.81-14.07-15.16v-72.44c0-8.34,6.34-15.16,14.07-15.16h41.91c7.73,0,14.07,6.81,14.07,15.16v72.44c0,8.34-6.34,15.16-14.07,15.16Zm166.91-15.16c0,8.34-6.34,15.16-14.08,15.16h-41.89c-7.74,0-14.07-6.81-14.07-15.16v-72.44c0-8.34,6.32-15.16,14.07-15.16h41.89c7.74,0,14.08,6.81,14.08,15.16v72.44Zm0-870.05c0,8.34-6.34,15.16-14.08,15.16h-41.89c-7.74,0-14.07-6.81-14.07-15.16V59.13c0-8.34,6.32-15.16,14.07-15.16h41.89c7.74,0,14.08,6.81,14.08,15.16v72.44Z"/>
          </g>
          <g>
            <g class="cls-3">
              <rect class="cls-5" x="-53.29" y="72.7" width="57.08" height="35"/>
            </g>
            <g class="cls-3">
              <polygon class="cls-5" points="-13.19 28.72 -13.19 0 -31.93 0 -31.93 28.72 -43.92 28.72 -43.92 0 -62.66 0 -62.66 30.51 -46.92 30.51 -46.92 59.23 -28.18 59.23 -28.18 30.51 -14.94 30.51 -14.94 59.23 3.8 59.23 3.8 28.72 -13.19 28.72"/>
            </g>
            <g class="cls-3">
              <rect class="cls-5" x="-53.29" y="942.29" width="57.08" height="35"/>
            </g>
            <g class="cls-3">
              <polygon class="cls-5" points="-14.94 1019.47 -28.18 1019.47 -28.18 990.75 -46.92 990.75 -46.92 1019.47 -62.66 1019.47 -62.66 1049.98 -43.92 1049.98 -43.92 1021.26 -31.93 1021.26 -31.93 1049.98 -13.19 1049.98 -13.19 1021.26 3.8 1021.26 3.8 990.75 -14.94 990.75 -14.94 1019.47"/>
            </g>
          </g>
        </g>
        <g>
          <rect class="cls-2" x="30.16" y="169.61" width="1048.54" height="721.53" rx="11.68" ry="11.68"/>
          <g class="cls-3">
            <path class="cls-6" d="m3.8,0v1049.99h1101.26V0H3.8Zm821.29,59.13c0-8.34,6.34-15.16,14.07-15.16h41.91c7.73,0,14.07,6.81,14.07,15.16v72.44c0,8.34-6.34,15.16-14.07,15.16h-41.91c-7.73,0-14.07-6.81-14.07-15.16V59.13Zm253.62,152.49v637.5c0,23.2-17.46,42.01-38.99,42.01H69.15c-21.53,0-38.99-18.81-38.99-42.01V211.63c0-23.2,17.46-42.01,38.99-42.01h970.57c21.53,0,38.99,18.81,38.99,42.01ZM686.33,43.98h41.89c7.74,0,14.07,6.81,14.07,15.16v72.44c0,8.34-6.32,15.16-14.07,15.16h-41.89c-7.74,0-14.07-6.81-14.07-15.16V59.13c0-8.34,6.32-15.16,14.07-15.16Zm-166.91,15.16c0-8.34,6.34-15.16,14.07-15.16h41.89c7.74,0,14.08,6.81,14.08,15.16v72.44c0,8.34-6.34,15.16-14.08,15.16h-41.89c-7.73,0-14.07-6.81-14.07-15.16V59.13Zm-96.87-15.16c7.74,0,14.07,6.81,14.07,15.16v72.44c0,8.34-6.32,15.16-14.07,15.16h-41.89c-7.74,0-14.08-6.81-14.08-15.16V59.13c0-8.34,6.34-15.16,14.08-15.16h41.89Zm-208.8,15.16c0-8.34,6.32-15.16,14.07-15.16h41.89c7.74,0,14.08,6.81,14.08,15.16v72.44c0,8.34-6.34,15.16-14.08,15.16h-41.89c-7.74,0-14.07-6.81-14.07-15.16V59.13Zm-152.85,0c0-8.34,6.34-15.16,14.08-15.16h41.89c7.74,0,14.07,6.81,14.07,15.16v72.44c0,8.34-6.32,15.16-14.07,15.16h-41.89c-7.74,0-14.08-6.81-14.08-15.16V59.13Zm14.08,957.64c-7.74,0-14.08-6.81-14.08-15.16v-72.44c0-8.34,6.34-15.16,14.08-15.16h41.89c7.74,0,14.07,6.81,14.07,15.16v72.44c0,8.34-6.32,15.16-14.07,15.16h-41.89Zm208.8-15.16c0,8.34-6.34,15.16-14.08,15.16h-41.89c-7.74,0-14.07-6.81-14.07-15.16v-72.44c0-8.34,6.32-15.16,14.07-15.16h41.89c7.74,0,14.08,6.81,14.08,15.16v72.44Zm152.83,0c0,8.34-6.32,15.16-14.07,15.16h-41.89c-7.74,0-14.08-6.81-14.08-15.16v-72.44c0-8.34,6.34-15.16,14.08-15.16h41.89c7.74,0,14.07,6.81,14.07,15.16v72.44Zm152.85,0c0,8.34-6.34,15.16-14.08,15.16h-41.89c-7.73,0-14.07-6.81-14.07-15.16v-72.44c0-8.34,6.34-15.16,14.07-15.16h41.89c7.74,0,14.08,6.81,14.08,15.16v72.44Zm96.87,15.16c-7.74,0-14.07-6.81-14.07-15.16v-72.44c0-8.34,6.32-15.16,14.07-15.16h41.89c7.74,0,14.07,6.81,14.07,15.16v72.44c0,8.34-6.32,15.16-14.07,15.16h-41.89Zm194.73,0h-41.91c-7.73,0-14.07-6.81-14.07-15.16v-72.44c0-8.34,6.34-15.16,14.07-15.16h41.91c7.73,0,14.07,6.81,14.07,15.16v72.44c0,8.34-6.34,15.16-14.07,15.16Zm166.91-15.16c0,8.34-6.34,15.16-14.08,15.16h-41.89c-7.74,0-14.07-6.81-14.07-15.16v-72.44c0-8.34,6.32-15.16,14.07-15.16h41.89c7.74,0,14.08,6.81,14.08,15.16v72.44Zm0-870.05c0,8.34-6.34,15.16-14.08,15.16h-41.89c-7.74,0-14.07-6.81-14.07-15.16V59.13c0-8.34,6.32-15.16,14.07-15.16h41.89c7.74,0,14.08,6.81,14.08,15.16v72.44Z"/>
          </g>
          <g>
            <g class="cls-3">
              <rect class="cls-5" x="3.8" y="72.7" width="57.1" height="35"/>
            </g>
            <g class="cls-3">
              <rect class="cls-5" x="130.93" y="72.7" width="82.81" height="35"/>
            </g>
            <g class="cls-3">
              <rect class="cls-5" x="283.78" y="72.7" width="82.79" height="35"/>
            </g>
            <g class="cls-3">
              <rect class="cls-5" x="436.61" y="72.7" width="82.81" height="35"/>
            </g>
            <g class="cls-3">
              <rect class="cls-5" x="589.45" y="72.7" width="82.81" height="35"/>
            </g>
            <g class="cls-3">
              <rect class="cls-5" x="742.28" y="72.7" width="82.81" height="35"/>
            </g>
            <g class="cls-3">
              <rect class="cls-5" x="895.12" y="72.7" width="82.81" height="35"/>
            </g>
            <g class="cls-3">
              <rect class="cls-5" x="1047.97" y="72.7" width="57.08" height="35"/>
            </g>
            <g class="cls-3">
              <rect class="cls-5" x="112.1" width="30.19" height="30.51"/>
            </g>
            <g class="cls-3">
              <rect class="cls-5" x="40.47" width="20.43" height="30.51"/>
            </g>
            <g class="cls-3">
              <polygon class="cls-5" points="24.24 30.51 24.24 28.72 24.24 0 3.81 0 3.81 28.72 3.81 30.51 3.81 59.23 24.24 59.23 24.24 30.51"/>
            </g>
            <g class="cls-3">
              <rect class="cls-5" x="153.12" width="18.74" height="30.51"/>
            </g>
            <g class="cls-3">
              <rect class="cls-5" x="182.69" width="18.74" height="30.51"/>
            </g>
            <g class="cls-3">
              <rect class="cls-5" x="895.13" width="18.74" height="30.51"/>
            </g>
            <g class="cls-3">
              <rect class="cls-5" x="922.92" width="46.45" height="30.51"/>
            </g>
            <g class="cls-3">
              <rect class="cls-5" x="529.18" width="18.74" height="30.51"/>
            </g>
            <g class="cls-3">
              <rect class="cls-5" x="561.94" width="18.74" height="30.51"/>
            </g>
            <g class="cls-3">
              <polygon class="cls-5" points="1088.07 28.72 1088.07 0 1069.33 0 1069.33 28.72 1057.33 28.72 1057.33 0 1038.59 0 1038.59 30.51 1054.34 30.51 1054.34 59.23 1073.08 59.23 1073.08 30.51 1086.32 30.51 1086.32 59.23 1105.06 59.23 1105.06 28.72 1088.07 28.72"/>
            </g>
            <g class="cls-3">
              <polygon class="cls-5" points="611.08 59.23 624.82 59.23 629.82 59.23 662.58 59.23 662.58 30.51 678.96 30.51 678.96 0 660.22 0 660.22 28.72 646.2 28.72 646.2 0 627.46 0 627.46 28.72 624.82 28.72 613.44 28.72 613.44 0 594.7 0 594.7 30.51 611.08 30.51 611.08 59.23"/>
            </g>
            <g class="cls-3">
              <rect class="cls-5" x="692.98" width="18.74" height="30.51"/>
            </g>
            <g class="cls-3">
              <rect class="cls-5" x="725.74" width="18.74" height="30.51"/>
            </g>
            <g class="cls-3">
              <rect class="cls-5" x="333.44" width="18.74" height="30.51"/>
            </g>
            <g class="cls-3">
              <rect class="cls-5" x="363.01" width="18.74" height="30.51"/>
            </g>
            <g class="cls-3">
              <rect class="cls-5" x="392.22" width="18.74" height="30.51"/>
            </g>
            <g class="cls-3">
              <rect class="cls-5" x="3.8" y="942.29" width="57.1" height="35"/>
            </g>
            <g class="cls-3">
              <rect class="cls-5" x="130.93" y="942.29" width="82.81" height="35"/>
            </g>
            <g class="cls-3">
              <rect class="cls-5" x="283.78" y="942.29" width="82.79" height="35"/>
            </g>
            <g class="cls-3">
              <rect class="cls-5" x="436.61" y="942.29" width="82.81" height="35"/>
            </g>
            <g class="cls-3">
              <rect class="cls-5" x="589.45" y="942.29" width="82.81" height="35"/>
            </g>
            <g class="cls-3">
              <rect class="cls-5" x="742.28" y="942.29" width="82.81" height="35"/>
            </g>
            <g class="cls-3">
              <rect class="cls-5" x="895.12" y="942.29" width="82.81" height="35"/>
            </g>
            <g class="cls-3">
              <rect class="cls-5" x="1047.97" y="942.29" width="57.08" height="35"/>
            </g>
            <g class="cls-3">
              <rect class="cls-5" x="112.1" y="1019.47" width="30.19" height="30.51"/>
            </g>
            <g class="cls-3">
              <rect class="cls-5" x="40.47" y="1019.47" width="20.43" height="30.51"/>
            </g>
            <g class="cls-3">
              <polygon class="cls-5" points="3.81 1019.47 3.81 1021.26 3.81 1049.98 24.24 1049.98 24.24 1021.26 24.24 1019.47 24.24 990.75 3.81 990.75 3.81 1019.47"/>
            </g>
            <g class="cls-3">
              <rect class="cls-5" x="153.12" y="1019.47" width="18.74" height="30.51"/>
            </g>
            <g class="cls-3">
              <rect class="cls-5" x="182.69" y="1019.47" width="18.74" height="30.51"/>
            </g>
            <g class="cls-3">
              <rect class="cls-5" x="895.13" y="1019.47" width="18.74" height="30.51"/>
            </g>
            <g class="cls-3">
              <rect class="cls-5" x="922.92" y="1019.47" width="46.45" height="30.51"/>
            </g>
            <g class="cls-3">
              <rect class="cls-5" x="529.18" y="1019.47" width="18.74" height="30.51"/>
            </g>
            <g class="cls-3">
              <rect class="cls-5" x="561.94" y="1019.47" width="18.74" height="30.51"/>
            </g>
            <g class="cls-3">
              <polygon class="cls-5" points="1086.32 1019.47 1073.08 1019.47 1073.08 990.75 1054.34 990.75 1054.34 1019.47 1038.59 1019.47 1038.59 1049.98 1057.33 1049.98 1057.33 1021.26 1069.33 1021.26 1069.33 1049.98 1088.07 1049.98 1088.07 1021.26 1105.06 1021.26 1105.06 990.75 1086.32 990.75 1086.32 1019.47"/>
            </g>
            <g class="cls-3">
              <polygon class="cls-5" points="662.58 990.75 629.82 990.75 624.82 990.75 611.08 990.75 611.08 1019.47 594.7 1019.47 594.7 1049.98 613.44 1049.98 613.44 1021.26 624.82 1021.26 627.46 1021.26 627.46 1049.98 646.2 1049.98 646.2 1021.26 660.22 1021.26 660.22 1049.98 678.96 1049.98 678.96 1019.47 662.58 1019.47 662.58 990.75"/>
            </g>
            <g class="cls-3">
              <rect class="cls-5" x="692.98" y="1019.47" width="18.74" height="30.51"/>
            </g>
            <g class="cls-3">
              <rect class="cls-5" x="725.74" y="1019.47" width="18.74" height="30.51"/>
            </g>
            <g class="cls-3">
              <rect class="cls-5" x="333.44" y="1019.47" width="18.74" height="30.51"/>
            </g>
            <g class="cls-3">
              <rect class="cls-5" x="363.01" y="1019.47" width="18.74" height="30.51"/>
            </g>
            <g class="cls-3">
              <rect class="cls-5" x="392.22" y="1019.47" width="18.74" height="30.51"/>
            </g>
          </g>
        </g>
        <g>
          <rect class="cls-2" x="1131.42" y="169.61" width="1048.54" height="721.53" rx="11.68" ry="11.68"/>
          <g class="cls-3">
            <path class="cls-6" d="m1105.05,0v1049.99h1101.26V0h-1101.26Zm821.29,59.13c0-8.34,6.34-15.16,14.07-15.16h41.91c7.73,0,14.07,6.81,14.07,15.16v72.44c0,8.34-6.34,15.16-14.07,15.16h-41.91c-7.73,0-14.07-6.81-14.07-15.16V59.13Zm253.62,152.49v637.5c0,23.2-17.46,42.01-38.99,42.01h-970.57c-21.53,0-38.99-18.81-38.99-42.01V211.63c0-23.2,17.46-42.01,38.99-42.01h970.57c21.53,0,38.99,18.81,38.99,42.01Zm-392.38-167.65h41.89c7.74,0,14.07,6.81,14.07,15.16v72.44c0,8.34-6.32,15.16-14.07,15.16h-41.89c-7.74,0-14.07-6.81-14.07-15.16V59.13c0-8.34,6.32-15.16,14.07-15.16Zm-166.91,15.16c0-8.34,6.34-15.16,14.07-15.16h41.89c7.74,0,14.08,6.81,14.08,15.16v72.44c0,8.34-6.34,15.16-14.08,15.16h-41.89c-7.73,0-14.07-6.81-14.07-15.16V59.13Zm-96.87-15.16c7.74,0,14.07,6.81,14.07,15.16v72.44c0,8.34-6.32,15.16-14.07,15.16h-41.89c-7.74,0-14.08-6.81-14.08-15.16V59.13c0-8.34,6.34-15.16,14.08-15.16h41.89Zm-208.8,15.16c0-8.34,6.32-15.16,14.07-15.16h41.89c7.74,0,14.08,6.81,14.08,15.16v72.44c0,8.34-6.34,15.16-14.08,15.16h-41.89c-7.74,0-14.07-6.81-14.07-15.16V59.13Zm-152.85,0c0-8.34,6.34-15.16,14.08-15.16h41.89c7.74,0,14.07,6.81,14.07,15.16v72.44c0,8.34-6.32,15.16-14.07,15.16h-41.89c-7.74,0-14.08-6.81-14.08-15.16V59.13Zm14.08,957.64c-7.74,0-14.08-6.81-14.08-15.16v-72.44c0-8.34,6.34-15.16,14.08-15.16h41.89c7.74,0,14.07,6.81,14.07,15.16v72.44c0,8.34-6.32,15.16-14.07,15.16h-41.89Zm208.8-15.16c0,8.34-6.34,15.16-14.08,15.16h-41.89c-7.74,0-14.07-6.81-14.07-15.16v-72.44c0-8.34,6.32-15.16,14.07-15.16h41.89c7.74,0,14.08,6.81,14.08,15.16v72.44Zm152.83,0c0,8.34-6.32,15.16-14.07,15.16h-41.89c-7.74,0-14.08-6.81-14.08-15.16v-72.44c0-8.34,6.34-15.16,14.08-15.16h41.89c7.74,0,14.07,6.81,14.07,15.16v72.44Zm152.85,0c0,8.34-6.34,15.16-14.08,15.16h-41.89c-7.73,0-14.07-6.81-14.07-15.16v-72.44c0-8.34,6.34-15.16,14.07-15.16h41.89c7.74,0,14.08,6.81,14.08,15.16v72.44Zm96.87,15.16c-7.74,0-14.07-6.81-14.07-15.16v-72.44c0-8.34,6.32-15.16,14.07-15.16h41.89c7.74,0,14.07,6.81,14.07,15.16v72.44c0,8.34-6.32,15.16-14.07,15.16h-41.89Zm194.73,0h-41.91c-7.73,0-14.07-6.81-14.07-15.16v-72.44c0-8.34,6.34-15.16,14.07-15.16h41.91c7.73,0,14.07,6.81,14.07,15.16v72.44c0,8.34-6.34,15.16-14.07,15.16Zm166.91-15.16c0,8.34-6.34,15.16-14.08,15.16h-41.89c-7.74,0-14.07-6.81-14.07-15.16v-72.44c0-8.34,6.32-15.16,14.07-15.16h41.89c7.74,0,14.08,6.81,14.08,15.16v72.44Zm0-870.05c0,8.34-6.34,15.16-14.08,15.16h-41.89c-7.74,0-14.07-6.81-14.07-15.16V59.13c0-8.34,6.32-15.16,14.07-15.16h41.89c7.74,0,14.08,6.81,14.08,15.16v72.44Z"/>
          </g>
          <g>
            <g class="cls-3">
              <rect class="cls-5" x="1105.05" y="72.7" width="57.1" height="35"/>
            </g>
            <g class="cls-3">
              <rect class="cls-5" x="1232.19" y="72.7" width="82.81" height="35"/>
            </g>
            <g class="cls-3">
              <rect class="cls-5" x="1385.04" y="72.7" width="82.79" height="35"/>
            </g>
            <g class="cls-3">
              <rect class="cls-5" x="1537.86" y="72.7" width="82.81" height="35"/>
            </g>
            <g class="cls-3">
              <rect class="cls-5" x="1690.71" y="72.7" width="82.81" height="35"/>
            </g>
            <g class="cls-3">
              <rect class="cls-5" x="1843.54" y="72.7" width="82.81" height="35"/>
            </g>
            <g class="cls-3">
              <rect class="cls-5" x="1996.38" y="72.7" width="82.81" height="35"/>
            </g>
            <g class="cls-3">
              <rect class="cls-5" x="2149.23" y="72.7" width="57.08" height="35"/>
            </g>
            <g class="cls-3">
              <rect class="cls-5" x="1213.36" width="30.19" height="30.51"/>
            </g>
            <g class="cls-3">
              <rect class="cls-5" x="1141.73" width="20.43" height="30.51"/>
            </g>
            <g class="cls-3">
              <polygon class="cls-5" points="1125.49 30.51 1125.49 28.72 1125.49 0 1105.06 0 1105.06 28.72 1105.06 30.51 1105.06 59.23 1125.49 59.23 1125.49 30.51"/>
            </g>
            <g class="cls-3">
              <rect class="cls-5" x="1254.38" width="18.74" height="30.51"/>
            </g>
            <g class="cls-3">
              <rect class="cls-5" x="1283.94" width="18.74" height="30.51"/>
            </g>
            <g class="cls-3">
              <rect class="cls-5" x="1996.38" width="18.74" height="30.51"/>
            </g>
            <g class="cls-3">
              <rect class="cls-5" x="2024.17" width="46.45" height="30.51"/>
            </g>
            <g class="cls-3">
              <rect class="cls-5" x="1630.43" width="18.74" height="30.51"/>
            </g>
            <g class="cls-3">
              <rect class="cls-5" x="1663.19" width="18.74" height="30.51"/>
            </g>
            <g class="cls-3">
              <polygon class="cls-5" points="2189.33 28.72 2189.33 0 2170.59 0 2170.59 28.72 2158.59 28.72 2158.59 0 2139.85 0 2139.85 30.51 2155.6 30.51 2155.6 59.23 2174.34 59.23 2174.34 30.51 2187.57 30.51 2187.57 59.23 2206.32 59.23 2206.32 28.72 2189.33 28.72"/>
            </g>
            <g class="cls-3">
              <polygon class="cls-5" points="1712.33 59.23 1726.08 59.23 1731.07 59.23 1763.84 59.23 1763.84 30.51 1780.22 30.51 1780.22 0 1761.48 0 1761.48 28.72 1747.46 28.72 1747.46 0 1728.71 0 1728.71 28.72 1726.08 28.72 1714.69 28.72 1714.69 0 1695.95 0 1695.95 30.51 1712.33 30.51 1712.33 59.23"/>
            </g>
            <g class="cls-3">
              <rect class="cls-5" x="1794.24" width="18.74" height="30.51"/>
            </g>
            <g class="cls-3">
              <rect class="cls-5" x="1827" width="18.74" height="30.51"/>
            </g>
            <g class="cls-3">
              <rect class="cls-5" x="1434.7" width="18.74" height="30.51"/>
            </g>
            <g class="cls-3">
              <rect class="cls-5" x="1464.27" width="18.74" height="30.51"/>
            </g>
            <g class="cls-3">
              <rect class="cls-5" x="1493.48" width="18.74" height="30.51"/>
            </g>
            <g class="cls-3">
              <rect class="cls-5" x="1105.05" y="942.29" width="57.1" height="35"/>
            </g>
            <g class="cls-3">
              <rect class="cls-5" x="1232.19" y="942.29" width="82.81" height="35"/>
            </g>
            <g class="cls-3">
              <rect class="cls-5" x="1385.04" y="942.29" width="82.79" height="35"/>
            </g>
            <g class="cls-3">
              <rect class="cls-5" x="1537.86" y="942.29" width="82.81" height="35"/>
            </g>
            <g class="cls-3">
              <rect class="cls-5" x="1690.71" y="942.29" width="82.81" height="35"/>
            </g>
            <g class="cls-3">
              <rect class="cls-5" x="1843.54" y="942.29" width="82.81" height="35"/>
            </g>
            <g class="cls-3">
              <rect class="cls-5" x="1996.38" y="942.29" width="82.81" height="35"/>
            </g>
            <g class="cls-3">
              <rect class="cls-5" x="2149.23" y="942.29" width="57.08" height="35"/>
            </g>
            <g class="cls-3">
              <rect class="cls-5" x="1213.36" y="1019.47" width="30.19" height="30.51"/>
            </g>
            <g class="cls-3">
              <rect class="cls-5" x="1141.73" y="1019.47" width="20.43" height="30.51"/>
            </g>
            <g class="cls-3">
              <polygon class="cls-5" points="1105.06 1019.47 1105.06 1021.26 1105.06 1049.98 1125.49 1049.98 1125.49 1021.26 1125.49 1019.47 1125.49 990.75 1105.06 990.75 1105.06 1019.47"/>
            </g>
            <g class="cls-3">
              <rect class="cls-5" x="1254.38" y="1019.47" width="18.74" height="30.51"/>
            </g>
            <g class="cls-3">
              <rect class="cls-5" x="1283.94" y="1019.47" width="18.74" height="30.51"/>
            </g>
            <g class="cls-3">
              <rect class="cls-5" x="1996.38" y="1019.47" width="18.74" height="30.51"/>
            </g>
            <g class="cls-3">
              <rect class="cls-5" x="2024.17" y="1019.47" width="46.45" height="30.51"/>
            </g>
            <g class="cls-3">
              <rect class="cls-5" x="1630.43" y="1019.47" width="18.74" height="30.51"/>
            </g>
            <g class="cls-3">
              <rect class="cls-5" x="1663.19" y="1019.47" width="18.74" height="30.51"/>
            </g>
            <g class="cls-3">
              <polygon class="cls-5" points="2187.57 1019.47 2174.34 1019.47 2174.34 990.75 2155.6 990.75 2155.6 1019.47 2139.85 1019.47 2139.85 1049.98 2158.59 1049.98 2158.59 1021.26 2170.59 1021.26 2170.59 1049.98 2189.33 1049.98 2189.33 1021.26 2206.32 1021.26 2206.32 990.75 2187.57 990.75 2187.57 1019.47"/>
            </g>
            <g class="cls-3">
              <polygon class="cls-5" points="1763.84 990.75 1731.07 990.75 1726.08 990.75 1712.33 990.75 1712.33 1019.47 1695.95 1019.47 1695.95 1049.98 1714.69 1049.98 1714.69 1021.26 1726.08 1021.26 1728.71 1021.26 1728.71 1049.98 1747.46 1049.98 1747.46 1021.26 1761.48 1021.26 1761.48 1049.98 1780.22 1049.98 1780.22 1019.47 1763.84 1019.47 1763.84 990.75"/>
            </g>
            <g class="cls-3">
              <rect class="cls-5" x="1794.24" y="1019.47" width="18.74" height="30.51"/>
            </g>
            <g class="cls-3">
              <rect class="cls-5" x="1827" y="1019.47" width="18.74" height="30.51"/>
            </g>
            <g class="cls-3">
              <rect class="cls-5" x="1434.7" y="1019.47" width="18.74" height="30.51"/>
            </g>
            <g class="cls-3">
              <rect class="cls-5" x="1464.27" y="1019.47" width="18.74" height="30.51"/>
            </g>
            <g class="cls-3">
              <rect class="cls-5" x="1493.48" y="1019.47" width="18.74" height="30.51"/>
            </g>
          </g>
        </g>
        <g>
          <rect class="cls-2" x="2232.68" y="169.61" width="1048.54" height="721.53" rx="11.68" ry="11.68"/>
          <g class="cls-3">
            <path class="cls-6" d="m2206.31,0v1049.99h1101.26V0h-1101.26Zm821.29,59.13c0-8.34,6.34-15.16,14.07-15.16h41.91c7.73,0,14.07,6.81,14.07,15.16v72.44c0,8.34-6.34,15.16-14.07,15.16h-41.91c-7.73,0-14.07-6.81-14.07-15.16V59.13Zm253.62,152.49v637.5c0,23.2-17.46,42.01-38.99,42.01h-970.57c-21.53,0-38.99-18.81-38.99-42.01V211.63c0-23.2,17.46-42.01,38.99-42.01h970.57c21.53,0,38.99,18.81,38.99,42.01Zm-392.38-167.65h41.89c7.74,0,14.07,6.81,14.07,15.16v72.44c0,8.34-6.32,15.16-14.07,15.16h-41.89c-7.74,0-14.07-6.81-14.07-15.16V59.13c0-8.34,6.32-15.16,14.07-15.16Zm-166.91,15.16c0-8.34,6.34-15.16,14.07-15.16h41.89c7.74,0,14.08,6.81,14.08,15.16v72.44c0,8.34-6.34,15.16-14.08,15.16h-41.89c-7.73,0-14.07-6.81-14.07-15.16V59.13Zm-96.87-15.16c7.74,0,14.07,6.81,14.07,15.16v72.44c0,8.34-6.32,15.16-14.07,15.16h-41.89c-7.74,0-14.08-6.81-14.08-15.16V59.13c0-8.34,6.34-15.16,14.08-15.16h41.89Zm-208.8,15.16c0-8.34,6.32-15.16,14.07-15.16h41.89c7.74,0,14.08,6.81,14.08,15.16v72.44c0,8.34-6.34,15.16-14.08,15.16h-41.89c-7.74,0-14.07-6.81-14.07-15.16V59.13Zm-152.85,0c0-8.34,6.34-15.16,14.08-15.16h41.89c7.74,0,14.07,6.81,14.07,15.16v72.44c0,8.34-6.32,15.16-14.07,15.16h-41.89c-7.74,0-14.08-6.81-14.08-15.16V59.13Zm14.08,957.64c-7.74,0-14.08-6.81-14.08-15.16v-72.44c0-8.34,6.34-15.16,14.08-15.16h41.89c7.74,0,14.07,6.81,14.07,15.16v72.44c0,8.34-6.32,15.16-14.07,15.16h-41.89Zm208.8-15.16c0,8.34-6.34,15.16-14.08,15.16h-41.89c-7.74,0-14.07-6.81-14.07-15.16v-72.44c0-8.34,6.32-15.16,14.07-15.16h41.89c7.74,0,14.08,6.81,14.08,15.16v72.44Zm152.83,0c0,8.34-6.32,15.16-14.07,15.16h-41.89c-7.74,0-14.08-6.81-14.08-15.16v-72.44c0-8.34,6.34-15.16,14.08-15.16h41.89c7.74,0,14.07,6.81,14.07,15.16v72.44Zm152.85,0c0,8.34-6.34,15.16-14.08,15.16h-41.89c-7.73,0-14.07-6.81-14.07-15.16v-72.44c0-8.34,6.34-15.16,14.07-15.16h41.89c7.74,0,14.08,6.81,14.08,15.16v72.44Zm96.87,15.16c-7.74,0-14.07-6.81-14.07-15.16v-72.44c0-8.34,6.32-15.16,14.07-15.16h41.89c7.74,0,14.07,6.81,14.07,15.16v72.44c0,8.34-6.32,15.16-14.07,15.16h-41.89Zm194.73,0h-41.91c-7.73,0-14.07-6.81-14.07-15.16v-72.44c0-8.34,6.34-15.16,14.07-15.16h41.91c7.73,0,14.07,6.81,14.07,15.16v72.44c0,8.34-6.34,15.16-14.07,15.16Zm166.91-15.16c0,8.34-6.34,15.16-14.08,15.16h-41.89c-7.74,0-14.07-6.81-14.07-15.16v-72.44c0-8.34,6.32-15.16,14.07-15.16h41.89c7.74,0,14.08,6.81,14.08,15.16v72.44Zm0-870.05c0,8.34-6.34,15.16-14.08,15.16h-41.89c-7.74,0-14.07-6.81-14.07-15.16V59.13c0-8.34,6.32-15.16,14.07-15.16h41.89c7.74,0,14.08,6.81,14.08,15.16v72.44Z"/>
          </g>
          <g>
            <g class="cls-3">
              <rect class="cls-5" x="2206.31" y="72.7" width="57.1" height="35"/>
            </g>
            <g class="cls-3">
              <rect class="cls-5" x="2333.45" y="72.7" width="82.81" height="35"/>
            </g>
            <g class="cls-3">
              <rect class="cls-5" x="2486.29" y="72.7" width="82.79" height="35"/>
            </g>
            <g class="cls-3">
              <rect class="cls-5" x="2639.12" y="72.7" width="82.81" height="35"/>
            </g>
            <g class="cls-3">
              <rect class="cls-5" x="2791.97" y="72.7" width="82.81" height="35"/>
            </g>
            <g class="cls-3">
              <rect class="cls-5" x="2944.79" y="72.7" width="82.81" height="35"/>
            </g>
            <g class="cls-3">
              <rect class="cls-5" x="3097.64" y="72.7" width="82.81" height="35"/>
            </g>
            <g class="cls-3">
              <rect class="cls-5" x="3250.48" y="72.7" width="57.08" height="35"/>
            </g>
            <g class="cls-3">
              <rect class="cls-5" x="2314.61" width="30.19" height="30.51"/>
            </g>
            <g class="cls-3">
              <rect class="cls-5" x="2242.98" width="20.43" height="30.51"/>
            </g>
            <g class="cls-3">
              <polygon class="cls-5" points="2226.75 30.51 2226.75 28.72 2226.75 0 2206.32 0 2206.32 28.72 2206.32 30.51 2206.32 59.23 2226.75 59.23 2226.75 30.51"/>
            </g>
            <g class="cls-3">
              <rect class="cls-5" x="2355.63" width="18.74" height="30.51"/>
            </g>
            <g class="cls-3">
              <rect class="cls-5" x="2385.2" width="18.74" height="30.51"/>
            </g>
            <g class="cls-3">
              <rect class="cls-5" x="3097.64" width="18.74" height="30.51"/>
            </g>
            <g class="cls-3">
              <rect class="cls-5" x="3125.43" width="46.45" height="30.51"/>
            </g>
            <g class="cls-3">
              <rect class="cls-5" x="2731.69" width="18.74" height="30.51"/>
            </g>
            <g class="cls-3">
              <rect class="cls-5" x="2764.45" width="18.74" height="30.51"/>
            </g>
            <g class="cls-3">
              <polygon class="cls-5" points="3290.58 28.72 3290.58 0 3271.84 0 3271.84 28.72 3259.85 28.72 3259.85 0 3241.11 0 3241.11 30.51 3256.85 30.51 3256.85 59.23 3275.59 59.23 3275.59 30.51 3288.83 30.51 3288.83 59.23 3307.57 59.23 3307.57 28.72 3290.58 28.72"/>
            </g>
            <g class="cls-3">
              <polygon class="cls-5" points="2813.59 59.23 2827.33 59.23 2832.33 59.23 2865.09 59.23 2865.09 30.51 2881.47 30.51 2881.47 0 2862.73 0 2862.73 28.72 2848.71 28.72 2848.71 0 2829.97 0 2829.97 28.72 2827.33 28.72 2815.95 28.72 2815.95 0 2797.21 0 2797.21 30.51 2813.59 30.51 2813.59 59.23"/>
            </g>
            <g class="cls-3">
              <rect class="cls-5" x="2895.49" width="18.74" height="30.51"/>
            </g>
            <g class="cls-3">
              <rect class="cls-5" x="2928.25" width="18.74" height="30.51"/>
            </g>
            <g class="cls-3">
              <rect class="cls-5" x="2535.96" width="18.74" height="30.51"/>
            </g>
            <g class="cls-3">
              <rect class="cls-5" x="2565.52" width="18.74" height="30.51"/>
            </g>
            <g class="cls-3">
              <rect class="cls-5" x="2594.74" width="18.74" height="30.51"/>
            </g>
            <g class="cls-3">
              <rect class="cls-5" x="2206.31" y="942.29" width="57.1" height="35"/>
            </g>
            <g class="cls-3">
              <rect class="cls-5" x="2333.45" y="942.29" width="82.81" height="35"/>
            </g>
            <g class="cls-3">
              <rect class="cls-5" x="2486.29" y="942.29" width="82.79" height="35"/>
            </g>
            <g class="cls-3">
              <rect class="cls-5" x="2639.12" y="942.29" width="82.81" height="35"/>
            </g>
            <g class="cls-3">
              <rect class="cls-5" x="2791.97" y="942.29" width="82.81" height="35"/>
            </g>
            <g class="cls-3">
              <rect class="cls-5" x="2944.79" y="942.29" width="82.81" height="35"/>
            </g>
            <g class="cls-3">
              <rect class="cls-5" x="3097.64" y="942.29" width="82.81" height="35"/>
            </g>
            <g class="cls-3">
              <rect class="cls-5" x="3250.48" y="942.29" width="57.08" height="35"/>
            </g>
            <g class="cls-3">
              <rect class="cls-5" x="2314.61" y="1019.47" width="30.19" height="30.51"/>
            </g>
            <g class="cls-3">
              <rect class="cls-5" x="2242.98" y="1019.47" width="20.43" height="30.51"/>
            </g>
            <g class="cls-3">
              <polygon class="cls-5" points="2206.32 1019.47 2206.32 1021.26 2206.32 1049.98 2226.75 1049.98 2226.75 1021.26 2226.75 1019.47 2226.75 990.75 2206.32 990.75 2206.32 1019.47"/>
            </g>
            <g class="cls-3">
              <rect class="cls-5" x="2355.63" y="1019.47" width="18.74" height="30.51"/>
            </g>
            <g class="cls-3">
              <rect class="cls-5" x="2385.2" y="1019.47" width="18.74" height="30.51"/>
            </g>
            <g class="cls-3">
              <rect class="cls-5" x="3097.64" y="1019.47" width="18.74" height="30.51"/>
            </g>
            <g class="cls-3">
              <rect class="cls-5" x="3125.43" y="1019.47" width="46.45" height="30.51"/>
            </g>
            <g class="cls-3">
              <rect class="cls-5" x="2731.69" y="1019.47" width="18.74" height="30.51"/>
            </g>
            <g class="cls-3">
              <rect class="cls-5" x="2764.45" y="1019.47" width="18.74" height="30.51"/>
            </g>
            <g class="cls-3">
              <polygon class="cls-5" points="3288.83 1019.47 3275.59 1019.47 3275.59 990.75 3256.85 990.75 3256.85 1019.47 3241.11 1019.47 3241.11 1049.98 3259.85 1049.98 3259.85 1021.26 3271.84 1021.26 3271.84 1049.98 3290.58 1049.98 3290.58 1021.26 3307.57 1021.26 3307.57 990.75 3288.83 990.75 3288.83 1019.47"/>
            </g>
            <g class="cls-3">
              <polygon class="cls-5" points="2865.09 990.75 2832.33 990.75 2827.33 990.75 2813.59 990.75 2813.59 1019.47 2797.21 1019.47 2797.21 1049.98 2815.95 1049.98 2815.95 1021.26 2827.33 1021.26 2829.97 1021.26 2829.97 1049.98 2848.71 1049.98 2848.71 1021.26 2862.73 1021.26 2862.73 1049.98 2881.47 1049.98 2881.47 1019.47 2865.09 1019.47 2865.09 990.75"/>
            </g>
            <g class="cls-3">
              <rect class="cls-5" x="2895.49" y="1019.47" width="18.74" height="30.51"/>
            </g>
            <g class="cls-3">
              <rect class="cls-5" x="2928.25" y="1019.47" width="18.74" height="30.51"/>
            </g>
            <g class="cls-3">
              <rect class="cls-5" x="2535.96" y="1019.47" width="18.74" height="30.51"/>
            </g>
            <g class="cls-3">
              <rect class="cls-5" x="2565.52" y="1019.47" width="18.74" height="30.51"/>
            </g>
            <g class="cls-3">
              <rect class="cls-5" x="2594.74" y="1019.47" width="18.74" height="30.51"/>
            </g>
          </g>
        </g>
      </g>
      <g>
        <g>
          <rect class="cls-2" x="3333.93" y="169.61" width="1048.54" height="721.53" rx="11.68" ry="11.68"/>
          <g class="cls-3">
            <path class="cls-6" d="m3307.57,0v1049.99h1101.26V0h-1101.26Zm821.29,59.13c0-8.34,6.34-15.16,14.07-15.16h41.91c7.73,0,14.07,6.81,14.07,15.16v72.44c0,8.34-6.34,15.16-14.07,15.16h-41.91c-7.73,0-14.07-6.81-14.07-15.16V59.13Zm253.62,152.49v637.5c0,23.2-17.46,42.01-38.99,42.01h-970.57c-21.53,0-38.99-18.81-38.99-42.01V211.63c0-23.2,17.46-42.01,38.99-42.01h970.57c21.53,0,38.99,18.81,38.99,42.01Zm-392.38-167.65h41.89c7.74,0,14.07,6.81,14.07,15.16v72.44c0,8.34-6.32,15.16-14.07,15.16h-41.89c-7.74,0-14.07-6.81-14.07-15.16V59.13c0-8.34,6.32-15.16,14.07-15.16Zm-166.91,15.16c0-8.34,6.34-15.16,14.07-15.16h41.89c7.74,0,14.08,6.81,14.08,15.16v72.44c0,8.34-6.34,15.16-14.08,15.16h-41.89c-7.73,0-14.07-6.81-14.07-15.16V59.13Zm-96.87-15.16c7.74,0,14.07,6.81,14.07,15.16v72.44c0,8.34-6.32,15.16-14.07,15.16h-41.89c-7.74,0-14.08-6.81-14.08-15.16V59.13c0-8.34,6.34-15.16,14.08-15.16h41.89Zm-208.8,15.16c0-8.34,6.32-15.16,14.07-15.16h41.89c7.74,0,14.08,6.81,14.08,15.16v72.44c0,8.34-6.34,15.16-14.08,15.16h-41.89c-7.74,0-14.07-6.81-14.07-15.16V59.13Zm-152.85,0c0-8.34,6.34-15.16,14.08-15.16h41.89c7.74,0,14.07,6.81,14.07,15.16v72.44c0,8.34-6.32,15.16-14.07,15.16h-41.89c-7.74,0-14.08-6.81-14.08-15.16V59.13Zm14.08,957.64c-7.74,0-14.08-6.81-14.08-15.16v-72.44c0-8.34,6.34-15.16,14.08-15.16h41.89c7.74,0,14.07,6.81,14.07,15.16v72.44c0,8.34-6.32,15.16-14.07,15.16h-41.89Zm208.8-15.16c0,8.34-6.34,15.16-14.08,15.16h-41.89c-7.74,0-14.07-6.81-14.07-15.16v-72.44c0-8.34,6.32-15.16,14.07-15.16h41.89c7.74,0,14.08,6.81,14.08,15.16v72.44Zm152.83,0c0,8.34-6.32,15.16-14.07,15.16h-41.89c-7.74,0-14.08-6.81-14.08-15.16v-72.44c0-8.34,6.34-15.16,14.08-15.16h41.89c7.74,0,14.07,6.81,14.07,15.16v72.44Zm152.85,0c0,8.34-6.34,15.16-14.08,15.16h-41.89c-7.73,0-14.07-6.81-14.07-15.16v-72.44c0-8.34,6.34-15.16,14.07-15.16h41.89c7.74,0,14.08,6.81,14.08,15.16v72.44Zm96.87,15.16c-7.74,0-14.07-6.81-14.07-15.16v-72.44c0-8.34,6.32-15.16,14.07-15.16h41.89c7.74,0,14.07,6.81,14.07,15.16v72.44c0,8.34-6.32,15.16-14.07,15.16h-41.89Zm194.73,0h-41.91c-7.73,0-14.07-6.81-14.07-15.16v-72.44c0-8.34,6.34-15.16,14.07-15.16h41.91c7.73,0,14.07,6.81,14.07,15.16v72.44c0,8.34-6.34,15.16-14.07,15.16Zm166.91-15.16c0,8.34-6.34,15.16-14.08,15.16h-41.89c-7.74,0-14.07-6.81-14.07-15.16v-72.44c0-8.34,6.32-15.16,14.07-15.16h41.89c7.74,0,14.08,6.81,14.08,15.16v72.44Zm0-870.05c0,8.34-6.34,15.16-14.08,15.16h-41.89c-7.74,0-14.07-6.81-14.07-15.16V59.13c0-8.34,6.32-15.16,14.07-15.16h41.89c7.74,0,14.08,6.81,14.08,15.16v72.44Z"/>
          </g>
          <g>
            <g class="cls-3">
              <rect class="cls-5" x="3307.57" y="72.7" width="57.1" height="35"/>
            </g>
            <g class="cls-3">
              <rect class="cls-5" x="3434.7" y="72.7" width="82.81" height="35"/>
            </g>
            <g class="cls-3">
              <rect class="cls-5" x="3587.55" y="72.7" width="82.79" height="35"/>
            </g>
            <g class="cls-3">
              <rect class="cls-5" x="3740.38" y="72.7" width="82.81" height="35"/>
            </g>
            <g class="cls-3">
              <rect class="cls-5" x="3893.22" y="72.7" width="82.81" height="35"/>
            </g>
            <g class="cls-3">
              <rect class="cls-5" x="4046.05" y="72.7" width="82.81" height="35"/>
            </g>
            <g class="cls-3">
              <rect class="cls-5" x="4198.89" y="72.7" width="82.81" height="35"/>
            </g>
            <g class="cls-3">
              <rect class="cls-5" x="4351.74" y="72.7" width="57.08" height="35"/>
            </g>
            <g class="cls-3">
              <rect class="cls-5" x="3415.87" width="30.19" height="30.51"/>
            </g>
            <g class="cls-3">
              <rect class="cls-5" x="3344.24" width="20.43" height="30.51"/>
            </g>
            <g class="cls-3">
              <polygon class="cls-5" points="3328.01 30.51 3328.01 28.72 3328.01 0 3307.57 0 3307.57 28.72 3307.57 30.51 3307.57 59.23 3328.01 59.23 3328.01 30.51"/>
            </g>
            <g class="cls-3">
              <rect class="cls-5" x="3456.89" width="18.74" height="30.51"/>
            </g>
            <g class="cls-3">
              <rect class="cls-5" x="3486.46" width="18.74" height="30.51"/>
            </g>
            <g class="cls-3">
              <rect class="cls-5" x="4198.89" width="18.74" height="30.51"/>
            </g>
            <g class="cls-3">
              <rect class="cls-5" x="4226.68" width="46.45" height="30.51"/>
            </g>
            <g class="cls-3">
              <rect class="cls-5" x="3832.95" width="18.74" height="30.51"/>
            </g>
            <g class="cls-3">
              <rect class="cls-5" x="3865.71" width="18.74" height="30.51"/>
            </g>
            <g class="cls-3">
              <polygon class="cls-5" points="4391.84 28.72 4391.84 0 4373.1 0 4373.1 28.72 4361.1 28.72 4361.1 0 4342.36 0 4342.36 30.51 4358.11 30.51 4358.11 59.23 4376.85 59.23 4376.85 30.51 4390.09 30.51 4390.09 59.23 4408.83 59.23 4408.83 28.72 4391.84 28.72"/>
            </g>
            <g class="cls-3">
              <polygon class="cls-5" points="3914.85 59.23 3928.59 59.23 3933.59 59.23 3966.35 59.23 3966.35 30.51 3982.73 30.51 3982.73 0 3963.99 0 3963.99 28.72 3949.97 28.72 3949.97 0 3931.23 0 3931.23 28.72 3928.59 28.72 3917.21 28.72 3917.21 0 3898.47 0 3898.47 30.51 3914.85 30.51 3914.85 59.23"/>
            </g>
            <g class="cls-3">
              <rect class="cls-5" x="3996.75" width="18.74" height="30.51"/>
            </g>
            <g class="cls-3">
              <rect class="cls-5" x="4029.51" width="18.74" height="30.51"/>
            </g>
            <g class="cls-3">
              <rect class="cls-5" x="3637.21" width="18.74" height="30.51"/>
            </g>
            <g class="cls-3">
              <rect class="cls-5" x="3666.78" width="18.74" height="30.51"/>
            </g>
            <g class="cls-3">
              <rect class="cls-5" x="3695.99" width="18.74" height="30.51"/>
            </g>
            <g class="cls-3">
              <rect class="cls-5" x="3307.57" y="942.29" width="57.1" height="35"/>
            </g>
            <g class="cls-3">
              <rect class="cls-5" x="3434.7" y="942.29" width="82.81" height="35"/>
            </g>
            <g class="cls-3">
              <rect class="cls-5" x="3587.55" y="942.29" width="82.79" height="35"/>
            </g>
            <g class="cls-3">
              <rect class="cls-5" x="3740.38" y="942.29" width="82.81" height="35"/>
            </g>
            <g class="cls-3">
              <rect class="cls-5" x="3893.22" y="942.29" width="82.81" height="35"/>
            </g>
            <g class="cls-3">
              <rect class="cls-5" x="4046.05" y="942.29" width="82.81" height="35"/>
            </g>
            <g class="cls-3">
              <rect class="cls-5" x="4198.89" y="942.29" width="82.81" height="35"/>
            </g>
            <g class="cls-3">
              <rect class="cls-5" x="4351.74" y="942.29" width="57.08" height="35"/>
            </g>
            <g class="cls-3">
              <rect class="cls-5" x="3415.87" y="1019.47" width="30.19" height="30.51"/>
            </g>
            <g class="cls-3">
              <rect class="cls-5" x="3344.24" y="1019.47" width="20.43" height="30.51"/>
            </g>
            <g class="cls-3">
              <polygon class="cls-5" points="3307.57 1019.47 3307.57 1021.26 3307.57 1049.98 3328.01 1049.98 3328.01 1021.26 3328.01 1019.47 3328.01 990.75 3307.57 990.75 3307.57 1019.47"/>
            </g>
            <g class="cls-3">
              <rect class="cls-5" x="3456.89" y="1019.47" width="18.74" height="30.51"/>
            </g>
            <g class="cls-3">
              <rect class="cls-5" x="3486.46" y="1019.47" width="18.74" height="30.51"/>
            </g>
            <g class="cls-3">
              <rect class="cls-5" x="4198.89" y="1019.47" width="18.74" height="30.51"/>
            </g>
            <g class="cls-3">
              <rect class="cls-5" x="4226.68" y="1019.47" width="46.45" height="30.51"/>
            </g>
            <g class="cls-3">
              <rect class="cls-5" x="3832.95" y="1019.47" width="18.74" height="30.51"/>
            </g>
            <g class="cls-3">
              <rect class="cls-5" x="3865.71" y="1019.47" width="18.74" height="30.51"/>
            </g>
            <g class="cls-3">
              <polygon class="cls-5" points="4390.09 1019.47 4376.85 1019.47 4376.85 990.75 4358.11 990.75 4358.11 1019.47 4342.36 1019.47 4342.36 1049.98 4361.1 1049.98 4361.1 1021.26 4373.1 1021.26 4373.1 1049.98 4391.84 1049.98 4391.84 1021.26 4408.83 1021.26 4408.83 990.75 4390.09 990.75 4390.09 1019.47"/>
            </g>
            <g class="cls-3">
              <polygon class="cls-5" points="3966.35 990.75 3933.59 990.75 3928.59 990.75 3914.85 990.75 3914.85 1019.47 3898.47 1019.47 3898.47 1049.98 3917.21 1049.98 3917.21 1021.26 3928.59 1021.26 3931.23 1021.26 3931.23 1049.98 3949.97 1049.98 3949.97 1021.26 3963.99 1021.26 3963.99 1049.98 3982.73 1049.98 3982.73 1019.47 3966.35 1019.47 3966.35 990.75"/>
            </g>
            <g class="cls-3">
              <rect class="cls-5" x="3996.75" y="1019.47" width="18.74" height="30.51"/>
            </g>
            <g class="cls-3">
              <rect class="cls-5" x="4029.51" y="1019.47" width="18.74" height="30.51"/>
            </g>
            <g class="cls-3">
              <rect class="cls-5" x="3637.21" y="1019.47" width="18.74" height="30.51"/>
            </g>
            <g class="cls-3">
              <rect class="cls-5" x="3666.78" y="1019.47" width="18.74" height="30.51"/>
            </g>
            <g class="cls-3">
              <rect class="cls-5" x="3695.99" y="1019.47" width="18.74" height="30.51"/>
            </g>
          </g>
        </g>
        <g>
          <rect class="cls-2" x="4435.19" y="169.61" width="1048.54" height="721.53" rx="11.68" ry="11.68"/>
          <g class="cls-3">
            <path class="cls-6" d="m4408.82,0v1049.99h1101.26V0h-1101.26Zm821.29,59.13c0-8.34,6.34-15.16,14.07-15.16h41.91c7.73,0,14.07,6.81,14.07,15.16v72.44c0,8.34-6.34,15.16-14.07,15.16h-41.91c-7.73,0-14.07-6.81-14.07-15.16V59.13Zm253.62,152.49v637.5c0,23.2-17.46,42.01-38.99,42.01h-970.57c-21.53,0-38.99-18.81-38.99-42.01V211.63c0-23.2,17.46-42.01,38.99-42.01h970.57c21.53,0,38.99,18.81,38.99,42.01Zm-392.38-167.65h41.89c7.74,0,14.07,6.81,14.07,15.16v72.44c0,8.34-6.32,15.16-14.07,15.16h-41.89c-7.74,0-14.07-6.81-14.07-15.16V59.13c0-8.34,6.32-15.16,14.07-15.16Zm-166.91,15.16c0-8.34,6.34-15.16,14.07-15.16h41.89c7.74,0,14.08,6.81,14.08,15.16v72.44c0,8.34-6.34,15.16-14.08,15.16h-41.89c-7.73,0-14.07-6.81-14.07-15.16V59.13Zm-96.87-15.16c7.74,0,14.07,6.81,14.07,15.16v72.44c0,8.34-6.32,15.16-14.07,15.16h-41.89c-7.74,0-14.08-6.81-14.08-15.16V59.13c0-8.34,6.34-15.16,14.08-15.16h41.89Zm-208.8,15.16c0-8.34,6.32-15.16,14.07-15.16h41.89c7.74,0,14.08,6.81,14.08,15.16v72.44c0,8.34-6.34,15.16-14.08,15.16h-41.89c-7.74,0-14.07-6.81-14.07-15.16V59.13Zm-152.85,0c0-8.34,6.34-15.16,14.08-15.16h41.89c7.74,0,14.07,6.81,14.07,15.16v72.44c0,8.34-6.32,15.16-14.07,15.16h-41.89c-7.74,0-14.08-6.81-14.08-15.16V59.13Zm14.08,957.64c-7.74,0-14.08-6.81-14.08-15.16v-72.44c0-8.34,6.34-15.16,14.08-15.16h41.89c7.74,0,14.07,6.81,14.07,15.16v72.44c0,8.34-6.32,15.16-14.07,15.16h-41.89Zm208.8-15.16c0,8.34-6.34,15.16-14.08,15.16h-41.89c-7.74,0-14.07-6.81-14.07-15.16v-72.44c0-8.34,6.32-15.16,14.07-15.16h41.89c7.74,0,14.08,6.81,14.08,15.16v72.44Zm152.83,0c0,8.34-6.32,15.16-14.07,15.16h-41.89c-7.74,0-14.08-6.81-14.08-15.16v-72.44c0-8.34,6.34-15.16,14.08-15.16h41.89c7.74,0,14.07,6.81,14.07,15.16v72.44Zm152.85,0c0,8.34-6.34,15.16-14.08,15.16h-41.89c-7.73,0-14.07-6.81-14.07-15.16v-72.44c0-8.34,6.34-15.16,14.07-15.16h41.89c7.74,0,14.08,6.81,14.08,15.16v72.44Zm96.87,15.16c-7.74,0-14.07-6.81-14.07-15.16v-72.44c0-8.34,6.32-15.16,14.07-15.16h41.89c7.74,0,14.07,6.81,14.07,15.16v72.44c0,8.34-6.32,15.16-14.07,15.16h-41.89Zm194.73,0h-41.91c-7.73,0-14.07-6.81-14.07-15.16v-72.44c0-8.34,6.34-15.16,14.07-15.16h41.91c7.73,0,14.07,6.81,14.07,15.16v72.44c0,8.34-6.34,15.16-14.07,15.16Zm166.91-15.16c0,8.34-6.34,15.16-14.08,15.16h-41.89c-7.74,0-14.07-6.81-14.07-15.16v-72.44c0-8.34,6.32-15.16,14.07-15.16h41.89c7.74,0,14.08,6.81,14.08,15.16v72.44Zm0-870.05c0,8.34-6.34,15.16-14.08,15.16h-41.89c-7.74,0-14.07-6.81-14.07-15.16V59.13c0-8.34,6.32-15.16,14.07-15.16h41.89c7.74,0,14.08,6.81,14.08,15.16v72.44Z"/>
          </g>
          <g>
            <g class="cls-3">
              <rect class="cls-5" x="4408.82" y="72.7" width="57.1" height="35"/>
            </g>
            <g class="cls-3">
              <rect class="cls-5" x="4535.96" y="72.7" width="82.81" height="35"/>
            </g>
            <g class="cls-3">
              <rect class="cls-5" x="4688.81" y="72.7" width="82.79" height="35"/>
            </g>
            <g class="cls-3">
              <rect class="cls-5" x="4841.63" y="72.7" width="82.81" height="35"/>
            </g>
            <g class="cls-3">
              <rect class="cls-5" x="4994.48" y="72.7" width="82.81" height="35"/>
            </g>
            <g class="cls-3">
              <rect class="cls-5" x="5147.31" y="72.7" width="82.81" height="35"/>
            </g>
            <g class="cls-3">
              <rect class="cls-5" x="5300.15" y="72.7" width="82.81" height="35"/>
            </g>
            <g class="cls-3">
              <rect class="cls-5" x="5453" y="72.7" width="57.08" height="35"/>
            </g>
            <g class="cls-3">
              <rect class="cls-5" x="4517.13" width="30.19" height="30.51"/>
            </g>
            <g class="cls-3">
              <rect class="cls-5" x="4445.5" width="20.43" height="30.51"/>
            </g>
            <g class="cls-3">
              <polygon class="cls-5" points="4429.26 30.51 4429.26 28.72 4429.26 0 4408.83 0 4408.83 28.72 4408.83 30.51 4408.83 59.23 4429.26 59.23 4429.26 30.51"/>
            </g>
            <g class="cls-3">
              <rect class="cls-5" x="4558.15" width="18.74" height="30.51"/>
            </g>
            <g class="cls-3">
              <rect class="cls-5" x="4587.71" width="18.74" height="30.51"/>
            </g>
            <g class="cls-3">
              <rect class="cls-5" x="5300.15" width="18.74" height="30.51"/>
            </g>
            <g class="cls-3">
              <rect class="cls-5" x="5327.94" width="46.45" height="30.51"/>
            </g>
            <g class="cls-3">
              <rect class="cls-5" x="4934.2" width="18.74" height="30.51"/>
            </g>
            <g class="cls-3">
              <rect class="cls-5" x="4966.96" width="18.74" height="30.51"/>
            </g>
            <g class="cls-3">
              <polygon class="cls-5" points="5493.1 28.72 5493.1 0 5474.36 0 5474.36 28.72 5462.36 28.72 5462.36 0 5443.62 0 5443.62 30.51 5459.36 30.51 5459.36 59.23 5478.1 59.23 5478.1 30.51 5491.34 30.51 5491.34 59.23 5510.08 59.23 5510.08 28.72 5493.1 28.72"/>
            </g>
            <g class="cls-3">
              <polygon class="cls-5" points="5016.1 59.23 5029.85 59.23 5034.84 59.23 5067.6 59.23 5067.6 30.51 5083.99 30.51 5083.99 0 5065.24 0 5065.24 28.72 5051.22 28.72 5051.22 0 5032.48 0 5032.48 28.72 5029.85 28.72 5018.46 28.72 5018.46 0 4999.72 0 4999.72 30.51 5016.1 30.51 5016.1 59.23"/>
            </g>
            <g class="cls-3">
              <rect class="cls-5" x="5098.01" width="18.74" height="30.51"/>
            </g>
            <g class="cls-3">
              <rect class="cls-5" x="5130.77" width="18.74" height="30.51"/>
            </g>
            <g class="cls-3">
              <rect class="cls-5" x="4738.47" width="18.74" height="30.51"/>
            </g>
            <g class="cls-3">
              <rect class="cls-5" x="4768.04" width="18.74" height="30.51"/>
            </g>
            <g class="cls-3">
              <rect class="cls-5" x="4797.25" width="18.74" height="30.51"/>
            </g>
            <g class="cls-3">
              <rect class="cls-5" x="4408.82" y="942.29" width="57.1" height="35"/>
            </g>
            <g class="cls-3">
              <rect class="cls-5" x="4535.96" y="942.29" width="82.81" height="35"/>
            </g>
            <g class="cls-3">
              <rect class="cls-5" x="4688.81" y="942.29" width="82.79" height="35"/>
            </g>
            <g class="cls-3">
              <rect class="cls-5" x="4841.63" y="942.29" width="82.81" height="35"/>
            </g>
            <g class="cls-3">
              <rect class="cls-5" x="4994.48" y="942.29" width="82.81" height="35"/>
            </g>
            <g class="cls-3">
              <rect class="cls-5" x="5147.31" y="942.29" width="82.81" height="35"/>
            </g>
            <g class="cls-3">
              <rect class="cls-5" x="5300.15" y="942.29" width="82.81" height="35"/>
            </g>
            <g class="cls-3">
              <rect class="cls-5" x="5453" y="942.29" width="57.08" height="35"/>
            </g>
            <g class="cls-3">
              <rect class="cls-5" x="4517.13" y="1019.47" width="30.19" height="30.51"/>
            </g>
            <g class="cls-3">
              <rect class="cls-5" x="4445.5" y="1019.47" width="20.43" height="30.51"/>
            </g>
            <g class="cls-3">
              <polygon class="cls-5" points="4408.83 1019.47 4408.83 1021.26 4408.83 1049.98 4429.26 1049.98 4429.26 1021.26 4429.26 1019.47 4429.26 990.75 4408.83 990.75 4408.83 1019.47"/>
            </g>
            <g class="cls-3">
              <rect class="cls-5" x="4558.15" y="1019.47" width="18.74" height="30.51"/>
            </g>
            <g class="cls-3">
              <rect class="cls-5" x="4587.71" y="1019.47" width="18.74" height="30.51"/>
            </g>
            <g class="cls-3">
              <rect class="cls-5" x="5300.15" y="1019.47" width="18.74" height="30.51"/>
            </g>
            <g class="cls-3">
              <rect class="cls-5" x="5327.94" y="1019.47" width="46.45" height="30.51"/>
            </g>
            <g class="cls-3">
              <rect class="cls-5" x="4934.2" y="1019.47" width="18.74" height="30.51"/>
            </g>
            <g class="cls-3">
              <rect class="cls-5" x="4966.96" y="1019.47" width="18.74" height="30.51"/>
            </g>
            <g class="cls-3">
              <polygon class="cls-5" points="5491.34 1019.47 5478.1 1019.47 5478.1 990.75 5459.36 990.75 5459.36 1019.47 5443.62 1019.47 5443.62 1049.98 5462.36 1049.98 5462.36 1021.26 5474.36 1021.26 5474.36 1049.98 5493.1 1049.98 5493.1 1021.26 5510.08 1021.26 5510.08 990.75 5491.34 990.75 5491.34 1019.47"/>
            </g>
            <g class="cls-3">
              <polygon class="cls-5" points="5067.6 990.75 5034.84 990.75 5029.85 990.75 5016.1 990.75 5016.1 1019.47 4999.72 1019.47 4999.72 1049.98 5018.46 1049.98 5018.46 1021.26 5029.85 1021.26 5032.48 1021.26 5032.48 1049.98 5051.22 1049.98 5051.22 1021.26 5065.24 1021.26 5065.24 1049.98 5083.99 1049.98 5083.99 1019.47 5067.6 1019.47 5067.6 990.75"/>
            </g>
            <g class="cls-3">
              <rect class="cls-5" x="5098.01" y="1019.47" width="18.74" height="30.51"/>
            </g>
            <g class="cls-3">
              <rect class="cls-5" x="5130.77" y="1019.47" width="18.74" height="30.51"/>
            </g>
            <g class="cls-3">
              <rect class="cls-5" x="4738.47" y="1019.47" width="18.74" height="30.51"/>
            </g>
            <g class="cls-3">
              <rect class="cls-5" x="4768.04" y="1019.47" width="18.74" height="30.51"/>
            </g>
            <g class="cls-3">
              <rect class="cls-5" x="4797.25" y="1019.47" width="18.74" height="30.51"/>
            </g>
          </g>
        </g>
        <g>
          <g class="cls-3">
            <path class="cls-6" d="m5510.08,0l1101.26,1049.99V0h-1101.26Zm821.29,59.13c0-8.34,6.34-15.16,14.07-15.16h41.91c7.73,0,14.07,6.81,14.07,15.16v72.44c0,8.34-6.34,15.16-14.07,15.16h-41.91c-7.73,0-14.07-6.81-14.07-15.16V59.13Zm253.62,152.49v637.5c0,23.2-17.46,42.01-38.99,42.01h-970.57c-21.53,0-38.99-18.81-38.99-42.01V211.63c0-23.2,17.46-42.01,38.99-42.01h970.57c21.53,0,38.99,18.81,38.99,42.01Zm-392.38-167.65h41.89c7.74,0,14.07,6.81,14.07,15.16v72.44c0,8.34-6.32,15.16-14.07,15.16h-41.89c-7.74,0-14.07-6.81-14.07-15.16V59.13c0-8.34,6.32-15.16,14.07-15.16Zm-166.91,15.16c0-8.34,6.34-15.16,14.07-15.16h41.89c7.74,0,14.08,6.81,14.08,15.16v72.44c0,8.34-6.34,15.16-14.08,15.16h-41.89c-7.73,0-14.07-6.81-14.07-15.16V59.13Zm-96.87-15.16c7.74,0,14.07,6.81,14.07,15.16v72.44c0,8.34-6.32,15.16-14.07,15.16h-41.89c-7.74,0-14.08-6.81-14.08-15.16V59.13c0-8.34,6.34-15.16,14.08-15.16h41.89Zm-208.8,15.16c0-8.34,6.32-15.16,14.07-15.16h41.89c7.74,0,14.08,6.81,14.08,15.16v72.44c0,8.34-6.34,15.16-14.08,15.16h-41.89c-7.74,0-14.07-6.81-14.07-15.16V59.13Zm-152.85,0c0-8.34,6.34-15.16,14.08-15.16h41.89c7.74,0,14.07,6.81,14.07,15.16v72.44c0,8.34-6.32,15.16-14.07,15.16h-41.89c-7.74,0-14.08-6.81-14.08-15.16V59.13Zm14.08,957.64c-7.74,0-14.08-6.81-14.08-15.16v-72.44c0-8.34,6.34-15.16,14.08-15.16h41.89c7.74,0,14.07,6.81,14.07,15.16v72.44c0,8.34-6.32,15.16-14.07,15.16h-41.89Zm208.8-15.16c0,8.34-6.34,15.16-14.08,15.16h-41.89c-7.74,0-14.07-6.81-14.07-15.16v-72.44c0-8.34,6.32-15.16,14.07-15.16h41.89c7.74,0,14.08,6.81,14.08,15.16v72.44Zm152.83,0c0,8.34-6.32,15.16-14.07,15.16h-41.89c-7.74,0-14.08-6.81-14.08-15.16v-72.44c0-8.34,6.34-15.16,14.08-15.16h41.89c7.74,0,14.07,6.81,14.07,15.16v72.44Zm152.85,0c0,8.34-6.34,15.16-14.08,15.16h-41.89c-7.73,0-14.07-6.81-14.07-15.16v-72.44c0-8.34,6.34-15.16,14.07-15.16h41.89c7.74,0,14.08,6.81,14.08,15.16v72.44Zm96.87,15.16c-7.74,0-14.07-6.81-14.07-15.16v-72.44c0-8.34,6.32-15.16,14.07-15.16h41.89c7.74,0,14.07,6.81,14.07,15.16v72.44c0,8.34-6.32,15.16-14.07,15.16h-41.89Zm194.73,0h-41.91c-7.73,0-14.07-6.81-14.07-15.16v-72.44c0-8.34,6.34-15.16,14.07-15.16h41.91c7.73,0,14.07,6.81,14.07,15.16v72.44c0,8.34-6.34,15.16-14.07,15.16Zm166.91-15.16c0,8.34-6.34,15.16-14.08,15.16h-41.89c-7.74,0-14.07-6.81-14.07-15.16v-72.44c0-8.34,6.32-15.16,14.07-15.16h41.89c7.74,0,14.08,6.81,14.08,15.16v72.44Zm0-870.05c0,8.34-6.34,15.16-14.08,15.16h-41.89c-7.74,0-14.07-6.81-14.07-15.16V59.13c0-8.34,6.32-15.16,14.07-15.16h41.89c7.74,0,14.08,6.81,14.08,15.16v72.44Z"/>
          </g>
          <g>
            <g class="cls-3">
              <rect class="cls-5" x="5510.08" y="72.7" width="57.1" height="35"/>
            </g>
            <g class="cls-3">
              <polygon class="cls-5" points="5530.52 30.51 5530.52 28.72 5530.52 0 5510.09 0 5510.09 28.72 5510.09 30.51 5510.09 59.23 5530.52 59.23 5530.52 30.51"/>
            </g>
            <g class="cls-3">
              <rect class="cls-5" x="5510.08" y="942.29" width="57.1" height="35"/>
            </g>
          </g>
        </g>
      </g>
    </g>
  </g>
</svg>