<?xml version="1.0" encoding="UTF-8"?>
<svg id="Layer_1" data-name="Layer 1" xmlns="http://www.w3.org/2000/svg" viewBox="0 0 3224.87 1449.63">
  <defs>
    <style>
      .cls-1 {
        fill: #050505;
      }

      .cls-1, .cls-2 {
        opacity: .82;
      }

      .cls-3 {
        fill: #fff;
        opacity: .37;
      }

      .cls-4 {
        fill: none;
      }

      .cls-5 {
        fill: #001fff;
      }

      .cls-2 {
        fill: #1e1e1e;
      }
    </style>
  </defs>
  <path class="cls-4" d="m2077.92,186.49c0,11.45,11,20.79,24.4,20.79h72.7c13.4,0,24.4-9.35,24.4-20.79v-99.39c0-11.45-11-20.79-24.4-20.79h-72.7c-13.4,0-24.4,9.35-24.4,20.79v99.39Z"/>
  <path class="cls-4" d="m873.65,1280.87c0-11.45-10.97-20.79-24.4-20.79h-72.67c-13.43,0-24.43,9.35-24.43,20.79v99.39c0,11.45,11,20.79,24.43,20.79h72.67c13.43,0,24.4-9.35,24.4-20.79v-99.39Z"/>
  <path class="cls-4" d="m23.72,1280.87c0-11.45-10.97-20.79-24.4-20.79h-72.67c-13.43,0-24.4,9.35-24.4,20.79v99.39c0,11.45,10.97,20.79,24.4,20.79H-.69c13.43,0,24.4-9.35,24.4-20.79v-99.39Z"/>
  <path class="cls-4" d="m288.88,1280.87c0-11.45-11-20.79-24.4-20.79h-72.7c-13.4,0-24.4,9.35-24.4,20.79v99.39c0,11.45,11,20.79,24.4,20.79h72.7c13.4,0,24.4-9.35,24.4-20.79v-99.39Z"/>
  <path class="cls-4" d="m554.05,1280.87c0-11.45-11-20.79-24.43-20.79h-72.67c-13.43,0-24.4,9.35-24.4,20.79v99.39c0,11.45,10.97,20.79,24.4,20.79h72.67c13.43,0,24.43-9.35,24.43-20.79v-99.39Z"/>
  <path class="cls-4" d="m1017.31,186.49c0,11.45,10.97,20.79,24.4,20.79h72.67c13.43,0,24.43-9.35,24.43-20.79v-99.39c0-11.45-11-20.79-24.43-20.79h-72.67c-13.43,0-24.4,9.35-24.4,20.79v99.39Z"/>
  <path class="cls-4" d="m1282.45,186.49c0,11.45,11,20.79,24.43,20.79h72.67c13.43,0,24.4-9.35,24.4-20.79v-99.39c0-11.45-10.97-20.79-24.4-20.79h-72.67c-13.43,0-24.43,9.35-24.43,20.79v99.39Z"/>
  <path class="cls-4" d="m1547.62,186.49c0,11.45,11,20.79,24.4,20.79h72.67c13.43,0,24.43-9.35,24.43-20.79v-99.39c0-11.45-11-20.79-24.43-20.79h-72.67c-13.4,0-24.4,9.35-24.4,20.79v99.39Z"/>
  <path class="cls-4" d="m752.14,186.49c0,11.45,11,20.79,24.43,20.79h72.67c13.43,0,24.4-9.35,24.4-20.79v-99.39c0-11.45-10.97-20.79-24.4-20.79h-72.67c-13.43,0-24.43,9.35-24.43,20.79v99.39Z"/>
  <path class="cls-4" d="m1812.78,186.49c0,11.45,10.97,20.79,24.4,20.79h72.67c13.43,0,24.4-9.35,24.4-20.79v-99.39c0-11.45-10.97-20.79-24.4-20.79h-72.67c-13.43,0-24.4,9.35-24.4,20.79v99.39Z"/>
  <path class="cls-4" d="m432.55,186.49c0,11.45,10.97,20.79,24.4,20.79h72.67c13.43,0,24.43-9.35,24.43-20.79v-99.39c0-11.45-11-20.79-24.43-20.79h-72.67c-13.43,0-24.4,9.35-24.4,20.79v99.39Z"/>
  <path class="cls-4" d="m-97.76,186.49c0,11.45,10.97,20.79,24.4,20.79H-.69c13.43,0,24.4-9.35,24.4-20.79v-99.39c0-11.45-10.97-20.79-24.4-20.79h-72.67c-13.43,0-24.4,9.35-24.4,20.79v99.39Z"/>
  <path class="cls-4" d="m167.38,186.49c0,11.45,11,20.79,24.4,20.79h72.7c13.4,0,24.4-9.35,24.4-20.79v-99.39c0-11.45-11-20.79-24.4-20.79h-72.7c-13.4,0-24.4,9.35-24.4,20.79v99.39Z"/>
  <path class="cls-4" d="m3049.36,1280.87c0-11.45-11-20.79-24.43-20.79h-72.67c-13.43,0-24.4,9.35-24.4,20.79v99.39c0,11.45,10.97,20.79,24.4,20.79h72.67c13.43,0,24.43-9.35,24.43-20.79v-99.39Z"/>
  <path class="cls-4" d="m2464.59,1280.87c0-11.45-11-20.79-24.43-20.79h-72.67c-13.43,0-24.4,9.35-24.4,20.79v99.39c0,11.45,10.97,20.79,24.4,20.79h72.67c13.43,0,24.43-9.35,24.43-20.79v-99.39Z"/>
  <path class="cls-4" d="m2199.42,1280.87c0-11.45-11-20.79-24.4-20.79h-72.7c-13.4,0-24.4,9.35-24.4,20.79v99.39c0,11.45,11,20.79,24.4,20.79h72.7c13.4,0,24.4-9.35,24.4-20.79v-99.39Z"/>
  <path class="cls-4" d="m1934.26,1280.87c0-11.45-10.97-20.79-24.4-20.79h-72.67c-13.43,0-24.4,9.35-24.4,20.79v99.39c0,11.45,10.97,20.79,24.4,20.79h72.67c13.43,0,24.4-9.35,24.4-20.79v-99.39Z"/>
  <path class="cls-4" d="m1669.12,1280.87c0-11.45-11-20.79-24.43-20.79h-72.67c-13.4,0-24.4,9.35-24.4,20.79v99.39c0,11.45,11,20.79,24.4,20.79h72.67c13.43,0,24.43-9.35,24.43-20.79v-99.39Z"/>
  <path class="cls-4" d="m1403.95,1280.87c0-11.45-10.97-20.79-24.4-20.79h-72.67c-13.43,0-24.43,9.35-24.43,20.79v99.39c0,11.45,11,20.79,24.43,20.79h72.67c13.43,0,24.4-9.35,24.4-20.79v-99.39Z"/>
  <path class="cls-4" d="m2784.19,1280.87c0-11.45-10.97-20.79-24.4-20.79h-72.67c-13.43,0-24.43,9.35-24.43,20.79v99.39c0,11.45,11,20.79,24.43,20.79h72.67c13.43,0,24.4-9.35,24.4-20.79v-99.39Z"/>
  <path class="cls-4" d="m3314.5,1280.87c0-11.45-10.97-20.79-24.4-20.79h-72.67c-13.43,0-24.43,9.35-24.43,20.79v99.39c0,11.45,11,20.79,24.43,20.79h72.67c13.43,0,24.4-9.35,24.4-20.79v-99.39Z"/>
  <path class="cls-4" d="m1138.82,1280.87c0-11.45-11-20.79-24.43-20.79h-72.67c-13.43,0-24.4,9.35-24.4,20.79v99.39c0,11.45,10.97,20.79,24.4,20.79h72.67c13.43,0,24.43-9.35,24.43-20.79v-99.39Z"/>
  <path class="cls-4" d="m2343.09,186.49c0,11.45,10.97,20.79,24.4,20.79h72.67c13.43,0,24.43-9.35,24.43-20.79v-99.39c0-11.45-11-20.79-24.43-20.79h-72.67c-13.43,0-24.4,9.35-24.4,20.79v99.39Z"/>
  <path class="cls-4" d="m2662.69,186.49c0,11.45,11,20.79,24.43,20.79h72.67c13.43,0,24.4-9.35,24.4-20.79v-99.39c0-11.45-10.97-20.79-24.4-20.79h-72.67c-13.43,0-24.43,9.35-24.43,20.79v99.39Z"/>
  <path class="cls-4" d="m2517.91,1171.38c0-.12.01-.23.01-.35V296.33c0-.12,0-.23-.01-.35v875.4Z"/>
  <path class="cls-4" d="m2927.85,186.49c0,11.45,10.97,20.79,24.4,20.79h72.67c13.43,0,24.43-9.35,24.43-20.79v-99.39c0-11.45-11-20.79-24.43-20.79h-72.67c-13.43,0-24.4,9.35-24.4,20.79v99.39Z"/>
  <path class="cls-4" d="m3192.99,186.49c0,11.45,11,20.79,24.43,20.79h72.67c13.43,0,24.4-9.35,24.4-20.79v-99.39c0-11.45-10.97-20.79-24.4-20.79h-72.67c-13.43,0-24.43,9.35-24.43,20.79v99.39Z"/>
  <path class="cls-4" d="m698.82,297.68v-1.5c0,.05,0,.1,0,.15v874.7c0,.05,0,.1,0,.15V297.68Z"/>
  <path class="cls-3" d="m539.73,238.69h-1683.81c-1.58,0-3.14.06-4.69.15H544.42c-1.55-.09-3.11-.15-4.69-.15Z"/>
  <path class="cls-2" d="m-1257.45,45.36v41.86h-.01v18.48h99.06v-18.61c0-11.45,11-20.79,24.43-20.79h72.67c13.43,0,24.4,9.35,24.4,20.79v18.61h143.66v-18.61c0-11.45,10.97-20.79,24.4-20.79h72.67c13.43,0,24.43,9.35,24.43,20.79v18.61h143.63v-18.61c0-11.45,11-20.79,24.43-20.79h72.67c13.43,0,24.4,9.35,24.4,20.79v18.61h143.66v-18.61c0-11.45,11-20.79,24.4-20.79h72.67c13.43,0,24.43,9.35,24.43,20.79v18.61H-97.76v-18.61c0-11.45,10.97-20.79,24.4-20.79H-.69c13.43,0,24.4,9.35,24.4,20.79v18.61h143.66v-18.61c0-11.45,11-20.79,24.4-20.79h72.7c13.4,0,24.4,9.35,24.4,20.79v18.61h143.66v-18.61c0-11.45,10.97-20.79,24.4-20.79h72.67c13.43,0,24.43,9.35,24.43,20.79v18.61h99.03v-18.48h-32.5v-39.4h-22.97v39.4h-32.51v-39.4h-27.32V5.97h-120.1v41.86h-80.58V5.97h-15.7v41.86h-32.51V5.97H27.54v41.86H-4.98V5.97h-24.32v41.86h-32.51V5.97h-24.32v41.86h-28.42v39.4h-89.35v-39.4h-28.42V5.97h-24.32v41.86h-32.51V5.97h-24.32v41.86h-32.51V5.97h-205.08v41.86h-32.51V5.97h-18.17v41.86h-32.51V5.97h-18.78v41.86h-32.51V5.97h-229.03v41.86h-32.51V5.97h-18.78v41.86h-32.51V5.97h-18.78v41.86h-52.38V5.97h-88.82v41.86h-35.45V5.97h-28.16v81.26h-35.45V5.97h-.01v39.4h.01Z"/>
  <path class="cls-2" d="m-1158.4,1280.87c0-11.45,11-20.79,24.43-20.79h72.67c13.43,0,24.4,9.35,24.4,20.79v17.99h143.66v-17.99c0-11.45,10.97-20.79,24.4-20.79h72.67c13.43,0,24.43,9.35,24.43,20.79v17.99h143.63v-17.99c0-11.45,11-20.79,24.43-20.79h72.67c13.43,0,24.4,9.35,24.4,20.79v17.99h143.66v-17.99c0-11.45,11-20.79,24.4-20.79h72.67c13.43,0,24.43,9.35,24.43,20.79v17.99H-97.76v-17.99c0-11.45,10.97-20.79,24.4-20.79H-.69c13.43,0,24.4,9.35,24.4,20.79v17.99h143.66v-17.99c0-11.45,11-20.79,24.4-20.79h72.7c13.4,0,24.4,9.35,24.4,20.79v17.99h143.66v-17.99c0-11.45,10.97-20.79,24.4-20.79h72.67c13.43,0,24.43,9.35,24.43,20.79v17.99h99.03V153.73h-99.03v32.75c0,11.45-11,20.79-24.43,20.79h-72.67c-13.43,0-24.4-9.35-24.4-20.79v-32.75h-143.66v32.75c0,11.45-11,20.79-24.4,20.79h-72.7c-13.4,0-24.4-9.35-24.4-20.79v-32.75H23.72v32.75c0,11.45-10.97,20.79-24.4,20.79h-72.67c-13.43,0-24.4-9.35-24.4-20.79v-32.75h-143.66v32.75c0,11.45-11,20.79-24.43,20.79h-72.67c-13.4,0-24.4-9.35-24.4-20.79v-32.75h-143.66v32.75c0,11.45-10.97,20.79-24.4,20.79h-72.67c-13.43,0-24.43-9.35-24.43-20.79v-32.75h-143.63v32.75c0,11.45-11,20.79-24.43,20.79h-72.67c-13.43,0-24.4-9.35-24.4-20.79v-32.75h-143.66v32.75c0,11.45-10.97,20.79-24.4,20.79h-72.67c-13.43,0-24.43-9.35-24.43-20.79v-32.75h-99.06v1145.13h99.06v-17.99Zm-53.32-63.88v-45.8c0-.05,0-.11,0-.16V296.33c0-.05,0-.11,0-.16v-45.8c0-6.45,5.23-11.68,11.68-11.68H595.68c6.45,0,11.68,5.23,11.68,11.68v41.44c.21,2.03.32,4.1.32,6.19v871.87c0,2.09-.11,4.15-.32,6.19v40.95c0,6.45-5.23,11.68-11.68,11.68h-40.85c-2.07.22-4.17.34-6.29.34h-1700.66c-2.13,0-4.22-.12-6.29-.34h-41.61c-6.45,0-11.68-5.23-11.68-11.68Z"/>
  <rect class="cls-2" x="570.29" y="5.97" width="20.82" height="39.4"/>
  <rect class="cls-2" x="623.62" y="5.97" width="29.46" height="39.4"/>
  <path class="cls-2" d="m623.62,1407.21v39.4h-32.51v-39.4h-20.82v39.4h-32.51v-41.86h27.32v-39.4h32.51v39.4h22.97v-39.4h32.5v-18.46h-99.03v33.37c0,11.45-11,20.79-24.43,20.79h-72.67c-13.43,0-24.4-9.35-24.4-20.79v-33.37h-143.66v33.37c0,11.45-11,20.79-24.4,20.79h-72.7c-13.4,0-24.4-9.35-24.4-20.79v-33.37H23.72v33.37c0,11.45-10.97,20.79-24.4,20.79h-72.67c-13.43,0-24.4-9.35-24.4-20.79v-33.37h-143.66v33.37c0,11.45-11,20.79-24.43,20.79h-72.67c-13.4,0-24.4-9.35-24.4-20.79v-33.37h-143.66v33.37c0,11.45-10.97,20.79-24.4,20.79h-72.67c-13.43,0-24.43-9.35-24.43-20.79v-33.37h-143.63v33.37c0,11.45-11,20.79-24.43,20.79h-72.67c-13.43,0-24.4-9.35-24.4-20.79v-33.37h-143.66v33.37c0,11.45-10.97,20.79-24.4,20.79h-72.67c-13.43,0-24.43-9.35-24.43-20.79v-33.37h-99.06v18.46h.01v41.86h-.01v39.41H653.08v-39.41h-29.46Zm-1845.62-2.46v41.86h-35.45v-81.27h35.45v39.4Zm63.61,41.86h-35.45v-41.86h35.45v41.86Zm141.2,0h-52.38v-41.86h52.38v41.86Zm51.3,0h-32.51v-41.86h32.51v41.86Zm51.3,0h-32.51v-41.86h32.51v41.86Zm261.54,0h-32.51v-41.86h32.51v41.86Zm51.3,0h-32.51v-41.86h32.51v41.86Zm50.68,0h-32.51v-41.86h32.51v41.86Zm237.59,0h-32.51v-41.86h32.51v41.86Zm56.84,0h-32.51v-41.86h32.51v41.86Zm170.51,0h-32.51v-39.4h-24.32v39.4h-32.51v-39.4h-24.32v39.4h-32.51v-41.86h28.42v-39.4h89.35v39.4h28.42v41.86Zm56.84,0h-32.51v-41.86H-29.3v41.86Zm56.84,0H-4.98v-41.86H27.54v41.86Zm293.86,0h-32.51v-41.86h32.51v41.86Zm96.29,0h-80.58v-41.86h80.58v41.86Z"/>
  <path class="cls-2" d="m554.83,1228.67h40.85c6.45,0,11.68-5.23,11.68-11.68v-40.95c-2.88,27.69-24.86,49.7-52.53,52.63Z"/>
  <path class="cls-2" d="m-1152.13,238.84h3.36c1.55-.09,3.11-.15,4.69-.15H539.73c1.58,0,3.14.06,4.69.15h4.11c30.58,0,55.73,23.2,58.83,52.96v-41.44c0-6.45-5.23-11.68-11.68-11.68h-1795.72c-6.45,0-11.68,5.23-11.68,11.68v45.8c.03-9.45,2.74-18.36,7.5-26.22,9.99-18.52,29.57-31.11,52.09-31.11Z"/>
  <rect class="cls-1" x="23.72" y="105.71" width="143.66" height="48.03"/>
  <rect class="cls-1" x="288.88" y="105.71" width="143.66" height="48.03"/>
  <rect class="cls-1" x="554.05" y="105.71" width="99.03" height="48.03"/>
  <rect class="cls-1" x="288.88" y="5.96" width="32.51" height="0"/>
  <rect class="cls-1" x="288.88" y="5.97" width="32.51" height="41.86"/>
  <rect class="cls-1" x="337.1" y="5.96" width="80.58" height="0"/>
  <rect class="cls-1" x="337.1" y="5.97" width="80.58" height="41.86"/>
  <rect class="cls-1" x="591.11" y="5.96" width="32.51" height="0"/>
  <rect class="cls-1" x="537.78" y="5.96" width="32.51" height="0"/>
  <polygon class="cls-1" points="565.1 47.83 565.1 87.23 597.61 87.23 597.61 47.83 620.58 47.83 620.58 87.23 653.08 87.23 653.08 45.36 623.62 45.36 623.62 5.97 591.11 5.97 591.11 45.36 570.29 45.36 570.29 5.97 537.78 5.97 537.78 47.83 565.1 47.83"/>
  <rect class="cls-1" x="-4.98" y="5.96" width="32.51" height="0"/>
  <rect class="cls-1" x="-4.98" y="5.97" width="32.51" height="41.86"/>
  <rect class="cls-1" x="23.72" y="1298.86" width="143.66" height="48.03"/>
  <rect class="cls-1" x="288.88" y="1298.86" width="143.66" height="48.03"/>
  <rect class="cls-1" x="554.05" y="1298.86" width="99.03" height="48.03"/>
  <rect class="cls-1" x="288.88" y="1404.75" width="32.51" height="41.86"/>
  <rect class="cls-1" x="337.1" y="1404.75" width="80.58" height="41.86"/>
  <polygon class="cls-1" points="620.58 1404.75 597.61 1404.75 597.61 1365.35 565.1 1365.35 565.1 1404.75 537.78 1404.75 537.78 1446.62 570.29 1446.62 570.29 1407.21 591.11 1407.21 591.11 1446.62 623.62 1446.62 623.62 1407.21 653.08 1407.21 653.08 1365.35 620.58 1365.35 620.58 1404.75"/>
  <rect class="cls-1" x="-4.98" y="1404.75" width="32.51" height="41.86"/>
  <path class="cls-3" d="m698.82,1169.54v1.64c.02,5.3.88,10.42,2.47,15.29-1.6-5.36-2.47-11.04-2.47-16.93Z"/>
  <path class="cls-3" d="m701.04,281.66c-1.43,4.64-2.2,9.5-2.21,14.52v1.5c0-5.55.78-10.92,2.21-16.02Z"/>
  <path class="cls-3" d="m2514.54,278.34c2.1,6.06,3.25,12.56,3.25,19.34v871.87c0,7.11-1.26,13.93-3.56,20.25,2.33-5.78,3.63-11.97,3.67-18.41V295.98c-.04-6.16-1.23-12.08-3.37-17.64Z"/>
  <polygon class="cls-2" points="1730.48 45.36 1735.06 45.36 1735.06 5.97 1710.73 5.97 1710.73 45.36 1730.48 45.36"/>
  <rect class="cls-2" x="2534.16" y="5.97" width="29.46" height="39.4"/>
  <rect class="cls-2" x="1767.57" y="5.97" width="24.32" height="39.4"/>
  <rect class="cls-2" x="2480.84" y="5.97" width="20.81" height="39.4"/>
  <path class="cls-2" d="m2534.16,1407.21v39.4h-32.51v-39.4h-20.81v39.4h-32.51v-41.86h27.32v-39.4h32.51v39.4h22.97v-39.4h32.5v-18.46h-99.03v33.37c0,11.45-11,20.79-24.43,20.79h-72.67c-13.43,0-24.4-9.35-24.4-20.79v-33.37h-143.66v33.37c0,11.45-11,20.79-24.4,20.79h-72.7c-13.4,0-24.4-9.35-24.4-20.79v-33.37h-143.66v33.37c0,11.45-10.97,20.79-24.4,20.79h-72.67c-13.43,0-24.4-9.35-24.4-20.79v-33.37h-143.66v33.37c0,11.45-11,20.79-24.43,20.79h-72.67c-13.4,0-24.4-9.35-24.4-20.79v-33.37h-143.66v33.37c0,11.45-10.97,20.79-24.4,20.79h-72.67c-13.43,0-24.43-9.35-24.43-20.79v-33.37h-143.63v33.37c0,11.45-11,20.79-24.43,20.79h-72.67c-13.43,0-24.4-9.35-24.4-20.79v-33.37h-143.66v33.37c0,11.45-10.97,20.79-24.4,20.79h-72.67c-13.43,0-24.43-9.35-24.43-20.79v-33.37h-99.06v18.46h.01v41.86h-.01v39.41h1910.54v-39.41h-29.46Zm-1845.62-2.46v41.86h-35.45v-81.27h35.45v39.4Zm63.61,41.86h-35.45v-41.86h35.45v41.86Zm141.2,0h-52.38v-41.86h52.38v41.86Zm51.3,0h-32.51v-41.86h32.51v41.86Zm51.3,0h-32.51v-41.86h32.51v41.86Zm261.54,0h-32.51v-41.86h32.51v41.86Zm51.3,0h-32.51v-41.86h32.51v41.86Zm50.68,0h-32.51v-41.86h32.51v41.86Zm237.59,0h-32.51v-41.86h32.51v41.86Zm56.84,0h-32.51v-41.86h32.51v41.86Zm170.51,0h-32.51v-39.4h-24.32v39.4h-32.51v-39.4h-24.32v39.4h-32.51v-41.86h28.42v-39.4h89.35v39.4h28.42v41.86Zm56.84,0h-32.51v-41.86h32.51v41.86Zm56.84,0h-32.51v-41.86h32.51v41.86Zm293.86,0h-32.51v-41.86h32.51v41.86Zm96.29,0h-80.58v-41.86h80.58v41.86Z"/>
  <path class="cls-2" d="m2464.59,153.73v32.75c0,11.45-11,20.79-24.43,20.79h-72.67c-13.43,0-24.4-9.35-24.4-20.79v-32.75h-143.66v32.75c0,11.45-11,20.79-24.4,20.79h-72.7c-13.4,0-24.4-9.35-24.4-20.79v-32.75h-143.66v32.75c0,11.45-10.97,20.79-24.4,20.79h-72.67c-13.43,0-24.4-9.35-24.4-20.79v-32.75h-143.66v32.75c0,11.45-11,20.79-24.43,20.79h-72.67c-13.4,0-24.4-9.35-24.4-20.79v-32.75h-143.66v32.75c0,11.45-10.97,20.79-24.4,20.79h-72.67c-13.43,0-24.43-9.35-24.43-20.79v-32.75h-143.63v32.75c0,11.45-11,20.79-24.43,20.79h-72.67c-13.43,0-24.4-9.35-24.4-20.79v-32.75h-143.66v32.75c0,11.45-10.97,20.79-24.4,20.79h-72.67c-13.43,0-24.43-9.35-24.43-20.79v-32.75h-99.06v1145.13h99.06v-17.99c0-11.45,11-20.79,24.43-20.79h72.67c13.43,0,24.4,9.35,24.4,20.79v17.99h143.66v-17.99c0-11.45,10.97-20.79,24.4-20.79h72.67c13.43,0,24.43,9.35,24.43,20.79v17.99h143.63v-17.99c0-11.45,11-20.79,24.43-20.79h72.67c13.43,0,24.4,9.35,24.4,20.79v17.99h143.66v-17.99c0-11.45,11-20.79,24.4-20.79h72.67c13.43,0,24.43,9.35,24.43,20.79v17.99h143.66v-17.99c0-11.45,10.97-20.79,24.4-20.79h72.67c13.43,0,24.4,9.35,24.4,20.79v17.99h143.66v-17.99c0-11.45,11-20.79,24.4-20.79h72.7c13.4,0,24.4,9.35,24.4,20.79v17.99h143.66v-17.99c0-11.45,10.97-20.79,24.4-20.79h72.67c13.43,0,24.43,9.35,24.43,20.79v17.99h99.03V153.73h-99.03Zm53.32,1017.29c0,.12,0,.23-.01.35v45.61c0,6.45-5.23,11.68-11.68,11.68h-46.7c-.3,0-.59.02-.88.02H757.98c-.3,0-.59-.02-.88-.02h-46.58c-6.45,0-11.68-5.23-11.68-11.68v-45.81c0-.05,0-.1,0-.15V296.33c0-.05,0-.1,0-.15v-45.81c0-6.45,5.23-11.68,11.68-11.68h43.37c1.36-.09,2.72-.16,4.1-.16h1700.66c1.38,0,2.74.06,4.1.16h43.49c6.45,0,11.68,5.23,11.68,11.68v45.61c0,.12.01.23.01.35v874.7Z"/>
  <path class="cls-2" d="m653.09,45.36v41.86h-.01v18.48h99.06v-18.61c0-11.45,11-20.79,24.43-20.79h72.67c13.43,0,24.4,9.35,24.4,20.79v18.61h143.66v-18.61c0-11.45,10.97-20.79,24.4-20.79h72.67c13.43,0,24.43,9.35,24.43,20.79v18.61h143.63v-18.61c0-11.45,11-20.79,24.43-20.79h72.67c13.43,0,24.4,9.35,24.4,20.79v18.61h143.66v-18.61c0-11.45,11-20.79,24.4-20.79h72.67c13.43,0,24.43,9.35,24.43,20.79v18.61h143.66v-18.61c0-11.45,10.97-20.79,24.4-20.79h72.67c13.43,0,24.4,9.35,24.4,20.79v18.61h143.66v-18.61c0-11.45,11-20.79,24.4-20.79h72.7c13.4,0,24.4,9.35,24.4,20.79v18.61h143.66v-18.61c0-11.45,10.97-20.79,24.4-20.79h72.67c13.43,0,24.43,9.35,24.43,20.79v18.61h99.03v-18.48h-32.5v-39.4h-22.97v39.4h-32.51v-39.4h-27.32V5.97h-120.1v41.86h-80.58V5.97h-15.7v41.86h-32.51V5.97h-261.35v41.86h-32.51V5.97h-24.32v41.86h-32.51V5.97h-24.32v41.86h-28.42v39.4h-89.35v-39.4h-28.42V5.97h-24.32v41.86h-32.51V5.97h-24.32v41.86h-32.51V5.97h-205.08v41.86h-32.51V5.97h-18.17v41.86h-32.51V5.97h-18.78v41.86h-32.51V5.97h-229.03v41.86h-32.51V5.97h-18.78v41.86h-32.51V5.97h-18.78v41.86h-52.38V5.97h-88.82v41.86h-35.45V5.97h-28.16v81.26h-35.45V5.97h-.02v39.4h.01Z"/>
  <rect class="cls-2" x="653.08" y="45.36" width=".01" height="41.86"/>
  <rect class="cls-2" x="653.08" y="1365.35" width=".01" height="41.86"/>
  <path class="cls-2" d="m753.88,238.68h-43.37c-6.45,0-11.68,5.23-11.68,11.68v45.81c.02-5.02.79-9.88,2.21-14.52,6.63-23.62,27.55-41.24,52.84-42.98Z"/>
  <path class="cls-2" d="m2459.52,1228.67h46.7c6.45,0,11.68-5.23,11.68-11.68v-45.61c-.05,6.45-1.34,12.63-3.67,18.41-8.17,22.43-29.54,38.51-54.71,38.88Z"/>
  <path class="cls-2" d="m2514.54,278.34c2.14,5.56,3.32,11.48,3.37,17.64v-45.61c0-6.45-5.23-11.68-11.68-11.68h-43.49c24.1,1.65,44.22,17.72,51.8,39.66Z"/>
  <path class="cls-2" d="m701.3,1186.47c-1.59-4.87-2.46-9.99-2.47-15.29v45.81c0,6.45,5.23,11.68,11.68,11.68h46.58c-26.4-.39-48.59-18.05-55.8-42.2Z"/>
  <rect class="cls-1" x="653.08" y="105.71" width="99.06" height="48.03"/>
  <rect class="cls-1" x="873.65" y="105.71" width="143.66" height="48.03"/>
  <rect class="cls-1" x="1138.82" y="105.71" width="143.63" height="48.03"/>
  <rect class="cls-1" x="1403.95" y="105.71" width="143.66" height="48.03"/>
  <rect class="cls-1" x="1669.12" y="105.71" width="143.66" height="48.03"/>
  <rect class="cls-1" x="1934.26" y="105.71" width="143.66" height="48.03"/>
  <rect class="cls-1" x="2199.42" y="105.71" width="143.66" height="48.03"/>
  <rect class="cls-1" x="2464.59" y="105.71" width="99.03" height="48.03"/>
  <rect class="cls-1" x="840.97" y="5.96" width="52.38" height="0"/>
  <rect class="cls-1" x="840.97" y="5.97" width="52.38" height="41.86"/>
  <rect class="cls-1" x="716.71" y="5.96" width="35.45" height="0"/>
  <rect class="cls-1" x="716.71" y="5.97" width="35.45" height="41.86"/>
  <rect class="cls-1" x="653.1" y="5.96" width="35.45" height="0"/>
  <polygon class="cls-1" points="653.1 47.83 653.1 87.23 688.54 87.23 688.54 47.83 688.54 45.36 688.54 5.97 653.1 5.97 653.1 45.36 653.1 47.83"/>
  <rect class="cls-1" x="912.14" y="5.96" width="32.51" height="0"/>
  <rect class="cls-1" x="912.14" y="5.97" width="32.51" height="41.86"/>
  <rect class="cls-1" x="963.44" y="5.96" width="32.51" height="0"/>
  <rect class="cls-1" x="963.44" y="5.97" width="32.51" height="41.86"/>
  <rect class="cls-1" x="2199.43" y="5.96" width="32.51" height="0"/>
  <rect class="cls-1" x="2199.43" y="5.97" width="32.51" height="41.86"/>
  <rect class="cls-1" x="2247.64" y="5.96" width="80.58" height="0"/>
  <rect class="cls-1" x="2247.64" y="5.97" width="80.58" height="41.86"/>
  <rect class="cls-1" x="1564.55" y="5.96" width="32.51" height="0"/>
  <rect class="cls-1" x="1564.55" y="5.97" width="32.51" height="41.86"/>
  <rect class="cls-1" x="1621.39" y="5.96" width="32.51" height="0"/>
  <rect class="cls-1" x="1621.39" y="5.97" width="32.51" height="41.86"/>
  <rect class="cls-1" x="2501.65" y="5.96" width="32.51" height="0"/>
  <rect class="cls-1" x="2448.32" y="5.96" width="32.51" height="0"/>
  <polygon class="cls-1" points="2475.64 47.83 2475.64 87.23 2508.15 87.23 2508.15 47.83 2531.12 47.83 2531.12 87.23 2563.62 87.23 2563.62 45.36 2534.16 45.36 2534.16 5.97 2501.65 5.97 2501.65 45.36 2480.84 45.36 2480.84 5.97 2448.32 5.97 2448.32 47.83 2475.64 47.83"/>
  <rect class="cls-1" x="1735.06" y="5.96" width="32.51" height="0"/>
  <rect class="cls-1" x="1678.22" y="5.96" width="32.51" height="0"/>
  <rect class="cls-1" x="1791.89" y="5.96" width="32.51" height="0"/>
  <polygon class="cls-1" points="1706.64 47.83 1706.64 87.23 1730.48 87.23 1739.15 87.23 1795.99 87.23 1795.99 47.83 1824.41 47.83 1824.41 5.97 1791.89 5.97 1791.89 45.36 1767.57 45.36 1767.57 5.97 1735.06 5.97 1735.06 45.36 1730.48 45.36 1710.73 45.36 1710.73 5.97 1678.22 5.97 1678.22 47.83 1706.64 47.83"/>
  <rect class="cls-1" x="1848.73" y="5.96" width="32.51" height="0"/>
  <rect class="cls-1" x="1848.73" y="5.97" width="32.51" height="41.86"/>
  <rect class="cls-1" x="1905.57" y="5.96" width="32.51" height="0"/>
  <rect class="cls-1" x="1905.57" y="5.97" width="32.51" height="41.86"/>
  <rect class="cls-1" x="1224.98" y="5.96" width="32.51" height="0"/>
  <rect class="cls-1" x="1224.98" y="5.97" width="32.51" height="41.86"/>
  <rect class="cls-1" x="1276.28" y="5.96" width="32.51" height="0"/>
  <rect class="cls-1" x="1276.28" y="5.97" width="32.51" height="41.86"/>
  <rect class="cls-1" x="1326.96" y="5.96" width="32.51" height="0"/>
  <rect class="cls-1" x="1326.96" y="5.97" width="32.51" height="41.86"/>
  <rect class="cls-1" x="653.08" y="1298.86" width="99.06" height="48.03"/>
  <rect class="cls-1" x="873.65" y="1298.86" width="143.66" height="48.03"/>
  <rect class="cls-1" x="1138.82" y="1298.86" width="143.63" height="48.03"/>
  <rect class="cls-1" x="1403.95" y="1298.86" width="143.66" height="48.03"/>
  <rect class="cls-1" x="1669.12" y="1298.86" width="143.66" height="48.03"/>
  <rect class="cls-1" x="1934.26" y="1298.86" width="143.66" height="48.03"/>
  <rect class="cls-1" x="2199.42" y="1298.86" width="143.66" height="48.03"/>
  <rect class="cls-1" x="2464.59" y="1298.86" width="99.03" height="48.03"/>
  <rect class="cls-1" x="840.97" y="1404.75" width="52.38" height="41.86"/>
  <rect class="cls-1" x="716.71" y="1404.75" width="35.45" height="41.86"/>
  <polygon class="cls-1" points="653.1 1404.75 653.1 1407.21 653.1 1446.62 688.54 1446.62 688.54 1407.21 688.54 1404.75 688.54 1365.35 653.1 1365.35 653.1 1404.75"/>
  <rect class="cls-1" x="912.14" y="1404.75" width="32.51" height="41.86"/>
  <rect class="cls-1" x="963.44" y="1404.75" width="32.51" height="41.86"/>
  <rect class="cls-1" x="2199.43" y="1404.75" width="32.51" height="41.86"/>
  <rect class="cls-1" x="2247.64" y="1404.75" width="80.58" height="41.86"/>
  <rect class="cls-1" x="1564.55" y="1404.75" width="32.51" height="41.86"/>
  <rect class="cls-1" x="1621.39" y="1404.75" width="32.51" height="41.86"/>
  <polygon class="cls-1" points="2531.12 1404.75 2508.15 1404.75 2508.15 1365.35 2475.64 1365.35 2475.64 1404.75 2448.32 1404.75 2448.32 1446.62 2480.84 1446.62 2480.84 1407.21 2501.65 1407.21 2501.65 1446.62 2534.16 1446.62 2534.16 1407.21 2563.62 1407.21 2563.62 1365.35 2531.12 1365.35 2531.12 1404.75"/>
  <polygon class="cls-1" points="1795.99 1365.35 1739.15 1365.35 1730.48 1365.35 1706.64 1365.35 1706.64 1404.75 1678.22 1404.75 1678.22 1446.62 1710.73 1446.62 1710.73 1407.21 1730.48 1407.21 1735.06 1407.21 1735.06 1446.62 1767.57 1446.62 1767.57 1407.21 1791.89 1407.21 1791.89 1446.62 1824.41 1446.62 1824.41 1404.75 1795.99 1404.75 1795.99 1365.35"/>
  <rect class="cls-1" x="1848.73" y="1404.75" width="32.51" height="41.86"/>
  <rect class="cls-1" x="1905.57" y="1404.75" width="32.51" height="41.86"/>
  <rect class="cls-1" x="1224.98" y="1404.75" width="32.51" height="41.86"/>
  <rect class="cls-1" x="1276.28" y="1404.75" width="32.51" height="41.86"/>
  <rect class="cls-1" x="1326.96" y="1404.75" width="32.51" height="41.86"/>
  <path class="cls-2" d="m4375.13,186.49c0,11.45-11,20.79-24.43,20.79h-72.67c-13.43,0-24.4-9.35-24.4-20.79v-32.75h-143.66v32.75c0,11.45-11,20.79-24.4,20.79h-72.7c-13.4,0-24.4-9.35-24.4-20.79v-32.75h-143.66v32.75c0,11.45-10.97,20.79-24.4,20.79h-72.67c-13.43,0-24.4-9.35-24.4-20.79v-32.75h-143.66v32.75c0,11.45-11,20.79-24.43,20.79h-72.67c-13.4,0-24.4-9.35-24.4-20.79v-32.75h-143.66v32.75c0,11.45-10.97,20.79-24.4,20.79h-72.67c-13.43,0-24.43-9.35-24.43-20.79v-32.75h-143.63v32.75c0,11.45-11,20.79-24.43,20.79h-72.67c-13.43,0-24.4-9.35-24.4-20.79v-32.75h-143.66v32.75c0,11.45-10.97,20.79-24.4,20.79h-72.67c-13.43,0-24.43-9.35-24.43-20.79v-32.75h-99.06v1145.13h99.06v-17.99c0-11.45,11-20.79,24.43-20.79h72.67c13.43,0,24.4,9.35,24.4,20.79v17.99h143.66v-17.99c0-11.45,10.97-20.79,24.4-20.79h72.67c13.43,0,24.43,9.35,24.43,20.79v17.99h143.63v-17.99c0-11.45,11-20.79,24.43-20.79h72.67c13.43,0,24.4,9.35,24.4,20.79v17.99h143.66v-17.99c0-11.45,11-20.79,24.4-20.79h72.67c13.43,0,24.43,9.35,24.43,20.79v17.99h143.66v-17.99c0-11.45,10.97-20.79,24.4-20.79h72.67c13.43,0,24.4,9.35,24.4,20.79v17.99h143.66v-17.99c0-11.45,11-20.79,24.4-20.79h72.7c13.4,0,24.4,9.35,24.4,20.79v17.99h143.66v-17.99c0-11.45,10.97-20.79,24.4-20.79h72.67c13.43,0,24.43,9.35,24.43,20.79v17.99h99.03V153.73h-99.03v32.75Zm53.31,63.88v45.61c0,.12.01.23.01.35v874.7c0,.12,0,.23-.01.35v45.61c0,6.45-5.23,11.68-11.68,11.68h-1795.72c-6.45,0-11.68-5.23-11.68-11.68v-40.36c-.28-2.33-.44-4.7-.44-7.1V297.84c0-2.41.16-4.77.44-7.1v-40.37c0-6.45,5.23-11.68,11.68-11.68h1795.72c6.45,0,11.68,5.23,11.68,11.68Z"/>
  <path class="cls-2" d="m2563.63,45.36v41.86h0v18.48h99.06v-18.61c0-11.45,11-20.79,24.43-20.79h72.67c13.43,0,24.4,9.35,24.4,20.79v18.61h143.66v-18.61c0-11.45,10.97-20.79,24.4-20.79h72.67c13.43,0,24.43,9.35,24.43,20.79v18.61h143.63v-18.61c0-11.45,11-20.79,24.43-20.79h72.67c13.43,0,24.4,9.35,24.4,20.79v18.61h143.66v-18.61c0-11.45,11-20.79,24.4-20.79h72.67c13.43,0,24.43,9.35,24.43,20.79v18.61h143.66v-18.61c0-11.45,10.97-20.79,24.4-20.79h72.67c13.43,0,24.4,9.35,24.4,20.79v18.61h143.66v-18.61c0-11.45,11-20.79,24.4-20.79h72.7c13.4,0,24.4,9.35,24.4,20.79v18.61h143.66v-18.61c0-11.45,10.97-20.79,24.4-20.79h72.67c13.43,0,24.43,9.35,24.43,20.79v18.61h99.03v-18.48h-32.5v-39.4h-22.97v39.4h-32.51v-39.4h-27.32V5.97h-120.1v41.86h-80.58V5.97h-15.7v41.86h-32.51V5.97h-261.35v41.86h-32.51V5.97h-24.32v41.86h-32.51V5.97h-24.32v41.86h-28.42v39.4h-89.35v-39.4h-28.42V5.97h-24.32v41.86h-32.51V5.97h-24.32v41.86h-32.51V5.97h-205.08v41.86h-32.51V5.97h-18.17v41.86h-32.51V5.97h-18.78v41.86h-32.51V5.97h-229.03v41.86h-32.51V5.97h-18.78v41.86h-32.51V5.97h-18.78v41.86h-52.38V5.97h-88.82v41.86h-35.45V5.97h-28.16v81.26h-35.45V5.97h-.01v39.4h0Z"/>
  <path class="cls-2" d="m4444.7,1407.21v39.4h-32.51v-39.4h-20.82v39.4h-32.51v-41.86h27.32v-39.4h32.51v39.4h22.97v-39.4h32.5v-18.46h-99.03v33.37c0,11.45-11,20.79-24.43,20.79h-72.67c-13.43,0-24.4-9.35-24.4-20.79v-33.37h-143.66v33.37c0,11.45-11,20.79-24.4,20.79h-72.7c-13.4,0-24.4-9.35-24.4-20.79v-33.37h-143.66v33.37c0,11.45-10.97,20.79-24.4,20.79h-72.67c-13.43,0-24.4-9.35-24.4-20.79v-33.37h-143.66v33.37c0,11.45-11,20.79-24.43,20.79h-72.67c-13.4,0-24.4-9.35-24.4-20.79v-33.37h-143.66v33.37c0,11.45-10.97,20.79-24.4,20.79h-72.67c-13.43,0-24.43-9.35-24.43-20.79v-33.37h-143.63v33.37c0,11.45-11,20.79-24.43,20.79h-72.67c-13.43,0-24.4-9.35-24.4-20.79v-33.37h-143.66v33.37c0,11.45-10.97,20.79-24.4,20.79h-72.67c-13.43,0-24.43-9.35-24.43-20.79v-33.37h-99.06v18.46h0v41.86h0v39.41h1910.54v-39.41h-29.46Zm-1845.62-2.46v41.86h-35.45v-81.27h35.45v39.4Zm63.61,41.86h-35.45v-41.86h35.45v41.86Zm141.2,0h-52.38v-41.86h52.38v41.86Zm51.3,0h-32.51v-41.86h32.51v41.86Zm51.3,0h-32.51v-41.86h32.51v41.86Zm261.54,0h-32.51v-41.86h32.51v41.86Zm51.3,0h-32.51v-41.86h32.51v41.86Zm50.68,0h-32.51v-41.86h32.51v41.86Zm237.59,0h-32.51v-41.86h32.51v41.86Zm56.84,0h-32.51v-41.86h32.51v41.86Zm170.51,0h-32.51v-39.4h-24.32v39.4h-32.51v-39.4h-24.32v39.4h-32.51v-41.86h28.42v-39.4h89.35v39.4h28.42v41.86Zm56.84,0h-32.51v-41.86h32.51v41.86Zm56.84,0h-32.51v-41.86h32.51v41.86Zm293.86,0h-32.51v-41.86h32.51v41.86Zm96.29,0h-80.58v-41.86h80.58v41.86Z"/>
  <rect class="cls-2" x="2563.62" y="45.36" width="0" height="41.86"/>
  <rect class="cls-2" x="2563.62" y="1365.35" width="0" height="41.86"/>
  <path class="cls-2" d="m2609.37,250.37v40.37c3.51-29.32,28.45-52.05,58.71-52.05h1700.66c22.19,0,41.52,12.23,51.64,30.31,5.09,8.04,8,17.22,8.07,26.98v-45.61c0-6.45-5.23-11.68-11.68-11.68h-1795.72c-6.45,0-11.68,5.23-11.68,11.68Z"/>
  <path class="cls-2" d="m2609.37,1176.63v40.36c0,6.45,5.23,11.68,11.68,11.68h47.03c-30.26,0-55.2-22.73-58.71-52.05Z"/>
  <rect class="cls-1" x="2563.62" y="105.71" width="99.06" height="48.03"/>
  <rect class="cls-1" x="2784.19" y="105.71" width="143.66" height="48.03"/>
  <rect class="cls-1" x="3049.36" y="105.71" width="143.63" height="48.03"/>
  <rect class="cls-1" x="2751.52" y="5.96" width="52.38" height="0"/>
  <rect class="cls-1" x="2751.52" y="5.97" width="52.38" height="41.86"/>
  <rect class="cls-1" x="2627.25" y="5.96" width="35.45" height="0"/>
  <rect class="cls-1" x="2627.25" y="5.97" width="35.45" height="41.86"/>
  <rect class="cls-1" x="2563.64" y="5.96" width="35.45" height="0"/>
  <polygon class="cls-1" points="2563.64 47.83 2563.64 87.23 2599.08 87.23 2599.08 47.83 2599.08 45.36 2599.08 5.97 2563.64 5.97 2563.64 45.36 2563.64 47.83"/>
  <rect class="cls-1" x="2822.68" y="5.96" width="32.51" height="0"/>
  <rect class="cls-1" x="2822.68" y="5.97" width="32.51" height="41.86"/>
  <rect class="cls-1" x="2873.98" y="5.96" width="32.51" height="0"/>
  <rect class="cls-1" x="2873.98" y="5.97" width="32.51" height="41.86"/>
  <rect class="cls-1" x="3135.52" y="5.96" width="32.51" height="0"/>
  <rect class="cls-1" x="3135.52" y="5.97" width="32.51" height="41.86"/>
  <rect class="cls-1" x="3186.82" y="5.96" width="32.51" height="0"/>
  <rect class="cls-1" x="3186.82" y="5.97" width="32.51" height="41.86"/>
  <rect class="cls-1" x="2563.62" y="1298.86" width="99.06" height="48.03"/>
  <rect class="cls-1" x="2784.19" y="1298.86" width="143.66" height="48.03"/>
  <rect class="cls-1" x="3049.36" y="1298.86" width="143.63" height="48.03"/>
  <rect class="cls-1" x="2751.52" y="1404.75" width="52.38" height="41.86"/>
  <rect class="cls-1" x="2627.25" y="1404.75" width="35.45" height="41.86"/>
  <polygon class="cls-1" points="2563.64 1404.75 2563.64 1407.21 2563.64 1446.62 2599.08 1446.62 2599.08 1407.21 2599.08 1404.75 2599.08 1365.35 2563.64 1365.35 2563.64 1404.75"/>
  <rect class="cls-1" x="2822.68" y="1404.75" width="32.51" height="41.86"/>
  <rect class="cls-1" x="2873.98" y="1404.75" width="32.51" height="41.86"/>
  <rect class="cls-1" x="3135.52" y="1404.75" width="32.51" height="41.86"/>
  <rect class="cls-1" x="3186.82" y="1404.75" width="32.51" height="41.86"/>
  <path class="cls-5" d="m2458.64,238.53H757.98c-1.38,0-2.74.06-4.1.16h1708.86c-1.36-.09-2.72-.16-4.1-.16Z"/>
  <path class="cls-5" d="m757.98,1228.69h1700.66c.3,0,.59-.02.88-.02H757.09c.3,0,.59.02.88.02Z"/>
  <path class="cls-5" d="m607.38,1171.03V296.33c0-.12,0-.23-.01-.35v875.4c0-.12.01-.23.01-.35Z"/>
  <path class="cls-5" d="m607.38,296.33v874.7c0,.12,0,.23-.01.35v4.67c.21-2.03.32-4.1.32-6.19V297.99c0-2.09-.11-4.15-.32-6.19v4.17c0,.12.01.23.01.35Z"/>
  <path class="cls-5" d="m548.54,238.84h-4.11c35.03,2.05,62.73,26.81,62.94,57.14v-4.17c-3.09-29.76-28.25-52.96-58.83-52.96Z"/>
  <path class="cls-5" d="m2609.36,296.33v874.7c0,.05,0,.1,0,.15V296.18c0,.05,0,.1,0,.15Z"/>
</svg>