<?xml version="1.0" encoding="UTF-8"?>
<svg id="Layer_2" data-name="Layer 2" xmlns="http://www.w3.org/2000/svg" viewBox="0 0 2726.95 5638.27">
  <defs>
    <style>
      .cls-1 {
        fill: #050505;
      }

      .cls-1, .cls-2 {
        opacity: .82;
      }

      .cls-3 {
        fill: #fff;
        opacity: .37;
      }

      .cls-4 {
        fill: none;
      }

      .cls-5 {
        fill: #001fff;
      }

      .cls-2 {
        fill: #1e1e1e;
      }
    </style>
  </defs>
  <g id="Layer_1-2" data-name="Layer 1">
    <g>
      <path class="cls-4" d="m341.7,2545c21.67,0,39.36-6.48,39.36-14.37v-42.81c0-7.89-17.69-14.37-39.36-14.37h-188.13c-21.67,0-39.36,6.48-39.36,14.37v42.81c0,7.89,17.69,14.37,39.36,14.37h188.13Z"/>
      <path class="cls-4" d="m2413.19,4223.19c-21.67,0-39.36,6.48-39.36,14.39v42.8c0,7.91,17.69,14.37,39.36,14.37h188.13c21.67,0,39.36-6.46,39.36-14.37v-42.8c0-7.91-17.69-14.39-39.36-14.39h-188.13Z"/>
      <path class="cls-4" d="m2413.19,3254.21c-21.67,0-39.36,6.46-39.36,14.37v42.8c0,7.91,17.69,14.39,39.36,14.39h188.13c21.67,0,39.36-6.48,39.36-14.39v-42.8c0-7.91-17.69-14.37-39.36-14.37h-188.13Z"/>
      <path class="cls-4" d="m341.7,4450.91c21.67,0,39.36-6.48,39.36-14.39v-42.8c0-7.91-17.69-14.37-39.36-14.37h-188.13c-21.67,0-39.36,6.46-39.36,14.37v42.8c0,7.91,17.69,14.39,39.36,14.39h188.13Z"/>
      <path class="cls-4" d="m2413.19,3754.75c-21.67,0-39.36,6.46-39.36,14.37v42.8c0,7.91,17.69,14.37,39.36,14.37h188.13c21.67,0,39.36-6.46,39.36-14.37v-42.8c0-7.91-17.69-14.37-39.36-14.37h-188.13Z"/>
      <path class="cls-4" d="m2413.19,4067.05c-21.67,0-39.36,6.46-39.36,14.37v42.8c0,7.91,17.69,14.39,39.36,14.39h188.13c21.67,0,39.36-6.48,39.36-14.39v-42.8c0-7.91-17.69-14.37-39.36-14.37h-188.13Z"/>
      <path class="cls-4" d="m2413.19,3598.59c-21.67,0-39.36,6.48-39.36,14.37v42.81c0,7.89,17.69,14.37,39.36,14.37h188.13c21.67,0,39.36-6.48,39.36-14.37v-42.81c0-7.89-17.69-14.37-39.36-14.37h-188.13Z"/>
      <path class="cls-4" d="m2413.19,3442.43c-21.67,0-39.36,6.48-39.36,14.39v42.8c0,7.91,17.69,14.37,39.36,14.37h188.13c21.67,0,39.36-6.46,39.36-14.37v-42.8c0-7.91-17.69-14.39-39.36-14.39h-188.13Z"/>
      <path class="cls-4" d="m341.7,4294.75c21.67,0,39.36-6.46,39.36-14.37v-42.8c0-7.91-17.69-14.39-39.36-14.39h-188.13c-21.67,0-39.36,6.48-39.36,14.39v42.8c0,7.91,17.69,14.37,39.36,14.37h188.13Z"/>
      <path class="cls-4" d="m2413.19,3910.89c-21.67,0-39.36,6.48-39.36,14.39v42.8c0,7.89,17.69,14.37,39.36,14.37h188.13c21.67,0,39.36-6.48,39.36-14.37v-42.8c0-7.91-17.69-14.39-39.36-14.39h-188.13Z"/>
      <path class="cls-4" d="m549.62,4482.31h1655.66c.1,0,.2,0,.3,0H549.32c.1,0,.2,0,.3,0Z"/>
      <path class="cls-4" d="m341.7,3169.61c21.67,0,39.36-6.46,39.36-14.37v-42.8c0-7.91-17.69-14.39-39.36-14.39h-188.13c-21.67,0-39.36,6.48-39.36,14.39v42.8c0,7.91,17.69,14.37,39.36,14.37h188.13Z"/>
      <path class="cls-4" d="m341.7,3013.47c21.67,0,39.36-6.48,39.36-14.39v-42.8c0-7.91-17.69-14.37-39.36-14.37h-188.13c-21.67,0-39.36,6.46-39.36,14.37v42.8c0,7.91,17.69,14.39,39.36,14.39h188.13Z"/>
      <path class="cls-4" d="m341.7,2857.31c21.67,0,39.36-6.48,39.36-14.37v-42.8c0-7.91-17.69-14.39-39.36-14.39h-188.13c-21.67,0-39.36,6.48-39.36,14.39v42.8c0,7.89,17.69,14.37,39.36,14.37h188.13Z"/>
      <path class="cls-4" d="m341.7,4138.61c21.67,0,39.36-6.48,39.36-14.39v-42.8c0-7.91-17.69-14.37-39.36-14.37h-188.13c-21.67,0-39.36,6.46-39.36,14.37v42.8c0,7.91,17.69,14.39,39.36,14.39h188.13Z"/>
      <path class="cls-4" d="m341.7,3325.77c21.67,0,39.36-6.48,39.36-14.39v-42.8c0-7.91-17.69-14.37-39.36-14.37h-188.13c-21.67,0-39.36,6.46-39.36,14.37v42.8c0,7.91,17.69,14.39,39.36,14.39h188.13Z"/>
      <path class="cls-4" d="m341.7,2701.15c21.67,0,39.36-6.46,39.36-14.37v-42.8c0-7.91-17.69-14.37-39.36-14.37h-188.13c-21.67,0-39.36,6.46-39.36,14.37v42.8c0,7.91,17.69,14.37,39.36,14.37h188.13Z"/>
      <path class="cls-4" d="m341.7,3513.98c21.67,0,39.36-6.46,39.36-14.37v-42.8c0-7.91-17.69-14.39-39.36-14.39h-188.13c-21.67,0-39.36,6.48-39.36,14.39v42.8c0,7.91,17.69,14.37,39.36,14.37h188.13Z"/>
      <path class="cls-4" d="m341.7,3826.29c21.67,0,39.36-6.46,39.36-14.37v-42.8c0-7.91-17.69-14.37-39.36-14.37h-188.13c-21.67,0-39.36,6.46-39.36,14.37v42.8c0,7.91,17.69,14.37,39.36,14.37h188.13Z"/>
      <path class="cls-4" d="m341.7,3982.45c21.67,0,39.36-6.48,39.36-14.37v-42.8c0-7.91-17.69-14.39-39.36-14.39h-188.13c-21.67,0-39.36,6.48-39.36,14.39v42.8c0,7.89,17.69,14.37,39.36,14.37h188.13Z"/>
      <path class="cls-4" d="m341.7,3670.14c21.67,0,39.36-6.48,39.36-14.37v-42.81c0-7.89-17.69-14.37-39.36-14.37h-188.13c-21.67,0-39.36,6.48-39.36,14.37v42.81c0,7.89,17.69,14.37,39.36,14.37h188.13Z"/>
      <path class="cls-4" d="m2413.19,4379.35c-21.67,0-39.36,6.46-39.36,14.37v42.8c0,7.91,17.69,14.39,39.36,14.39h188.13c21.67,0,39.36-6.48,39.36-14.39v-42.8c0-7.91-17.69-14.37-39.36-14.37h-188.13Z"/>
      <path class="cls-4" d="m2413.19,691.63c-21.67,0-39.36,6.46-39.36,14.37v42.8c0,7.91,17.69,14.39,39.36,14.39h188.13c21.67,0,39.36-6.48,39.36-14.39v-42.8c0-7.91-17.69-14.37-39.36-14.37h-188.13Z"/>
      <path class="cls-4" d="m2413.19,535.47c-21.67,0-39.36,6.48-39.36,14.39v42.8c0,7.89,17.69,14.37,39.36,14.37h188.13c21.67,0,39.36-6.48,39.36-14.37v-42.8c0-7.91-17.69-14.39-39.36-14.39h-188.13Z"/>
      <path class="cls-4" d="m2413.19,847.77c-21.67,0-39.36,6.48-39.36,14.39v42.8c0,7.91,17.69,14.37,39.36,14.37h188.13c21.67,0,39.36-6.46,39.36-14.37v-42.8c0-7.91-17.69-14.39-39.36-14.39h-188.13Z"/>
      <path class="cls-4" d="m2413.19,1192.15c-21.67,0-39.36,6.48-39.36,14.39v42.8c0,7.91,17.69,14.37,39.36,14.37h188.13c21.67,0,39.36-6.46,39.36-14.37v-42.8c0-7.91-17.69-14.39-39.36-14.39h-188.13Z"/>
      <path class="cls-4" d="m2413.19,1003.93c-21.67,0-39.36,6.46-39.36,14.37v42.8c0,7.91,17.69,14.39,39.36,14.39h188.13c21.67,0,39.36-6.48,39.36-14.39v-42.8c0-7.91-17.69-14.37-39.36-14.37h-188.13Z"/>
      <path class="cls-4" d="m2413.19,379.33c-21.67,0-39.36,6.46-39.36,14.37v42.8c0,7.91,17.69,14.37,39.36,14.37h188.13c21.67,0,39.36-6.46,39.36-14.37v-42.8c0-7.91-17.69-14.37-39.36-14.37h-188.13Z"/>
      <path class="cls-4" d="m2205.28,35.6H549.62c-.22,0-.44,0-.66,0h1656.98c-.22,0-.44,0-.66,0Z"/>
      <path class="cls-4" d="m2205.28,4536.17H549.62c-.22,0-.44,0-.66,0h1656.98c-.22,0-.44,0-.66,0Z"/>
      <path class="cls-4" d="m2413.19,67.01c-21.67,0-39.36,6.48-39.36,14.39v42.8c0,7.91,17.69,14.37,39.36,14.37h188.13c21.67,0,39.36-6.46,39.36-14.37v-42.8c0-7.91-17.69-14.39-39.36-14.39h-188.13Z"/>
      <path class="cls-4" d="m2413.19,1348.31c-21.67,0-39.36,6.48-39.36,14.37v42.81c0,7.89,17.69,14.37,39.36,14.37h188.13c21.67,0,39.36-6.48,39.36-14.37v-42.81c0-7.89-17.69-14.37-39.36-14.37h-188.13Z"/>
      <path class="cls-4" d="m2413.19,223.17c-21.67,0-39.36,6.48-39.36,14.37v42.81c0,7.89,17.69,14.37,39.36,14.37h188.13c21.67,0,39.36-6.48,39.36-14.37v-42.81c0-7.89-17.69-14.37-39.36-14.37h-188.13Z"/>
      <path class="cls-4" d="m2413.19,1972.91c-21.67,0-39.36,6.48-39.36,14.39v42.8c0,7.91,17.69,14.37,39.36,14.37h188.13c21.67,0,39.36-6.46,39.36-14.37v-42.8c0-7.91-17.69-14.39-39.36-14.39h-188.13Z"/>
      <path class="cls-4" d="m2413.19,2317.29c-21.67,0-39.36,6.48-39.36,14.39v42.8c0,7.91,17.69,14.37,39.36,14.37h188.13c21.67,0,39.36-6.46,39.36-14.37v-42.8c0-7.91-17.69-14.39-39.36-14.39h-188.13Z"/>
      <path class="cls-4" d="m2413.19,2473.45c-21.67,0-39.36,6.48-39.36,14.37v42.81c0,7.89,17.69,14.37,39.36,14.37h188.13c21.67,0,39.36-6.48,39.36-14.37v-42.81c0-7.89-17.69-14.37-39.36-14.37h-188.13Z"/>
      <path class="cls-4" d="m2413.19,2629.61c-21.67,0-39.36,6.46-39.36,14.37v42.8c0,7.91,17.69,14.37,39.36,14.37h188.13c21.67,0,39.36-6.46,39.36-14.37v-42.8c0-7.91-17.69-14.37-39.36-14.37h-188.13Z"/>
      <path class="cls-4" d="m2413.19,1504.47c-21.67,0-39.36,6.46-39.36,14.37v42.8c0,7.91,17.69,14.37,39.36,14.37h188.13c21.67,0,39.36-6.46,39.36-14.37v-42.8c0-7.91-17.69-14.37-39.36-14.37h-188.13Z"/>
      <path class="cls-4" d="m2413.19,2785.75c-21.67,0-39.36,6.48-39.36,14.39v42.8c0,7.89,17.69,14.37,39.36,14.37h188.13c21.67,0,39.36-6.48,39.36-14.37v-42.8c0-7.91-17.69-14.39-39.36-14.39h-188.13Z"/>
      <path class="cls-4" d="m2413.19,2941.91c-21.67,0-39.36,6.46-39.36,14.37v42.8c0,7.91,17.69,14.39,39.36,14.39h188.13c21.67,0,39.36-6.48,39.36-14.39v-42.8c0-7.91-17.69-14.37-39.36-14.37h-188.13Z"/>
      <path class="cls-4" d="m2413.19,2129.07c-21.67,0-39.36,6.46-39.36,14.37v42.8c0,7.91,17.69,14.39,39.36,14.39h188.13c21.67,0,39.36-6.48,39.36-14.39v-42.8c0-7.91-17.69-14.37-39.36-14.37h-188.13Z"/>
      <path class="cls-4" d="m2413.19,1660.61c-21.67,0-39.36,6.48-39.36,14.39v42.8c0,7.89,17.69,14.37,39.36,14.37h188.13c21.67,0,39.36-6.48,39.36-14.37v-42.8c0-7.91-17.69-14.39-39.36-14.39h-188.13Z"/>
      <path class="cls-4" d="m2413.19,1816.77c-21.67,0-39.36,6.46-39.36,14.37v42.8c0,7.91,17.69,14.39,39.36,14.39h188.13c21.67,0,39.36-6.48,39.36-14.39v-42.8c0-7.91-17.69-14.37-39.36-14.37h-188.13Z"/>
      <path class="cls-4" d="m2413.19,3098.05c-21.67,0-39.36,6.48-39.36,14.39v42.8c0,7.91,17.69,14.37,39.36,14.37h188.13c21.67,0,39.36-6.46,39.36-14.37v-42.8c0-7.91-17.69-14.39-39.36-14.39h-188.13Z"/>
      <path class="cls-4" d="m153.57,4723.73c-21.67,0-39.36,6.48-39.36,14.37v42.81c0,7.89,17.69,14.37,39.36,14.37h188.13c21.67,0,39.36-6.48,39.36-14.37v-42.81c0-7.89-17.69-14.37-39.36-14.37h-188.13Z"/>
      <path class="cls-4" d="m153.57,4567.57c-21.67,0-39.36,6.48-39.36,14.39v42.8c0,7.91,17.69,14.37,39.36,14.37h188.13c21.67,0,39.36-6.46,39.36-14.37v-42.8c0-7.91-17.69-14.39-39.36-14.39h-188.13Z"/>
      <path class="cls-4" d="m341.7,138.56c21.67,0,39.36-6.46,39.36-14.37v-42.8c0-7.91-17.69-14.39-39.36-14.39h-188.13c-21.67,0-39.36,6.48-39.36,14.39v42.8c0,7.91,17.69,14.37,39.36,14.37h188.13Z"/>
      <path class="cls-4" d="m153.57,5036.03c-21.67,0-39.36,6.48-39.36,14.39v42.8c0,7.89,17.69,14.37,39.36,14.37h188.13c21.67,0,39.36-6.48,39.36-14.37v-42.8c0-7.91-17.69-14.39-39.36-14.39h-188.13Z"/>
      <path class="cls-4" d="m2413.19,4879.89c-21.67,0-39.36,6.46-39.36,14.37v42.8c0,7.91,17.69,14.37,39.36,14.37h188.13c21.67,0,39.36-6.46,39.36-14.37v-42.8c0-7.91-17.69-14.37-39.36-14.37h-188.13Z"/>
      <path class="cls-4" d="m153.57,4879.89c-21.67,0-39.36,6.46-39.36,14.37v42.8c0,7.91,17.69,14.37,39.36,14.37h188.13c21.67,0,39.36-6.46,39.36-14.37v-42.8c0-7.91-17.69-14.37-39.36-14.37h-188.13Z"/>
      <path class="cls-4" d="m341.7,2388.84c21.67,0,39.36-6.46,39.36-14.37v-42.8c0-7.91-17.69-14.39-39.36-14.39h-188.13c-21.67,0-39.36,6.48-39.36,14.39v42.8c0,7.91,17.69,14.37,39.36,14.37h188.13Z"/>
      <path class="cls-4" d="m2413.19,5036.03c-21.67,0-39.36,6.48-39.36,14.39v42.8c0,7.89,17.69,14.37,39.36,14.37h188.13c21.67,0,39.36-6.48,39.36-14.37v-42.8c0-7.91-17.69-14.39-39.36-14.39h-188.13Z"/>
      <path class="cls-4" d="m341.7,450.86c21.67,0,39.36-6.46,39.36-14.37v-42.8c0-7.91-17.69-14.37-39.36-14.37h-188.13c-21.67,0-39.36,6.46-39.36,14.37v42.8c0,7.91,17.69,14.37,39.36,14.37h188.13Z"/>
      <path class="cls-4" d="m153.57,5348.33c-21.67,0-39.36,6.48-39.36,14.39v42.8c0,7.91,17.69,14.37,39.36,14.37h188.13c21.67,0,39.36-6.46,39.36-14.37v-42.8c0-7.91-17.69-14.39-39.36-14.39h-188.13Z"/>
      <path class="cls-4" d="m153.57,5192.19c-21.67,0-39.36,6.46-39.36,14.37v42.8c0,7.91,17.69,14.39,39.36,14.39h188.13c21.67,0,39.36-6.48,39.36-14.39v-42.8c0-7.91-17.69-14.37-39.36-14.37h-188.13Z"/>
      <path class="cls-4" d="m2413.19,4723.73c-21.67,0-39.36,6.48-39.36,14.37v42.81c0,7.89,17.69,14.37,39.36,14.37h188.13c21.67,0,39.36-6.48,39.36-14.37v-42.81c0-7.89-17.69-14.37-39.36-14.37h-188.13Z"/>
      <path class="cls-4" d="m341.7,607.02c21.67,0,39.36-6.48,39.36-14.37v-42.8c0-7.91-17.69-14.39-39.36-14.39h-188.13c-21.67,0-39.36,6.48-39.36,14.39v42.8c0,7.89,17.69,14.37,39.36,14.37h188.13Z"/>
      <path class="cls-4" d="m2413.19,4567.57c-21.67,0-39.36,6.48-39.36,14.39v42.8c0,7.91,17.69,14.37,39.36,14.37h188.13c21.67,0,39.36-6.46,39.36-14.37v-42.8c0-7.91-17.69-14.39-39.36-14.39h-188.13Z"/>
      <path class="cls-4" d="m153.57,5504.49c-21.67,0-39.36,6.46-39.36,14.37v42.8c0,7.91,17.69,14.39,39.36,14.39h188.13c21.67,0,39.36-6.48,39.36-14.39v-42.8c0-7.91-17.69-14.37-39.36-14.37h-188.13Z"/>
      <path class="cls-4" d="m341.7,294.72c21.67,0,39.36-6.48,39.36-14.37v-42.81c0-7.89-17.69-14.37-39.36-14.37h-188.13c-21.67,0-39.36,6.48-39.36,14.37v42.81c0,7.89,17.69,14.37,39.36,14.37h188.13Z"/>
      <path class="cls-4" d="m341.7,1576c21.67,0,39.36-6.46,39.36-14.37v-42.8c0-7.91-17.69-14.37-39.36-14.37h-188.13c-21.67,0-39.36,6.46-39.36,14.37v42.8c0,7.91,17.69,14.37,39.36,14.37h188.13Z"/>
      <path class="cls-4" d="m341.7,2200.63c21.67,0,39.36-6.48,39.36-14.39v-42.8c0-7.91-17.69-14.37-39.36-14.37h-188.13c-21.67,0-39.36,6.46-39.36,14.37v42.8c0,7.91,17.69,14.39,39.36,14.39h188.13Z"/>
      <path class="cls-4" d="m341.7,1419.86c21.67,0,39.36-6.48,39.36-14.37v-42.81c0-7.89-17.69-14.37-39.36-14.37h-188.13c-21.67,0-39.36,6.48-39.36,14.37v42.81c0,7.89,17.69,14.37,39.36,14.37h188.13Z"/>
      <path class="cls-4" d="m2205.94,2285.89c-.22,0-.44,0-.66,0H549.62c-.22,0-.44,0-.66,0h1656.98Z"/>
      <path class="cls-4" d="m2205.28,1160.74H549.62c-.22,0-.44,0-.67,0h1656.99c-.22,0-.44,0-.67,0Z"/>
      <path class="cls-4" d="m341.7,2044.47c21.67,0,39.36-6.46,39.36-14.37v-42.8c0-7.91-17.69-14.39-39.36-14.39h-188.13c-21.67,0-39.36,6.48-39.36,14.39v42.8c0,7.91,17.69,14.37,39.36,14.37h188.13Z"/>
      <path class="cls-4" d="m341.7,1888.33c21.67,0,39.36-6.48,39.36-14.39v-42.8c0-7.91-17.69-14.37-39.36-14.37h-188.13c-21.67,0-39.36,6.46-39.36,14.37v42.8c0,7.91,17.69,14.39,39.36,14.39h188.13Z"/>
      <path class="cls-4" d="m341.7,1732.16c21.67,0,39.36-6.48,39.36-14.37v-42.8c0-7.91-17.69-14.39-39.36-14.39h-188.13c-21.67,0-39.36,6.48-39.36,14.39v42.8c0,7.89,17.69,14.37,39.36,14.37h188.13Z"/>
      <path class="cls-4" d="m341.7,1263.7c21.67,0,39.36-6.46,39.36-14.37v-42.8c0-7.91-17.69-14.39-39.36-14.39h-188.13c-21.67,0-39.36,6.48-39.36,14.39v42.8c0,7.91,17.69,14.37,39.36,14.37h188.13Z"/>
      <path class="cls-4" d="m341.7,919.33c21.67,0,39.36-6.46,39.36-14.37v-42.8c0-7.91-17.69-14.39-39.36-14.39h-188.13c-21.67,0-39.36,6.48-39.36,14.39v42.8c0,7.91,17.69,14.37,39.36,14.37h188.13Z"/>
      <path class="cls-4" d="m341.7,1075.49c21.67,0,39.36-6.48,39.36-14.39v-42.8c0-7.91-17.69-14.37-39.36-14.37h-188.13c-21.67,0-39.36,6.46-39.36,14.37v42.8c0,7.91,17.69,14.39,39.36,14.39h188.13Z"/>
      <path class="cls-4" d="m2413.19,5192.19c-21.67,0-39.36,6.46-39.36,14.37v42.8c0,7.91,17.69,14.39,39.36,14.39h188.13c21.67,0,39.36-6.48,39.36-14.39v-42.8c0-7.91-17.69-14.37-39.36-14.37h-188.13Z"/>
      <path class="cls-4" d="m2413.19,5504.49c-21.67,0-39.36,6.46-39.36,14.37v42.8c0,7.91,17.69,14.39,39.36,14.39h188.13c21.67,0,39.36-6.48,39.36-14.39v-42.8c0-7.91-17.69-14.37-39.36-14.37h-188.13Z"/>
      <path class="cls-4" d="m341.7,763.18c21.67,0,39.36-6.48,39.36-14.39v-42.8c0-7.91-17.69-14.37-39.36-14.37h-188.13c-21.67,0-39.36,6.46-39.36,14.37v42.8c0,7.91,17.69,14.39,39.36,14.39h188.13Z"/>
      <path class="cls-4" d="m2413.19,5348.33c-21.67,0-39.36,6.48-39.36,14.39v42.8c0,7.91,17.69,14.37,39.36,14.37h188.13c21.67,0,39.36-6.46,39.36-14.37v-42.8c0-7.91-17.69-14.39-39.36-14.39h-188.13Z"/>
      <path class="cls-4" d="m552.17,3357.17h-2.84c.1,0,.19,0,.29,0h1655.66c.1,0,.19,0,.29,0H552.17Z"/>
      <rect class="cls-2" x="279.71" y="5634.39" width="2167.54" height="3.88"/>
      <rect class="cls-2" x="2538.15" y="5634.39" width="34.95" height="3.88"/>
      <rect class="cls-2" x="0" y="5634.39" width="74.58" height="3.88"/>
      <rect class="cls-2" x="2652.34" y="5634.39" width="74.6" height="3.88"/>
      <rect class="cls-2" x="153.83" y="5634.39" width="34.98" height="3.88"/>
      <rect class="cls-1" x="188.8" y="5634.39" width="90.9" height="3.88"/>
      <rect class="cls-1" x="74.58" y="5634.39" width="79.24" height="3.88"/>
      <rect class="cls-1" x="2447.25" y="5634.39" width="90.9" height="3.88"/>
      <rect class="cls-1" x="2573.1" y="5634.39" width="79.24" height="3.88"/>
      <path class="cls-3" d="m535.3,5607.1c-1.5-.07-3-.16-4.48-.25,1.48.09,2.98.18,4.48.25Z"/>
      <path class="cls-3" d="m539.74,5607.28c-1.16-.04-2.32-.08-3.47-.14,1.15.05,2.31.1,3.47.14Z"/>
      <path class="cls-3" d="m552.76,4536.32h1650.3c13.49,0,26.42.74,38.4,2.1-11.13-1.43-23.07-2.22-35.52-2.25H548.95c-15.51.03-30.23,1.25-43.57,3.41,14.39-2.09,30.44-3.27,47.38-3.27Z"/>
      <path class="cls-3" d="m440.51,4576v991.62c0,.93.12,1.85.29,2.76v-997.14c-.17.91-.29,1.83-.29,2.76Z"/>
      <path class="cls-3" d="m529.3,5606.75c-.86-.06-1.7-.12-2.55-.18.85.07,1.7.12,2.55.18Z"/>
      <rect class="cls-2" x="0" y="4509.25" width="74.58" height="17.35"/>
      <path class="cls-2" d="m2413.19,5576.05c-21.67,0-39.36-6.48-39.36-14.39v-42.8c0-7.91,17.69-14.37,39.36-14.37h34.06v-84.6h-34.06c-21.67,0-39.36-6.46-39.36-14.37v-42.8c0-7.91,17.69-14.39,39.36-14.39h34.06v-84.59h-34.06c-21.67,0-39.36-6.48-39.36-14.39v-42.8c0-7.91,17.69-14.37,39.36-14.37h34.06v-84.6h-34.06c-21.67,0-39.36-6.48-39.36-14.37v-42.8c0-7.91,17.69-14.39,39.36-14.39h34.06v-84.6h-34.06c-21.67,0-39.36-6.46-39.36-14.37v-42.8c0-7.91,17.69-14.37,39.36-14.37h34.06v-84.6h-34.06c-21.67,0-39.36-6.48-39.36-14.37v-42.81c0-7.89,17.69-14.37,39.36-14.37h34.06v-84.6h-34.06c-21.67,0-39.36-6.46-39.36-14.37v-42.8c0-7.91,17.69-14.39,39.36-14.39h34.06v-58.32H279.71v58.32h62c21.67,0,39.36,6.48,39.36,14.39v42.8c0,7.91-17.69,14.37-39.36,14.37h-62v84.6h62c21.67,0,39.36,6.48,39.36,14.37v42.81c0,7.89-17.69,14.37-39.36,14.37h-62v84.6h62c21.67,0,39.36,6.46,39.36,14.37v42.8c0,7.91-17.69,14.37-39.36,14.37h-62v84.6h62c21.67,0,39.36,6.48,39.36,14.39v42.8c0,7.89-17.69,14.37-39.36,14.37h-62v84.6h62c21.67,0,39.36,6.46,39.36,14.37v42.8c0,7.91-17.69,14.39-39.36,14.39h-62v84.59h62c21.67,0,39.36,6.48,39.36,14.39v42.8c0,7.91-17.69,14.37-39.36,14.37h-62v84.6h62c21.67,0,39.36,6.46,39.36,14.37v42.8c0,7.91-17.69,14.39-39.36,14.39h-62v58.34h2167.54v-58.34h-34.06Zm-120.91,31.4h-82.21c-2.32.04-4.65.07-7.01.07H552.76c-2.36,0-4.69-.03-7.01-.07h-83.14c-12.21,0-22.11-3.08-22.11-6.88v-1057.52c0-3.8,9.9-6.88,22.11-6.88h86.34c.22,0,.44,0,.66,0h1655.66c.22,0,.44,0,.66,0h86.34c12.21,0,22.11,3.08,22.11,6.88v24.39c.41,1.22.64,2.45.64,3.71v1001.54c0,1.25-.22,2.49-.64,3.71v24.17c0,3.8-9.9,6.88-22.11,6.88Z"/>
      <rect class="cls-2" x="0" y="4545.75" width="74.58" height="12.26"/>
      <path class="cls-2" d="m2652.34,4526.6h74.58v19.15h-74.58v12.26h74.58v19.15h-79.24v-16.09h-74.58v-19.15h74.58v-13.53h-74.58v-19.14h-34.95v58.32h63.17c21.67,0,39.36,6.48,39.36,14.39v42.8c0,7.91-17.69,14.37-39.36,14.37h-63.17v84.6h63.17c21.67,0,39.36,6.48,39.36,14.37v42.81c0,7.89-17.69,14.37-39.36,14.37h-63.17v84.6h63.17c21.67,0,39.36,6.46,39.36,14.37v42.8c0,7.91-17.69,14.37-39.36,14.37h-63.17v84.6h63.17c21.67,0,39.36,6.48,39.36,14.39v42.8c0,7.89-17.69,14.37-39.36,14.37h-63.17v84.6h63.17c21.67,0,39.36,6.46,39.36,14.37v42.8c0,7.91-17.69,14.39-39.36,14.39h-63.17v84.59h63.17c21.67,0,39.36,6.48,39.36,14.39v42.8c0,7.91-17.69,14.37-39.36,14.37h-63.17v84.6h63.17c21.67,0,39.36,6.46,39.36,14.37v42.8c0,7.91-17.69,14.39-39.36,14.39h-63.17v58.34h34.95s79.24,0,79.24,0h0s74.6,0,74.6,0v-1125.14h-74.6v17.35Zm-4.66,1086.91h79.24v20.87h-153.83v-20.87h74.58Zm79.24-37.46v20.87h-79.24v-20.87h79.24Zm0-83.16v30.85h-79.24v-30.85h79.24Zm0-30.21v19.15h-79.24v-19.15h79.24Zm0-30.21v19.15h-79.24v-19.15h79.24Zm0-154.03v19.15h-79.24v-19.15h79.24Zm0-30.21v19.15h-79.24v-19.15h79.24Zm0-29.85v19.15h-79.24v-19.15h79.24Zm0-139.92v19.15h-79.24v-19.15h79.24Zm0-33.47v19.15h-79.24v-19.15h79.24Zm0-100.41v19.15h-74.58v14.32h74.58v19.15h-74.58v14.32h74.58v19.15h-79.24v-16.74h-74.58v-52.62h74.58v-16.74h79.24Zm0-33.47v19.15h-79.24v-19.15h79.24Zm0-33.47v19.15h-79.24v-19.15h79.24Zm0-173.06v19.15h-79.24v-19.15h79.24Zm0-56.7v47.46h-79.24v-47.46h79.24Z"/>
      <path class="cls-2" d="m153.57,5576.05c-21.67,0-39.36-6.48-39.36-14.39v-42.8c0-7.91,17.69-14.37,39.36-14.37h35.23v-84.6h-35.23c-21.67,0-39.36-6.46-39.36-14.37v-42.8c0-7.91,17.69-14.39,39.36-14.39h35.23v-84.59h-35.23c-21.67,0-39.36-6.48-39.36-14.39v-42.8c0-7.91,17.69-14.37,39.36-14.37h35.23v-84.6h-35.23c-21.67,0-39.36-6.48-39.36-14.37v-42.8c0-7.91,17.69-14.39,39.36-14.39h35.23v-84.6h-35.23c-21.67,0-39.36-6.46-39.36-14.37v-42.8c0-7.91,17.69-14.37,39.36-14.37h35.23v-84.6h-35.23c-21.67,0-39.36-6.48-39.36-14.37v-42.81c0-7.89,17.69-14.37,39.36-14.37h35.23v-84.6h-35.23c-21.67,0-39.36-6.46-39.36-14.37v-42.8c0-7.91,17.69-14.39,39.36-14.39h35.23v-58.32h-34.98v19.14h-74.58v13.53h74.58v19.15h-74.58v16.09H0v70.73h79.24v47.46H0v9.25h79.24v19.15H0v153.91h79.24v19.15H0v14.32h79.24v19.15H0v14.32h79.24v16.74h74.58v52.62h-74.58v16.74H0v14.32h79.24v19.15H0v14.32h79.24v19.15H0v120.78h79.24v19.15H0v10.7h79.24v19.15H0v11.06h79.24v19.15H0v134.88h79.24v19.15H0v11.06h79.24v19.15H0v11.06h79.24v30.85H0v52.31h79.24v20.87H0v16.59h153.82v20.87H0s74.58,0,74.58,0h0s79.24,0,79.24,0h0s34.98,0,34.98,0v-58.34h-35.23Z"/>
      <polygon class="cls-2" points="74.58 4999.9 74.58 4997.2 0 4997.2 0 5011.53 74.58 5011.53 74.58 4999.9"/>
      <rect class="cls-2" x="0" y="4963.73" width="74.58" height="14.32"/>
      <rect class="cls-2" x="74.58" y="5634.38" width="79.24" height="0"/>
      <rect class="cls-2" x="2573.1" y="5634.38" width="79.24" height="0"/>
      <path class="cls-2" d="m536.27,5607.15c-.32-.01-.65-.03-.97-.05-1.5-.07-3-.15-4.48-.25-.51-.03-1.02-.07-1.52-.1-.85-.06-1.71-.12-2.55-.18-49.28-3.65-85.94-17.43-85.94-33.88v-2.31c-.17-.91-.29-1.83-.29-2.76v-991.62c0-.93.12-1.85.29-2.76v-2.09c0-13.97,26.44-26.01,64.59-31.56,13.33-2.16,28.06-3.38,43.57-3.41h-86.34c-12.21,0-22.11,3.08-22.11,6.88v1057.52c0,3.8,9.9,6.88,22.11,6.88h83.14c-2.02-.04-4.03-.1-6.02-.17-1.16-.04-2.32-.09-3.47-.14Z"/>
      <path class="cls-2" d="m2314.39,4567.44v-24.39c0-3.8-9.9-6.88-22.11-6.88h-86.34c12.45.03,24.39.82,35.52,2.25,39.35,4.47,68.37,15.61,72.93,29.03Z"/>
      <path class="cls-2" d="m2210.07,5607.45h82.21c12.21,0,22.11-3.08,22.11-6.88v-24.17c-5.71,16.78-49.71,30-104.32,31.05Z"/>
      <rect class="cls-1" x="188.8" y="5576.05" width="90.9" height="58.34"/>
      <rect class="cls-1" x="188.8" y="5419.89" width="90.9" height="84.6"/>
      <rect class="cls-1" x="188.8" y="5263.75" width="90.9" height="84.59"/>
      <rect class="cls-1" x="188.8" y="5107.59" width="90.9" height="84.6"/>
      <rect class="cls-1" x="188.8" y="4951.43" width="90.9" height="84.6"/>
      <rect class="cls-1" x="188.8" y="4795.29" width="90.9" height="84.6"/>
      <rect class="cls-1" x="188.8" y="4639.12" width="90.9" height="84.6"/>
      <rect class="cls-1" x="188.8" y="4509.25" width="90.9" height="58.32"/>
      <rect class="cls-1" y="5492.89" width="0" height="30.85"/>
      <rect class="cls-1" x="0" y="5492.89" width="79.24" height="30.85"/>
      <rect class="cls-1" y="5576.05" width="0" height="20.87"/>
      <rect class="cls-1" x="0" y="5576.05" width="79.24" height="20.87"/>
      <rect class="cls-1" y="5613.51" width="0" height="20.87"/>
      <polygon class="cls-1" points="79.24 5634.38 153.83 5634.38 153.83 5613.51 79.24 5613.51 74.58 5613.51 0 5613.51 0 5634.38 74.58 5634.38 79.24 5634.38"/>
      <rect class="cls-1" y="5462.68" width="0" height="19.15"/>
      <rect class="cls-1" x="0" y="5462.68" width="79.24" height="19.15"/>
      <rect class="cls-1" y="5432.47" width="0" height="19.15"/>
      <rect class="cls-1" x="0" y="5432.47" width="79.24" height="19.15"/>
      <rect class="cls-1" y="4704.58" width="0" height="19.15"/>
      <rect class="cls-1" x="0" y="4704.58" width="79.24" height="19.15"/>
      <rect class="cls-1" y="4647.88" width="0" height="47.46"/>
      <rect class="cls-1" x="0" y="4647.88" width="79.24" height="47.46"/>
      <rect class="cls-1" y="5078.47" width="0" height="19.15"/>
      <rect class="cls-1" x="0" y="5078.47" width="79.24" height="19.15"/>
      <rect class="cls-1" y="5045" width="0" height="19.15"/>
      <rect class="cls-1" x="0" y="5045" width="79.24" height="19.15"/>
      <rect class="cls-1" y="4558" width="0" height="19.15"/>
      <rect class="cls-1" y="4526.6" width="0" height="19.15"/>
      <polygon class="cls-1" points="79.24 4561.06 153.83 4561.06 153.83 4541.92 79.24 4541.92 79.24 4528.39 153.83 4528.39 153.83 4509.25 74.58 4509.25 74.58 4526.6 0 4526.6 0 4545.75 74.58 4545.75 74.58 4558 0 4558 0 4577.15 79.24 4577.15 79.24 4561.06"/>
      <rect class="cls-1" y="4978.05" width="0" height="19.15"/>
      <rect class="cls-1" y="4944.58" width="0" height="19.15"/>
      <rect class="cls-1" y="5011.53" width="0" height="19.15"/>
      <polygon class="cls-1" points="79.24 5013.94 153.83 5013.94 153.83 4999.9 153.83 4994.79 153.83 4961.32 79.24 4961.32 79.24 4944.58 0 4944.58 0 4963.73 74.58 4963.73 74.58 4978.05 0 4978.05 0 4997.2 74.58 4997.2 74.58 4999.9 74.58 5011.53 0 5011.53 0 5030.67 79.24 5030.67 79.24 5013.94"/>
      <rect class="cls-1" y="4911.11" width="0" height="19.15"/>
      <rect class="cls-1" x="0" y="4911.11" width="79.24" height="19.15"/>
      <rect class="cls-1" y="4877.64" width="0" height="19.15"/>
      <rect class="cls-1" x="0" y="4877.64" width="79.24" height="19.15"/>
      <rect class="cls-1" y="5278.45" width="0" height="19.15"/>
      <rect class="cls-1" x="0" y="5278.45" width="79.24" height="19.15"/>
      <rect class="cls-1" y="5248.24" width="0" height="19.15"/>
      <rect class="cls-1" x="0" y="5248.24" width="79.24" height="19.15"/>
      <rect class="cls-1" y="5218.39" width="0" height="19.15"/>
      <rect class="cls-1" x="0" y="5218.39" width="79.24" height="19.15"/>
      <rect class="cls-1" x="2447.25" y="5576.05" width="90.9" height="58.34"/>
      <rect class="cls-1" x="2447.25" y="5419.89" width="90.9" height="84.6"/>
      <rect class="cls-1" x="2447.25" y="5263.75" width="90.9" height="84.59"/>
      <rect class="cls-1" x="2447.25" y="5107.59" width="90.9" height="84.6"/>
      <rect class="cls-1" x="2447.25" y="4951.43" width="90.9" height="84.6"/>
      <rect class="cls-1" x="2447.25" y="4795.29" width="90.9" height="84.6"/>
      <rect class="cls-1" x="2447.25" y="4639.12" width="90.9" height="84.6"/>
      <rect class="cls-1" x="2447.25" y="4509.25" width="90.9" height="58.32"/>
      <rect class="cls-1" x="2647.68" y="5492.89" width="79.24" height="30.85"/>
      <rect class="cls-1" x="2647.68" y="5576.05" width="79.24" height="20.87"/>
      <polygon class="cls-1" points="2647.68 5634.38 2652.34 5634.38 2726.93 5634.38 2726.93 5613.51 2652.34 5613.51 2647.68 5613.51 2573.1 5613.51 2573.1 5634.38 2647.68 5634.38"/>
      <rect class="cls-1" x="2647.68" y="5462.68" width="79.24" height="19.15"/>
      <rect class="cls-1" x="2647.68" y="5432.47" width="79.24" height="19.15"/>
      <rect class="cls-1" x="2647.68" y="4704.58" width="79.24" height="19.15"/>
      <rect class="cls-1" x="2647.68" y="4647.88" width="79.24" height="47.46"/>
      <rect class="cls-1" x="2647.68" y="5078.47" width="79.24" height="19.15"/>
      <rect class="cls-1" x="2647.68" y="5045" width="79.24" height="19.15"/>
      <polygon class="cls-1" points="2647.68 4528.39 2647.68 4541.92 2573.1 4541.92 2573.1 4561.06 2647.68 4561.06 2647.68 4577.15 2726.93 4577.15 2726.93 4558 2652.34 4558 2652.34 4545.75 2726.93 4545.75 2726.93 4526.6 2652.34 4526.6 2652.34 4509.25 2573.1 4509.25 2573.1 4528.39 2647.68 4528.39"/>
      <polygon class="cls-1" points="2573.1 4961.32 2573.1 4994.79 2573.1 4999.9 2573.1 5013.94 2647.68 5013.94 2647.68 5030.67 2726.93 5030.67 2726.93 5011.53 2652.34 5011.53 2652.34 4999.9 2652.34 4997.2 2726.93 4997.2 2726.93 4978.05 2652.34 4978.05 2652.34 4963.73 2726.93 4963.73 2726.93 4944.58 2647.68 4944.58 2647.68 4961.32 2573.1 4961.32"/>
      <rect class="cls-1" x="2647.68" y="4911.11" width="79.24" height="19.15"/>
      <rect class="cls-1" x="2647.68" y="4877.64" width="79.24" height="19.15"/>
      <rect class="cls-1" x="2647.68" y="5278.45" width="79.24" height="19.15"/>
      <rect class="cls-1" x="2647.68" y="5248.24" width="79.24" height="19.15"/>
      <rect class="cls-1" x="2647.68" y="5218.39" width="79.24" height="19.15"/>
      <path class="cls-3" d="m440.51,3450.86v991.62c0,.93.12,1.85.29,2.76v-997.14c-.17.91-.29,1.83-.29,2.76Z"/>
      <path class="cls-3" d="m2203.07,4482.05H552.76c-19.21,0-37.28-1.51-53.08-4.16,14.88,2.8,31.74,4.4,49.63,4.42h1656.26c15.33-.02,29.91-1.19,43.13-3.29-13.94,1.94-29.38,3.03-45.64,3.03Z"/>
      <path class="cls-2" d="m74.58,4509.24h79.24s34.98,0,34.98,0v-58.34h-35.23c-21.67,0-39.36-6.48-39.36-14.39v-42.8c0-7.91,17.69-14.37,39.36-14.37h35.23v-84.6h-35.23c-21.67,0-39.36-6.46-39.36-14.37v-42.8c0-7.91,17.69-14.39,39.36-14.39h35.23v-84.59h-35.23c-21.67,0-39.36-6.48-39.36-14.39v-42.8c0-7.91,17.69-14.37,39.36-14.37h35.23v-84.6h-35.23c-21.67,0-39.36-6.48-39.36-14.37v-42.8c0-7.91,17.69-14.39,39.36-14.39h35.23v-84.6h-35.23c-21.67,0-39.36-6.46-39.36-14.37v-42.8c0-7.91,17.69-14.37,39.36-14.37h35.23v-84.6h-35.23c-21.67,0-39.36-6.48-39.36-14.37v-42.81c0-7.89,17.69-14.37,39.36-14.37h35.23v-84.6h-35.23c-21.67,0-39.36-6.46-39.36-14.37v-42.8c0-7.91,17.69-14.39,39.36-14.39h35.23v-58.32h-34.98v19.14h-74.58v13.53h74.58v19.15h-74.58v16.09H0v70.73h79.24v47.46H0v9.25h79.24v19.15H0v153.91h79.24v19.15H0v14.32h79.24v19.15H0v14.32h79.24v16.74h74.58v52.62h-74.58v16.74H0v14.32h79.24v19.15H0v14.32h79.24v19.15H0v120.78h79.24v19.15H0v10.7h79.24v19.15H0v11.06h79.24v19.15H0v134.88h79.24v19.15H0v11.06h79.24v19.15H0v11.06h79.24v30.85H0v52.31h79.24v20.87H0v16.59h153.82v20.87H0s74.58,0,74.58,0h0Z"/>
      <path class="cls-2" d="m2413.19,4450.91c-21.67,0-39.36-6.48-39.36-14.39v-42.8c0-7.91,17.69-14.37,39.36-14.37h34.06v-84.6h-34.06c-21.67,0-39.36-6.46-39.36-14.37v-42.8c0-7.91,17.69-14.39,39.36-14.39h34.06v-84.59h-34.06c-21.67,0-39.36-6.48-39.36-14.39v-42.8c0-7.91,17.69-14.37,39.36-14.37h34.06v-84.6h-34.06c-21.67,0-39.36-6.48-39.36-14.37v-42.8c0-7.91,17.69-14.39,39.36-14.39h34.06v-84.6h-34.06c-21.67,0-39.36-6.46-39.36-14.37v-42.8c0-7.91,17.69-14.37,39.36-14.37h34.06v-84.6h-34.06c-21.67,0-39.36-6.48-39.36-14.37v-42.81c0-7.89,17.69-14.37,39.36-14.37h34.06v-84.6h-34.06c-21.67,0-39.36-6.46-39.36-14.37v-42.8c0-7.91,17.69-14.39,39.36-14.39h34.06v-58.32H279.71v58.32h62c21.67,0,39.36,6.48,39.36,14.39v42.8c0,7.91-17.69,14.37-39.36,14.37h-62v84.6h62c21.67,0,39.36,6.48,39.36,14.37v42.81c0,7.89-17.69,14.37-39.36,14.37h-62v84.6h62c21.67,0,39.36,6.46,39.36,14.37v42.8c0,7.91-17.69,14.37-39.36,14.37h-62v84.6h62c21.67,0,39.36,6.48,39.36,14.39v42.8c0,7.89-17.69,14.37-39.36,14.37h-62v84.6h62c21.67,0,39.36,6.46,39.36,14.37v42.8c0,7.91-17.69,14.39-39.36,14.39h-62v84.59h62c21.67,0,39.36,6.48,39.36,14.39v42.8c0,7.91-17.69,14.37-39.36,14.37h-62v84.6h62c21.67,0,39.36,6.46,39.36,14.37v42.8c0,7.91-17.69,14.39-39.36,14.39h-62v58.34h2167.54v-58.34h-34.06Zm-120.91,31.4h-86.7c-.1,0-.2,0-.3,0H549.62c-.1,0-.2,0-.3,0h-86.7c-12.21,0-22.11-3.08-22.11-6.88v-1057.52c0-3.8,9.9-6.88,22.11-6.88h78.44c3.85-.12,7.75-.19,11.71-.19h1650.3c3.96,0,7.86.07,11.71.19h77.5c12.21,0,22.11,3.08,22.11,6.88v24.06c.41,1.22.64,2.45.64,3.71v1001.54c0,1.25-.22,2.49-.64,3.71v24.51c0,3.8-9.9,6.88-22.11,6.88Z"/>
      <rect class="cls-2" x="0" y="3420.6" width="74.58" height="12.26"/>
      <rect class="cls-2" x="0" y="3838.59" width="74.58" height="14.32"/>
      <polygon class="cls-2" points="74.58 3874.75 74.58 3872.06 0 3872.06 0 3886.38 74.58 3886.38 74.58 3874.75"/>
      <rect class="cls-2" x="0" y="3384.11" width="74.58" height="17.35"/>
      <path class="cls-2" d="m2652.34,3401.46h74.58v19.15h-74.58v12.26h74.58v19.15h-79.24v-16.09h-74.58v-19.15h74.58v-13.53h-74.58v-19.14h-34.95v58.32h63.17c21.67,0,39.36,6.48,39.36,14.39v42.8c0,7.91-17.69,14.37-39.36,14.37h-63.17v84.6h63.17c21.67,0,39.36,6.48,39.36,14.37v42.81c0,7.89-17.69,14.37-39.36,14.37h-63.17v84.6h63.17c21.67,0,39.36,6.46,39.36,14.37v42.8c0,7.91-17.69,14.37-39.36,14.37h-63.17v84.6h63.17c21.67,0,39.36,6.48,39.36,14.39v42.8c0,7.89-17.69,14.37-39.36,14.37h-63.17v84.6h63.17c21.67,0,39.36,6.46,39.36,14.37v42.8c0,7.91-17.69,14.39-39.36,14.39h-63.17v84.59h63.17c21.67,0,39.36,6.48,39.36,14.39v42.8c0,7.91-17.69,14.37-39.36,14.37h-63.17v84.6h63.17c21.67,0,39.36,6.46,39.36,14.37v42.8c0,7.91-17.69,14.39-39.36,14.39h-63.17v58.34h34.95s79.24,0,79.24,0h0s74.6,0,74.6,0v-1125.14h-74.6v17.35Zm-4.66,1086.91h79.24v20.87h-153.83v-20.87h74.58Zm79.24-37.46v20.87h-79.24v-20.87h79.24Zm0-83.16v30.85h-79.24v-30.85h79.24Zm0-30.21v19.15h-79.24v-19.15h79.24Zm0-30.21v19.15h-79.24v-19.15h79.24Zm0-154.03v19.15h-79.24v-19.15h79.24Zm0-30.21v19.15h-79.24v-19.15h79.24Zm0-29.85v19.15h-79.24v-19.15h79.24Zm0-139.92v19.15h-79.24v-19.15h79.24Zm0-33.47v19.15h-79.24v-19.15h79.24Zm0-100.41v19.15h-74.58v14.32h74.58v19.15h-74.58v14.32h74.58v19.15h-79.24v-16.74h-74.58v-52.62h74.58v-16.74h79.24Zm0-33.47v19.15h-79.24v-19.15h79.24Zm0-33.47v19.15h-79.24v-19.15h79.24Zm0-173.06v19.15h-79.24v-19.15h79.24Zm0-56.7v47.46h-79.24v-47.46h79.24Z"/>
      <rect class="cls-2" x="74.58" y="4509.24" width="79.24" height="0"/>
      <rect class="cls-2" x="2573.1" y="4509.24" width="79.24" height="0"/>
      <path class="cls-2" d="m2248.71,4479.02c-13.22,2.1-27.8,3.27-43.13,3.29h86.7c12.21,0,22.11-3.08,22.11-6.88v-24.51c-4.28,12.57-30.06,23.14-65.68,28.1Z"/>
      <path class="cls-2" d="m2314.39,3441.97v-24.06c0-3.8-9.9-6.88-22.11-6.88h-77.5c52.41,1.7,94.07,14.64,99.62,30.94Z"/>
      <path class="cls-2" d="m440.8,4447.22v-1.98c-.17-.91-.29-1.83-.29-2.76v-991.62c0-.93.12-1.85.29-2.76v-2.42c0-18.01,43.92-32.82,100.25-34.64h-78.44c-12.21,0-22.11,3.08-22.11,6.88v1057.52c0,3.8,9.9,6.88,22.11,6.88h86.7c-17.89-.02-34.75-1.61-49.63-4.42-35.06-5.88-58.88-17.41-58.88-30.68Z"/>
      <rect class="cls-1" x="188.8" y="4450.91" width="90.9" height="58.34"/>
      <rect class="cls-1" x="188.8" y="4294.75" width="90.9" height="84.6"/>
      <rect class="cls-1" x="188.8" y="4138.61" width="90.9" height="84.59"/>
      <rect class="cls-1" x="188.8" y="3982.45" width="90.9" height="84.6"/>
      <rect class="cls-1" x="188.8" y="3826.29" width="90.9" height="84.6"/>
      <rect class="cls-1" x="188.8" y="3670.14" width="90.9" height="84.6"/>
      <rect class="cls-1" x="188.8" y="3513.98" width="90.9" height="84.6"/>
      <rect class="cls-1" x="188.8" y="3384.11" width="90.9" height="58.32"/>
      <rect class="cls-1" y="4367.75" width="0" height="30.85"/>
      <rect class="cls-1" x="0" y="4367.75" width="79.24" height="30.85"/>
      <rect class="cls-1" y="4450.91" width="0" height="20.87"/>
      <rect class="cls-1" x="0" y="4450.91" width="79.24" height="20.87"/>
      <rect class="cls-1" y="4488.37" width="0" height="20.87"/>
      <polygon class="cls-1" points="79.24 4509.24 153.83 4509.24 153.83 4488.37 79.24 4488.37 74.58 4488.37 0 4488.37 0 4509.24 74.58 4509.24 79.24 4509.24"/>
      <rect class="cls-1" y="4337.54" width="0" height="19.15"/>
      <rect class="cls-1" x="0" y="4337.54" width="79.24" height="19.15"/>
      <rect class="cls-1" y="4307.33" width="0" height="19.15"/>
      <rect class="cls-1" x="0" y="4307.33" width="79.24" height="19.15"/>
      <rect class="cls-1" y="3579.44" width="0" height="19.15"/>
      <rect class="cls-1" x="0" y="3579.44" width="79.24" height="19.15"/>
      <rect class="cls-1" y="3522.74" width="0" height="47.46"/>
      <rect class="cls-1" x="0" y="3522.74" width="79.24" height="47.46"/>
      <rect class="cls-1" y="3953.33" width="0" height="19.15"/>
      <rect class="cls-1" x="0" y="3953.33" width="79.24" height="19.15"/>
      <rect class="cls-1" y="3919.86" width="0" height="19.15"/>
      <rect class="cls-1" x="0" y="3919.86" width="79.24" height="19.15"/>
      <rect class="cls-1" y="3401.46" width="0" height="19.15"/>
      <rect class="cls-1" y="3432.86" width="0" height="19.15"/>
      <polygon class="cls-1" points="79.24 3435.92 153.83 3435.92 153.83 3416.77 79.24 3416.77 79.24 3403.25 153.83 3403.25 153.83 3384.11 74.58 3384.11 74.58 3401.46 0 3401.46 0 3420.6 74.58 3420.6 74.58 3432.86 0 3432.86 0 3452.01 79.24 3452.01 79.24 3435.92"/>
      <rect class="cls-1" y="3819.44" width="0" height="19.15"/>
      <rect class="cls-1" y="3886.38" width="0" height="19.15"/>
      <rect class="cls-1" y="3852.91" width="0" height="19.15"/>
      <polygon class="cls-1" points="79.24 3888.8 153.83 3888.8 153.83 3874.75 153.83 3869.65 153.83 3836.18 79.24 3836.18 79.24 3819.44 0 3819.44 0 3838.59 74.58 3838.59 74.58 3852.91 0 3852.91 0 3872.06 74.58 3872.06 74.58 3874.75 74.58 3886.38 0 3886.38 0 3905.53 79.24 3905.53 79.24 3888.8"/>
      <rect class="cls-1" y="3785.97" width="0" height="19.15"/>
      <rect class="cls-1" x="0" y="3785.97" width="79.24" height="19.15"/>
      <rect class="cls-1" y="3752.5" width="0" height="19.15"/>
      <rect class="cls-1" x="0" y="3752.5" width="79.24" height="19.15"/>
      <rect class="cls-1" y="4153.3" width="0" height="19.15"/>
      <rect class="cls-1" x="0" y="4153.3" width="79.24" height="19.15"/>
      <rect class="cls-1" y="4123.1" width="0" height="19.15"/>
      <rect class="cls-1" x="0" y="4123.1" width="79.24" height="19.15"/>
      <rect class="cls-1" y="4093.25" width="0" height="19.15"/>
      <rect class="cls-1" x="0" y="4093.25" width="79.24" height="19.15"/>
      <rect class="cls-1" x="2447.25" y="4450.91" width="90.9" height="58.34"/>
      <rect class="cls-1" x="2447.25" y="4294.75" width="90.9" height="84.6"/>
      <rect class="cls-1" x="2447.25" y="4138.61" width="90.9" height="84.59"/>
      <rect class="cls-1" x="2447.25" y="3982.45" width="90.9" height="84.6"/>
      <rect class="cls-1" x="2447.25" y="3826.29" width="90.9" height="84.6"/>
      <rect class="cls-1" x="2447.25" y="3670.14" width="90.9" height="84.6"/>
      <rect class="cls-1" x="2447.25" y="3513.98" width="90.9" height="84.6"/>
      <rect class="cls-1" x="2447.25" y="3384.11" width="90.9" height="58.32"/>
      <rect class="cls-1" x="2647.68" y="4367.75" width="79.24" height="30.85"/>
      <rect class="cls-1" x="2647.68" y="4450.91" width="79.24" height="20.87"/>
      <polygon class="cls-1" points="2647.68 4509.24 2652.34 4509.24 2726.93 4509.24 2726.93 4488.37 2652.34 4488.37 2647.68 4488.37 2573.1 4488.37 2573.1 4509.24 2647.68 4509.24"/>
      <rect class="cls-1" x="2647.68" y="4337.54" width="79.24" height="19.15"/>
      <rect class="cls-1" x="2647.68" y="4307.33" width="79.24" height="19.15"/>
      <rect class="cls-1" x="2647.68" y="3579.44" width="79.24" height="19.15"/>
      <rect class="cls-1" x="2647.68" y="3522.74" width="79.24" height="47.46"/>
      <rect class="cls-1" x="2647.68" y="3953.33" width="79.24" height="19.15"/>
      <rect class="cls-1" x="2647.68" y="3919.86" width="79.24" height="19.15"/>
      <polygon class="cls-1" points="2647.68 3403.25 2647.68 3416.77 2573.1 3416.77 2573.1 3435.92 2647.68 3435.92 2647.68 3452.01 2726.93 3452.01 2726.93 3432.86 2652.34 3432.86 2652.34 3420.6 2726.93 3420.6 2726.93 3401.46 2652.34 3401.46 2652.34 3384.11 2573.1 3384.11 2573.1 3403.25 2647.68 3403.25"/>
      <polygon class="cls-1" points="2573.1 3836.18 2573.1 3869.65 2573.1 3874.75 2573.1 3888.8 2647.68 3888.8 2647.68 3905.53 2726.93 3905.53 2726.93 3886.38 2652.34 3886.38 2652.34 3874.75 2652.34 3872.06 2726.93 3872.06 2726.93 3852.91 2652.34 3852.91 2652.34 3838.59 2726.93 3838.59 2726.93 3819.44 2647.68 3819.44 2647.68 3836.18 2573.1 3836.18"/>
      <rect class="cls-1" x="2647.68" y="3785.97" width="79.24" height="19.15"/>
      <rect class="cls-1" x="2647.68" y="3752.5" width="79.24" height="19.15"/>
      <rect class="cls-1" x="2647.68" y="4153.3" width="79.24" height="19.15"/>
      <rect class="cls-1" x="2647.68" y="4123.1" width="79.24" height="19.15"/>
      <rect class="cls-1" x="2647.68" y="4093.25" width="79.24" height="19.15"/>
      <path class="cls-3" d="m2202.47,3357.17h3.1c10.03,0,19.73-.52,28.95-1.46-10.15.94-20.9,1.46-32.04,1.46Z"/>
      <path class="cls-3" d="m521.85,3355.87c8.78.84,17.98,1.29,27.48,1.3h2.84c-10.51,0-20.67-.46-30.32-1.3Z"/>
      <path class="cls-3" d="m515.57,2287.87c11.47-1.23,23.78-1.91,36.6-1.91h1650.3c13.46,0,26.37.74,38.32,2.1-10.94-1.37-22.65-2.14-34.85-2.16H548.95c-11.66.03-22.87.72-33.39,1.98Z"/>
      <polygon class="cls-2" points="74.58 2749.61 74.58 2746.92 0 2746.92 0 2761.24 74.58 2761.24 74.58 2749.61"/>
      <rect class="cls-2" x="0" y="2258.97" width="74.58" height="17.35"/>
      <rect class="cls-2" x="0" y="2713.45" width="74.58" height="14.32"/>
      <rect class="cls-2" x="0" y="2295.46" width="74.58" height="12.26"/>
      <path class="cls-2" d="m2652.34,2276.32h74.58v19.15h-74.58v12.26h74.58v19.15h-79.24v-16.09h-74.58v-19.15h74.58v-13.53h-74.58v-19.14h-34.95v58.32h63.17c21.67,0,39.36,6.48,39.36,14.39v42.8c0,7.91-17.69,14.37-39.36,14.37h-63.17v84.6h63.17c21.67,0,39.36,6.48,39.36,14.37v42.81c0,7.89-17.69,14.37-39.36,14.37h-63.17v84.6h63.17c21.67,0,39.36,6.46,39.36,14.37v42.8c0,7.91-17.69,14.37-39.36,14.37h-63.17v84.6h63.17c21.67,0,39.36,6.48,39.36,14.39v42.8c0,7.89-17.69,14.37-39.36,14.37h-63.17v84.6h63.17c21.67,0,39.36,6.46,39.36,14.37v42.8c0,7.91-17.69,14.39-39.36,14.39h-63.17v84.59h63.17c21.67,0,39.36,6.48,39.36,14.39v42.8c0,7.91-17.69,14.37-39.36,14.37h-63.17v84.6h63.17c21.67,0,39.36,6.46,39.36,14.37v42.8c0,7.91-17.69,14.39-39.36,14.39h-63.17v58.34h34.95s79.24,0,79.24,0h0s74.6,0,74.6,0v-1125.14h-74.6v17.35Zm-4.66,1086.91h79.24v20.87h-153.83v-20.87h74.58Zm79.24-37.46v20.87h-79.24v-20.87h79.24Zm0-83.16v30.85h-79.24v-30.85h79.24Zm0-30.21v19.15h-79.24v-19.15h79.24Zm0-30.21v19.15h-79.24v-19.15h79.24Zm0-154.03v19.15h-79.24v-19.15h79.24Zm0-30.21v19.15h-79.24v-19.15h79.24Zm0-29.85v19.15h-79.24v-19.15h79.24Zm0-139.92v19.15h-79.24v-19.15h79.24Zm0-33.47v19.15h-79.24v-19.15h79.24Zm0-100.41v19.15h-74.58v14.32h74.58v19.15h-74.58v14.32h74.58v19.15h-79.24v-16.74h-74.58v-52.62h74.58v-16.74h79.24Zm0-33.47v19.15h-79.24v-19.15h79.24Zm0-33.47v19.15h-79.24v-19.15h79.24Zm0-173.06v19.15h-79.24v-19.15h79.24Zm0-56.7v47.46h-79.24v-47.46h79.24Z"/>
      <path class="cls-2" d="m279.71,2317.29h62c21.67,0,39.36,6.48,39.36,14.39v42.8c0,7.91-17.69,14.37-39.36,14.37h-62v84.6h62c21.67,0,39.36,6.48,39.36,14.37v42.81c0,7.89-17.69,14.37-39.36,14.37h-62v84.6h62c21.67,0,39.36,6.46,39.36,14.37v42.8c0,7.91-17.69,14.37-39.36,14.37h-62v84.6h62c21.67,0,39.36,6.48,39.36,14.39v42.8c0,7.89-17.69,14.37-39.36,14.37h-62v84.6h62c21.67,0,39.36,6.46,39.36,14.37v42.8c0,7.91-17.69,14.39-39.36,14.39h-62v84.59h62c21.67,0,39.36,6.48,39.36,14.39v42.8c0,7.91-17.69,14.37-39.36,14.37h-62v84.6h62c21.67,0,39.36,6.46,39.36,14.37v42.8c0,7.91-17.69,14.39-39.36,14.39h-62v58.34h2167.54v-58.34h-34.06c-21.67,0-39.36-6.48-39.36-14.39v-42.8c0-7.91,17.69-14.37,39.36-14.37h34.06v-84.6h-34.06c-21.67,0-39.36-6.46-39.36-14.37v-42.8c0-7.91,17.69-14.39,39.36-14.39h34.06v-84.59h-34.06c-21.67,0-39.36-6.48-39.36-14.39v-42.8c0-7.91,17.69-14.37,39.36-14.37h34.06v-84.6h-34.06c-21.67,0-39.36-6.48-39.36-14.37v-42.8c0-7.91,17.69-14.39,39.36-14.39h34.06v-84.6h-34.06c-21.67,0-39.36-6.46-39.36-14.37v-42.8c0-7.91,17.69-14.37,39.36-14.37h34.06v-84.6h-34.06c-21.67,0-39.36-6.48-39.36-14.37v-42.81c0-7.89,17.69-14.37,39.36-14.37h34.06v-84.6h-34.06c-21.67,0-39.36-6.46-39.36-14.37v-42.8c0-7.91,17.69-14.39,39.36-14.39h34.06v-58.32H279.71v58.32Zm1925.57-31.4c.22,0,.44,0,.66,0h86.34c12.21,0,22.11,3.08,22.11,6.88v27.5c0,.17.04.35.04.52v1001.54c0,.17-.03.35-.04.52v27.43c0,3.8-9.9,6.88-22.11,6.88h-86.71c-.1,0-.19,0-.29,0H549.62c-.1,0-.19,0-.29,0h-86.71c-12.21,0-22.11-3.08-22.11-6.88v-25.54c-.18-.8-.3-1.6-.3-2.41v-1001.54c0-.81.12-1.61.3-2.41v-25.61c0-3.8,9.9-6.88,22.11-6.88h86.34c.22,0,.44,0,.66,0h1655.66Z"/>
      <path class="cls-2" d="m74.58,3384.1h79.24s34.98,0,34.98,0v-58.34h-35.23c-21.67,0-39.36-6.48-39.36-14.39v-42.8c0-7.91,17.69-14.37,39.36-14.37h35.23v-84.6h-35.23c-21.67,0-39.36-6.46-39.36-14.37v-42.8c0-7.91,17.69-14.39,39.36-14.39h35.23v-84.59h-35.23c-21.67,0-39.36-6.48-39.36-14.39v-42.8c0-7.91,17.69-14.37,39.36-14.37h35.23v-84.6h-35.23c-21.67,0-39.36-6.48-39.36-14.37v-42.8c0-7.91,17.69-14.39,39.36-14.39h35.23v-84.6h-35.23c-21.67,0-39.36-6.46-39.36-14.37v-42.8c0-7.91,17.69-14.37,39.36-14.37h35.23v-84.6h-35.23c-21.67,0-39.36-6.48-39.36-14.37v-42.81c0-7.89,17.69-14.37,39.36-14.37h35.23v-84.6h-35.23c-21.67,0-39.36-6.46-39.36-14.37v-42.8c0-7.91,17.69-14.39,39.36-14.39h35.23v-58.32h-34.98v19.14h-74.58v13.53h74.58v19.15h-74.58v16.09H0v70.73h79.24v47.46H0v9.25h79.24v19.15H0v153.91h79.24v19.15H0v14.32h79.24v19.15H0v14.32h79.24v16.74h74.58v52.62h-74.58v16.74H0v14.32h79.24v19.15H0v14.32h79.24v19.15H0v120.78h79.24v19.15H0v10.7h79.24v19.15H0v11.06h79.24v19.15H0v134.88h79.24v19.15H0v11.06h79.24v19.15H0v11.06h79.24v30.85H0v52.31h79.24v20.87H0v16.59h153.82v20.87H0s74.58,0,74.58,0h0Z"/>
      <rect class="cls-2" x="74.58" y="3384.1" width="79.24" height="0"/>
      <rect class="cls-2" x="2573.1" y="3384.1" width="79.24" height="0"/>
      <path class="cls-2" d="m440.5,3324.75v25.54c0,3.8,9.9,6.88,22.11,6.88h86.71c-9.49,0-18.7-.46-27.48-1.3-44.7-3.91-78.07-16.22-81.35-31.12Z"/>
      <path class="cls-2" d="m2314.39,2320.27v-27.5c0-3.8-9.9-6.88-22.11-6.88h-86.34c12.2.03,23.92.79,34.85,2.16,42.46,4.81,72.9,17.4,73.6,32.22Z"/>
      <path class="cls-2" d="m515.57,2287.87c10.52-1.26,21.73-1.96,33.39-1.98h-86.34c-12.21,0-22.11,3.08-22.11,6.88v25.61c3.12-14.19,33.54-26.04,75.06-30.51Z"/>
      <path class="cls-2" d="m2234.51,3355.71c-9.22.93-18.92,1.45-28.95,1.46h86.71c12.21,0,22.11-3.08,22.11-6.88v-27.43c-.73,15.54-34.17,28.62-79.88,32.86Z"/>
      <rect class="cls-1" x="188.8" y="3325.77" width="90.9" height="58.34"/>
      <rect class="cls-1" x="188.8" y="3169.61" width="90.9" height="84.6"/>
      <rect class="cls-1" x="188.8" y="3013.47" width="90.9" height="84.59"/>
      <rect class="cls-1" x="188.8" y="2857.31" width="90.9" height="84.6"/>
      <rect class="cls-1" x="188.8" y="2701.15" width="90.9" height="84.6"/>
      <rect class="cls-1" x="188.8" y="2545" width="90.9" height="84.6"/>
      <rect class="cls-1" x="188.8" y="2388.84" width="90.9" height="84.6"/>
      <rect class="cls-1" x="188.8" y="2258.97" width="90.9" height="58.32"/>
      <rect class="cls-1" y="3242.61" width="0" height="30.85"/>
      <rect class="cls-1" x="0" y="3242.61" width="79.24" height="30.85"/>
      <rect class="cls-1" y="3325.76" width="0" height="20.87"/>
      <rect class="cls-1" x="0" y="3325.76" width="79.24" height="20.87"/>
      <rect class="cls-1" y="3363.22" width="0" height="20.87"/>
      <polygon class="cls-1" points="79.24 3384.1 153.83 3384.1 153.83 3363.22 79.24 3363.22 74.58 3363.22 0 3363.22 0 3384.1 74.58 3384.1 79.24 3384.1"/>
      <rect class="cls-1" y="3212.4" width="0" height="19.15"/>
      <rect class="cls-1" x="0" y="3212.4" width="79.24" height="19.15"/>
      <rect class="cls-1" y="3182.19" width="0" height="19.15"/>
      <rect class="cls-1" x="0" y="3182.19" width="79.24" height="19.15"/>
      <rect class="cls-1" y="2454.3" width="0" height="19.15"/>
      <rect class="cls-1" x="0" y="2454.3" width="79.24" height="19.15"/>
      <rect class="cls-1" y="2397.6" width="0" height="47.46"/>
      <rect class="cls-1" x="0" y="2397.6" width="79.24" height="47.46"/>
      <rect class="cls-1" y="2828.19" width="0" height="19.15"/>
      <rect class="cls-1" x="0" y="2828.19" width="79.24" height="19.15"/>
      <rect class="cls-1" y="2794.72" width="0" height="19.15"/>
      <rect class="cls-1" x="0" y="2794.72" width="79.24" height="19.15"/>
      <rect class="cls-1" y="2276.32" width="0" height="19.15"/>
      <rect class="cls-1" y="2307.72" width="0" height="19.15"/>
      <polygon class="cls-1" points="79.24 2310.78 153.83 2310.78 153.83 2291.63 79.24 2291.63 79.24 2278.11 153.83 2278.11 153.83 2258.97 74.58 2258.97 74.58 2276.32 0 2276.32 0 2295.46 74.58 2295.46 74.58 2307.72 0 2307.72 0 2326.87 79.24 2326.87 79.24 2310.78"/>
      <rect class="cls-1" y="2727.77" width="0" height="19.15"/>
      <rect class="cls-1" y="2761.24" width="0" height="19.15"/>
      <rect class="cls-1" y="2694.3" width="0" height="19.15"/>
      <polygon class="cls-1" points="79.24 2763.66 153.83 2763.66 153.83 2749.61 153.83 2744.51 153.83 2711.04 79.24 2711.04 79.24 2694.3 0 2694.3 0 2713.45 74.58 2713.45 74.58 2727.77 0 2727.77 0 2746.92 74.58 2746.92 74.58 2749.61 74.58 2761.24 0 2761.24 0 2780.39 79.24 2780.39 79.24 2763.66"/>
      <rect class="cls-1" y="2660.83" width="0" height="19.15"/>
      <rect class="cls-1" x="0" y="2660.83" width="79.24" height="19.15"/>
      <rect class="cls-1" y="2627.36" width="0" height="19.15"/>
      <rect class="cls-1" x="0" y="2627.36" width="79.24" height="19.15"/>
      <rect class="cls-1" y="3028.16" width="0" height="19.15"/>
      <rect class="cls-1" x="0" y="3028.16" width="79.24" height="19.15"/>
      <rect class="cls-1" y="2997.95" width="0" height="19.15"/>
      <rect class="cls-1" x="0" y="2997.95" width="79.24" height="19.15"/>
      <rect class="cls-1" y="2968.11" width="0" height="19.15"/>
      <rect class="cls-1" x="0" y="2968.11" width="79.24" height="19.15"/>
      <rect class="cls-1" x="2447.25" y="3325.77" width="90.9" height="58.34"/>
      <rect class="cls-1" x="2447.25" y="3169.61" width="90.9" height="84.6"/>
      <rect class="cls-1" x="2447.25" y="3013.47" width="90.9" height="84.59"/>
      <rect class="cls-1" x="2447.25" y="2857.31" width="90.9" height="84.6"/>
      <rect class="cls-1" x="2447.25" y="2701.15" width="90.9" height="84.6"/>
      <rect class="cls-1" x="2447.25" y="2545" width="90.9" height="84.6"/>
      <rect class="cls-1" x="2447.25" y="2388.84" width="90.9" height="84.6"/>
      <rect class="cls-1" x="2447.25" y="2258.97" width="90.9" height="58.32"/>
      <rect class="cls-1" x="2647.68" y="3242.61" width="79.24" height="30.85"/>
      <rect class="cls-1" x="2647.68" y="3325.76" width="79.24" height="20.87"/>
      <polygon class="cls-1" points="2647.68 3384.1 2652.34 3384.1 2726.93 3384.1 2726.93 3363.22 2652.34 3363.22 2647.68 3363.22 2573.1 3363.22 2573.1 3384.1 2647.68 3384.1"/>
      <rect class="cls-1" x="2647.68" y="3212.4" width="79.24" height="19.15"/>
      <rect class="cls-1" x="2647.68" y="3182.19" width="79.24" height="19.15"/>
      <rect class="cls-1" x="2647.68" y="2454.3" width="79.24" height="19.15"/>
      <rect class="cls-1" x="2647.68" y="2397.6" width="79.24" height="47.46"/>
      <rect class="cls-1" x="2647.68" y="2828.19" width="79.24" height="19.15"/>
      <rect class="cls-1" x="2647.68" y="2794.72" width="79.24" height="19.15"/>
      <polygon class="cls-1" points="2647.68 2278.11 2647.68 2291.63 2573.1 2291.63 2573.1 2310.78 2647.68 2310.78 2647.68 2326.87 2726.93 2326.87 2726.93 2307.72 2652.34 2307.72 2652.34 2295.46 2726.93 2295.46 2726.93 2276.32 2652.34 2276.32 2652.34 2258.97 2573.1 2258.97 2573.1 2278.11 2647.68 2278.11"/>
      <polygon class="cls-1" points="2573.1 2711.04 2573.1 2744.51 2573.1 2749.61 2573.1 2763.66 2647.68 2763.66 2647.68 2780.39 2726.93 2780.39 2726.93 2761.24 2652.34 2761.24 2652.34 2749.61 2652.34 2746.92 2726.93 2746.92 2726.93 2727.77 2652.34 2727.77 2652.34 2713.45 2726.93 2713.45 2726.93 2694.3 2647.68 2694.3 2647.68 2711.04 2573.1 2711.04"/>
      <rect class="cls-1" x="2647.68" y="2660.83" width="79.24" height="19.15"/>
      <rect class="cls-1" x="2647.68" y="2627.36" width="79.24" height="19.15"/>
      <rect class="cls-1" x="2647.68" y="3028.16" width="79.24" height="19.15"/>
      <rect class="cls-1" x="2647.68" y="2997.95" width="79.24" height="19.15"/>
      <rect class="cls-1" x="2647.68" y="2968.11" width="79.24" height="19.15"/>
      <path class="cls-3" d="m552.47,1161.08h1649.95c19.76,0,38.3,1.6,54.42,4.39-15.17-2.98-32.5-4.68-50.9-4.72H548.95c-18.47.04-35.86,1.75-51.07,4.75,16.15-2.81,34.76-4.42,54.59-4.42Z"/>
      <rect class="cls-2" x="0" y="1170.32" width="74.58" height="12.26"/>
      <path class="cls-2" d="m341.7,1192.15c21.67,0,39.36,6.48,39.36,14.39v42.8c0,7.91-17.69,14.37-39.36,14.37h-62v84.6h62c21.67,0,39.36,6.48,39.36,14.37v42.81c0,7.89-17.69,14.37-39.36,14.37h-62v84.6h62c21.67,0,39.36,6.46,39.36,14.37v42.8c0,7.91-17.69,14.37-39.36,14.37h-62v84.6h62c21.67,0,39.36,6.48,39.36,14.39v42.8c0,7.89-17.69,14.37-39.36,14.37h-62v84.6h62c21.67,0,39.36,6.46,39.36,14.37v42.8c0,7.91-17.69,14.39-39.36,14.39h-62v84.59h62c21.67,0,39.36,6.48,39.36,14.39v42.8c0,7.91-17.69,14.37-39.36,14.37h-62v84.6h62c21.67,0,39.36,6.46,39.36,14.37v42.8c0,7.91-17.69,14.39-39.36,14.39h-62v58.34h2167.54v-58.34h-34.06c-21.67,0-39.36-6.48-39.36-14.39v-42.8c0-7.91,17.69-14.37,39.36-14.37h34.06v-84.6h-34.06c-21.67,0-39.36-6.46-39.36-14.37v-42.8c0-7.91,17.69-14.39,39.36-14.39h34.06v-84.59h-34.06c-21.67,0-39.36-6.48-39.36-14.39v-42.8c0-7.91,17.69-14.37,39.36-14.37h34.06v-84.6h-34.06c-21.67,0-39.36-6.48-39.36-14.37v-42.8c0-7.91,17.69-14.39,39.36-14.39h34.06v-84.6h-34.06c-21.67,0-39.36-6.46-39.36-14.37v-42.8c0-7.91,17.69-14.37,39.36-14.37h34.06v-84.6h-34.06c-21.67,0-39.36-6.48-39.36-14.37v-42.81c0-7.89,17.69-14.37,39.36-14.37h34.06v-84.6h-34.06c-21.67,0-39.36-6.46-39.36-14.37v-42.8c0-7.91,17.69-14.39,39.36-14.39h34.06v-58.32H279.71v58.32h62Zm120.91-31.4h86.33c.22,0,.44,0,.67,0h1655.66c.22,0,.44,0,.67,0h86.33c12.21,0,22.11,3.08,22.11,6.88v1057.52c0,3.8-9.9,6.88-22.11,6.88h-76.4c-4.41.16-8.89.26-13.45.26H552.47c-4.55,0-9.04-.09-13.45-.26h-76.41c-12.21,0-22.11-3.08-22.11-6.88v-1057.52c0-3.8,9.9-6.88,22.11-6.88Z"/>
      <rect class="cls-2" x="0" y="1588.31" width="74.58" height="14.32"/>
      <polygon class="cls-2" points="74.58 1624.47 74.58 1621.78 0 1621.78 0 1636.1 74.58 1636.1 74.58 1624.47"/>
      <path class="cls-2" d="m74.58,2258.96h79.24s34.98,0,34.98,0v-58.34h-35.23c-21.67,0-39.36-6.48-39.36-14.39v-42.8c0-7.91,17.69-14.37,39.36-14.37h35.23v-84.6h-35.23c-21.67,0-39.36-6.46-39.36-14.37v-42.8c0-7.91,17.69-14.39,39.36-14.39h35.23v-84.59h-35.23c-21.67,0-39.36-6.48-39.36-14.39v-42.8c0-7.91,17.69-14.37,39.36-14.37h35.23v-84.6h-35.23c-21.67,0-39.36-6.48-39.36-14.37v-42.8c0-7.91,17.69-14.39,39.36-14.39h35.23v-84.6h-35.23c-21.67,0-39.36-6.46-39.36-14.37v-42.8c0-7.91,17.69-14.37,39.36-14.37h35.23v-84.6h-35.23c-21.67,0-39.36-6.48-39.36-14.37v-42.81c0-7.89,17.69-14.37,39.36-14.37h35.23v-84.6h-35.23c-21.67,0-39.36-6.46-39.36-14.37v-42.8c0-7.91,17.69-14.39,39.36-14.39h35.23v-58.32h-34.98v19.14h-74.58v13.53h74.58v19.15h-74.58v16.09H0v70.73h79.24v47.46H0v9.25h79.24v19.15H0v153.91h79.24v19.15H0v14.32h79.24v19.15H0v14.32h79.24v16.74h74.58v52.62h-74.58v16.74H0v14.32h79.24v19.15H0v14.32h79.24v19.15H0v120.78h79.24v19.15H0v10.7h79.24v19.15H0v11.06h79.24v19.15H0v134.88h79.24v19.15H0v11.06h79.24v19.15H0v11.06h79.24v30.85H0v52.31h79.24v20.87H0v16.59h153.82v20.87H0s74.58,0,74.58,0h0Z"/>
      <rect class="cls-2" x="0" y="1133.83" width="74.58" height="17.35"/>
      <path class="cls-2" d="m2652.34,1151.18h74.58v19.15h-74.58v12.26h74.58v19.15h-79.24v-16.09h-74.58v-19.15h74.58v-13.53h-74.58v-19.14h-34.95v58.32h63.17c21.67,0,39.36,6.48,39.36,14.39v42.8c0,7.91-17.69,14.37-39.36,14.37h-63.17v84.6h63.17c21.67,0,39.36,6.48,39.36,14.37v42.81c0,7.89-17.69,14.37-39.36,14.37h-63.17v84.6h63.17c21.67,0,39.36,6.46,39.36,14.37v42.8c0,7.91-17.69,14.37-39.36,14.37h-63.17v84.6h63.17c21.67,0,39.36,6.48,39.36,14.39v42.8c0,7.89-17.69,14.37-39.36,14.37h-63.17v84.6h63.17c21.67,0,39.36,6.46,39.36,14.37v42.8c0,7.91-17.69,14.39-39.36,14.39h-63.17v84.59h63.17c21.67,0,39.36,6.48,39.36,14.39v42.8c0,7.91-17.69,14.37-39.36,14.37h-63.17v84.6h63.17c21.67,0,39.36,6.46,39.36,14.37v42.8c0,7.91-17.69,14.39-39.36,14.39h-63.17v58.34h34.95s79.24,0,79.24,0h0s74.6,0,74.6,0v-1125.14h-74.6v17.35Zm-4.66,1086.91h79.24v20.87h-153.83v-20.87h74.58Zm79.24-37.46v20.87h-79.24v-20.87h79.24Zm0-83.16v30.85h-79.24v-30.85h79.24Zm0-30.21v19.15h-79.24v-19.15h79.24Zm0-30.21v19.15h-79.24v-19.15h79.24Zm0-154.03v19.15h-79.24v-19.15h79.24Zm0-30.21v19.15h-79.24v-19.15h79.24Zm0-29.85v19.15h-79.24v-19.15h79.24Zm0-139.92v19.15h-79.24v-19.15h79.24Zm0-33.47v19.15h-79.24v-19.15h79.24Zm0-100.41v19.15h-74.58v14.32h74.58v19.15h-74.58v14.32h74.58v19.15h-79.24v-16.74h-74.58v-52.62h74.58v-16.74h79.24Zm0-33.47v19.15h-79.24v-19.15h79.24Zm0-33.47v19.15h-79.24v-19.15h79.24Zm0-173.06v19.15h-79.24v-19.15h79.24Zm0-56.7v47.46h-79.24v-47.46h79.24Z"/>
      <rect class="cls-2" x="74.58" y="2258.96" width="79.24" height="0"/>
      <rect class="cls-2" x="2573.1" y="2258.96" width="79.24" height="0"/>
      <path class="cls-2" d="m462.62,2232.03h76.41c-55.49-2.07-98.52-16.75-98.52-34.58v-1001.54c0-13.07,23.15-24.45,57.37-30.41,15.21-3,32.6-4.71,51.07-4.75h-86.33c-12.21,0-22.11,3.08-22.11,6.88v1057.52c0,3.8,9.9,6.88,22.11,6.88Z"/>
      <path class="cls-2" d="m2314.39,1195.91v-28.28c0-3.8-9.9-6.88-22.11-6.88h-86.33c18.41.04,35.73,1.74,50.9,4.72,34.32,5.95,57.55,17.35,57.55,30.44Z"/>
      <path class="cls-2" d="m2215.88,2232.03h76.4c12.21,0,22.11-3.08,22.11-6.88v-27.7c0,17.82-43.03,32.51-98.52,34.58Z"/>
      <rect class="cls-1" x="188.8" y="2200.63" width="90.9" height="58.34"/>
      <rect class="cls-1" x="188.8" y="2044.47" width="90.9" height="84.6"/>
      <rect class="cls-1" x="188.8" y="1888.33" width="90.9" height="84.59"/>
      <rect class="cls-1" x="188.8" y="1732.16" width="90.9" height="84.6"/>
      <rect class="cls-1" x="188.8" y="1576" width="90.9" height="84.6"/>
      <rect class="cls-1" x="188.8" y="1419.86" width="90.9" height="84.6"/>
      <rect class="cls-1" x="188.8" y="1263.7" width="90.9" height="84.6"/>
      <rect class="cls-1" x="188.8" y="1133.83" width="90.9" height="58.32"/>
      <rect class="cls-1" y="2117.47" width="0" height="30.85"/>
      <rect class="cls-1" x="0" y="2117.47" width="79.24" height="30.85"/>
      <rect class="cls-1" y="2200.62" width="0" height="20.87"/>
      <rect class="cls-1" x="0" y="2200.62" width="79.24" height="20.87"/>
      <rect class="cls-1" y="2238.08" width="0" height="20.87"/>
      <polygon class="cls-1" points="79.24 2258.96 153.83 2258.96 153.83 2238.08 79.24 2238.08 74.58 2238.08 0 2238.08 0 2258.96 74.58 2258.96 79.24 2258.96"/>
      <rect class="cls-1" y="2087.26" width="0" height="19.15"/>
      <rect class="cls-1" x="0" y="2087.26" width="79.24" height="19.15"/>
      <rect class="cls-1" y="2057.05" width="0" height="19.15"/>
      <rect class="cls-1" x="0" y="2057.05" width="79.24" height="19.15"/>
      <rect class="cls-1" y="1329.16" width="0" height="19.15"/>
      <rect class="cls-1" x="0" y="1329.16" width="79.24" height="19.15"/>
      <rect class="cls-1" y="1272.46" width="0" height="47.46"/>
      <rect class="cls-1" x="0" y="1272.46" width="79.24" height="47.46"/>
      <rect class="cls-1" y="1703.05" width="0" height="19.15"/>
      <rect class="cls-1" x="0" y="1703.05" width="79.24" height="19.15"/>
      <rect class="cls-1" y="1669.57" width="0" height="19.15"/>
      <rect class="cls-1" x="0" y="1669.57" width="79.24" height="19.15"/>
      <rect class="cls-1" y="1151.18" width="0" height="19.15"/>
      <rect class="cls-1" y="1182.58" width="0" height="19.15"/>
      <polygon class="cls-1" points="79.24 1185.64 153.83 1185.64 153.83 1166.49 79.24 1166.49 79.24 1152.97 153.83 1152.97 153.83 1133.83 74.58 1133.83 74.58 1151.18 0 1151.18 0 1170.32 74.58 1170.32 74.58 1182.58 0 1182.58 0 1201.73 79.24 1201.73 79.24 1185.64"/>
      <rect class="cls-1" y="1636.1" width="0" height="19.15"/>
      <rect class="cls-1" y="1602.63" width="0" height="19.15"/>
      <rect class="cls-1" y="1569.16" width="0" height="19.15"/>
      <polygon class="cls-1" points="79.24 1638.51 153.83 1638.51 153.83 1624.47 153.83 1619.37 153.83 1585.9 79.24 1585.9 79.24 1569.16 0 1569.16 0 1588.31 74.58 1588.31 74.58 1602.63 0 1602.63 0 1621.78 74.58 1621.78 74.58 1624.47 74.58 1636.1 0 1636.1 0 1655.25 79.24 1655.25 79.24 1638.51"/>
      <rect class="cls-1" y="1535.69" width="0" height="19.15"/>
      <rect class="cls-1" x="0" y="1535.69" width="79.24" height="19.15"/>
      <rect class="cls-1" y="1502.22" width="0" height="19.15"/>
      <rect class="cls-1" x="0" y="1502.22" width="79.24" height="19.15"/>
      <rect class="cls-1" y="1903.02" width="0" height="19.15"/>
      <rect class="cls-1" x="0" y="1903.02" width="79.24" height="19.15"/>
      <rect class="cls-1" y="1872.81" width="0" height="19.15"/>
      <rect class="cls-1" x="0" y="1872.81" width="79.24" height="19.15"/>
      <rect class="cls-1" y="1842.97" width="0" height="19.15"/>
      <rect class="cls-1" x="0" y="1842.97" width="79.24" height="19.15"/>
      <rect class="cls-1" x="2447.25" y="2200.63" width="90.9" height="58.34"/>
      <rect class="cls-1" x="2447.25" y="2044.47" width="90.9" height="84.6"/>
      <rect class="cls-1" x="2447.25" y="1888.33" width="90.9" height="84.59"/>
      <rect class="cls-1" x="2447.25" y="1732.16" width="90.9" height="84.6"/>
      <rect class="cls-1" x="2447.25" y="1576" width="90.9" height="84.6"/>
      <rect class="cls-1" x="2447.25" y="1419.86" width="90.9" height="84.6"/>
      <rect class="cls-1" x="2447.25" y="1263.7" width="90.9" height="84.6"/>
      <rect class="cls-1" x="2447.25" y="1133.83" width="90.9" height="58.32"/>
      <rect class="cls-1" x="2647.68" y="2117.47" width="79.24" height="30.85"/>
      <rect class="cls-1" x="2647.68" y="2200.62" width="79.24" height="20.87"/>
      <polygon class="cls-1" points="2647.68 2258.96 2652.34 2258.96 2726.93 2258.96 2726.93 2238.08 2652.34 2238.08 2647.68 2238.08 2573.1 2238.08 2573.1 2258.96 2647.68 2258.96"/>
      <rect class="cls-1" x="2647.68" y="2087.26" width="79.24" height="19.15"/>
      <rect class="cls-1" x="2647.68" y="2057.05" width="79.24" height="19.15"/>
      <rect class="cls-1" x="2647.68" y="1329.16" width="79.24" height="19.15"/>
      <rect class="cls-1" x="2647.68" y="1272.46" width="79.24" height="47.46"/>
      <rect class="cls-1" x="2647.68" y="1703.05" width="79.24" height="19.15"/>
      <rect class="cls-1" x="2647.68" y="1669.57" width="79.24" height="19.15"/>
      <polygon class="cls-1" points="2647.68 1152.97 2647.68 1166.49 2573.1 1166.49 2573.1 1185.64 2647.68 1185.64 2647.68 1201.73 2726.93 1201.73 2726.93 1182.58 2652.34 1182.58 2652.34 1170.32 2726.93 1170.32 2726.93 1151.18 2652.34 1151.18 2652.34 1133.83 2573.1 1133.83 2573.1 1152.97 2647.68 1152.97"/>
      <polygon class="cls-1" points="2573.1 1585.9 2573.1 1619.37 2573.1 1624.47 2573.1 1638.51 2647.68 1638.51 2647.68 1655.25 2726.93 1655.25 2726.93 1636.1 2652.34 1636.1 2652.34 1624.47 2652.34 1621.78 2726.93 1621.78 2726.93 1602.63 2652.34 1602.63 2652.34 1588.31 2726.93 1588.31 2726.93 1569.16 2647.68 1569.16 2647.68 1585.9 2573.1 1585.9"/>
      <rect class="cls-1" x="2647.68" y="1535.69" width="79.24" height="19.15"/>
      <rect class="cls-1" x="2647.68" y="1502.22" width="79.24" height="19.15"/>
      <rect class="cls-1" x="2647.68" y="1903.02" width="79.24" height="19.15"/>
      <rect class="cls-1" x="2647.68" y="1872.81" width="79.24" height="19.15"/>
      <rect class="cls-1" x="2647.68" y="1842.97" width="79.24" height="19.15"/>
      <path class="cls-3" d="m551.51,36.19h1650.91c23.94,0,46.11,2.35,64.31,6.33-17.33-4.32-38.25-6.87-60.79-6.91H548.95c-19.7.04-38.14,2-54.05,5.37,16.61-3.04,35.95-4.78,56.61-4.78Z"/>
      <rect class="cls-2" x="0" y="8.68" width="74.58" height="17.35"/>
      <rect class="cls-2" x="0" y="45.18" width="74.58" height="12.26"/>
      <path class="cls-2" d="m341.7,67.01c21.67,0,39.36,6.48,39.36,14.39v42.8c0,7.91-17.69,14.37-39.36,14.37h-62v84.6h62c21.67,0,39.36,6.48,39.36,14.37v42.81c0,7.89-17.69,14.37-39.36,14.37h-62v84.6h62c21.67,0,39.36,6.46,39.36,14.37v42.8c0,7.91-17.69,14.37-39.36,14.37h-62v84.6h62c21.67,0,39.36,6.48,39.36,14.39v42.8c0,7.89-17.69,14.37-39.36,14.37h-62v84.6h62c21.67,0,39.36,6.46,39.36,14.37v42.8c0,7.91-17.69,14.39-39.36,14.39h-62v84.59h62c21.67,0,39.36,6.48,39.36,14.39v42.8c0,7.91-17.69,14.37-39.36,14.37h-62v84.6h62c21.67,0,39.36,6.46,39.36,14.37v42.8c0,7.91-17.69,14.39-39.36,14.39h-62v58.34h2167.54v-58.34h-34.06c-21.67,0-39.36-6.48-39.36-14.39v-42.8c0-7.91,17.69-14.37,39.36-14.37h34.06v-84.6h-34.06c-21.67,0-39.36-6.46-39.36-14.37v-42.8c0-7.91,17.69-14.39,39.36-14.39h34.06v-84.59h-34.06c-21.67,0-39.36-6.48-39.36-14.39v-42.8c0-7.91,17.69-14.37,39.36-14.37h34.06v-84.6h-34.06c-21.67,0-39.36-6.48-39.36-14.37v-42.8c0-7.91,17.69-14.39,39.36-14.39h34.06v-84.6h-34.06c-21.67,0-39.36-6.46-39.36-14.37v-42.8c0-7.91,17.69-14.37,39.36-14.37h34.06v-84.6h-34.06c-21.67,0-39.36-6.48-39.36-14.37v-42.81c0-7.89,17.69-14.37,39.36-14.37h34.06v-84.6h-34.06c-21.67,0-39.36-6.46-39.36-14.37v-42.8c0-7.91,17.69-14.39,39.36-14.39h34.06V8.68H279.71v58.32h62Zm120.91-31.4h86.34c.22,0,.44,0,.66,0h1655.66c.22,0,.44,0,.66,0h86.34c12.21,0,22.11,3.08,22.11,6.88v1057.52c0,3.8-9.9,6.88-22.11,6.88h-70.71c-6.23.33-12.62.52-19.15.52H551.51c-6.53,0-12.92-.18-19.15-.52h-69.74c-12.21,0-22.11-3.08-22.11-6.88v-22.94c-.61-1.47-.96-2.97-.96-4.49V71.03c0-1.52.35-3.02.96-4.49v-24.05c0-3.8,9.9-6.88,22.11-6.88Z"/>
      <path class="cls-2" d="m2652.34,26.03h74.58v19.15h-74.58v12.26h74.58v19.15h-79.24v-16.09h-74.58v-19.15h74.58v-13.53h-74.58V8.68h-34.95v58.32h63.17c21.67,0,39.36,6.48,39.36,14.39v42.8c0,7.91-17.69,14.37-39.36,14.37h-63.17v84.6h63.17c21.67,0,39.36,6.48,39.36,14.37v42.81c0,7.89-17.69,14.37-39.36,14.37h-63.17v84.6h63.17c21.67,0,39.36,6.46,39.36,14.37v42.8c0,7.91-17.69,14.37-39.36,14.37h-63.17v84.6h63.17c21.67,0,39.36,6.48,39.36,14.39v42.8c0,7.89-17.69,14.37-39.36,14.37h-63.17v84.6h63.17c21.67,0,39.36,6.46,39.36,14.37v42.8c0,7.91-17.69,14.39-39.36,14.39h-63.17v84.59h63.17c21.67,0,39.36,6.48,39.36,14.39v42.8c0,7.91-17.69,14.37-39.36,14.37h-63.17v84.6h63.17c21.67,0,39.36,6.46,39.36,14.37v42.8c0,7.91-17.69,14.39-39.36,14.39h-63.17v58.34h34.95s79.24,0,79.24,0h0s74.6,0,74.6,0V8.68h-74.6v17.35Zm-4.66,1086.91h79.24v20.87h-153.83v-20.87h74.58Zm79.24-37.46v20.87h-79.24v-20.87h79.24Zm0-83.16v30.85h-79.24v-30.85h79.24Zm0-30.21v19.15h-79.24v-19.15h79.24Zm0-30.21v19.15h-79.24v-19.15h79.24Zm0-154.03v19.15h-79.24v-19.15h79.24Zm0-30.21v19.15h-79.24v-19.15h79.24Zm0-29.85v19.15h-79.24v-19.15h79.24Zm0-139.92v19.15h-79.24v-19.15h79.24Zm0-33.47v19.15h-79.24v-19.15h79.24Zm0-100.41v19.15h-74.58v14.32h74.58v19.15h-74.58v14.32h74.58v19.15h-79.24v-16.74h-74.58v-52.62h74.58v-16.74h79.24Zm0-33.47v19.15h-79.24v-19.15h79.24Zm0-33.47v19.15h-79.24v-19.15h79.24Zm0-173.06v19.15h-79.24v-19.15h79.24Zm0-56.7v47.46h-79.24v-47.46h79.24Z"/>
      <path class="cls-2" d="m74.58,1133.82h79.24s34.98,0,34.98,0v-58.34h-35.23c-21.67,0-39.36-6.48-39.36-14.39v-42.8c0-7.91,17.69-14.37,39.36-14.37h35.23v-84.6h-35.23c-21.67,0-39.36-6.46-39.36-14.37v-42.8c0-7.91,17.69-14.39,39.36-14.39h35.23v-84.59h-35.23c-21.67,0-39.36-6.48-39.36-14.39v-42.8c0-7.91,17.69-14.37,39.36-14.37h35.23v-84.6h-35.23c-21.67,0-39.36-6.48-39.36-14.37v-42.8c0-7.91,17.69-14.39,39.36-14.39h35.23v-84.6h-35.23c-21.67,0-39.36-6.46-39.36-14.37v-42.8c0-7.91,17.69-14.37,39.36-14.37h35.23v-84.6h-35.23c-21.67,0-39.36-6.48-39.36-14.37v-42.81c0-7.89,17.69-14.37,39.36-14.37h35.23v-84.6h-35.23c-21.67,0-39.36-6.46-39.36-14.37v-42.8c0-7.91,17.69-14.39,39.36-14.39h35.23V8.68h-34.98v19.14h-74.58v13.53h74.58v19.15h-74.58v16.09H0v70.73h79.24v47.46H0v9.25h79.24v19.15H0v153.91h79.24v19.15H0v14.32h79.24v19.15H0v14.32h79.24v16.74h74.58v52.62h-74.58v16.74H0v14.32h79.24v19.15H0v14.32h79.24v19.15H0v120.78h79.24v19.15H0v10.7h79.24v19.15H0v11.06h79.24v19.15H0v134.88h79.24v19.15H0v11.06h79.24v19.15H0v11.06h79.24v30.85H0v52.31h79.24v20.87H0v16.59h153.82v20.87H0s74.58,0,74.58,0h0Z"/>
      <rect class="cls-2" x="0" y="463.17" width="74.58" height="14.32"/>
      <polygon class="cls-2" points="74.58 499.33 74.58 496.64 0 496.64 0 510.96 74.58 510.96 74.58 499.33"/>
      <rect class="cls-2" x="74.58" y="1133.82" width="79.24" height="0"/>
      <rect class="cls-2" x="2573.1" y="1133.82" width="79.24" height="0"/>
      <path class="cls-2" d="m2314.38,71.03v1001.54c0,17.21-40.11,31.49-92.81,34.32h70.71c12.21,0,22.11-3.08,22.11-6.88V42.49c0-3.8-9.9-6.88-22.11-6.88h-86.34c22.54.05,43.46,2.59,60.79,6.91,28.81,6.3,47.65,16.72,47.65,28.51Z"/>
      <path class="cls-2" d="m494.9,40.98c15.91-3.37,34.35-5.33,54.05-5.37h-86.34c-12.21,0-22.11,3.08-22.11,6.88v24.05c4.52-10.91,25.22-20.23,54.4-25.56Z"/>
      <path class="cls-2" d="m440.5,1077.06v22.94c0,3.8,9.9,6.88,22.11,6.88h69.74c-48.04-2.58-85.58-14.67-91.86-29.82Z"/>
      <rect class="cls-1" x="188.8" y="1075.49" width="90.9" height="58.34"/>
      <rect class="cls-1" x="188.8" y="919.33" width="90.9" height="84.6"/>
      <rect class="cls-1" x="188.8" y="763.18" width="90.9" height="84.59"/>
      <rect class="cls-1" x="188.8" y="607.02" width="90.9" height="84.6"/>
      <rect class="cls-1" x="188.8" y="450.86" width="90.9" height="84.6"/>
      <rect class="cls-1" x="188.8" y="294.72" width="90.9" height="84.6"/>
      <rect class="cls-1" x="188.8" y="138.56" width="90.9" height="84.6"/>
      <rect class="cls-1" x="188.8" y="8.68" width="90.9" height="58.32"/>
      <rect class="cls-1" y="992.33" width="0" height="30.85"/>
      <rect class="cls-1" x="0" y="992.33" width="79.24" height="30.85"/>
      <rect class="cls-1" y="1075.48" width="0" height="20.87"/>
      <rect class="cls-1" x="0" y="1075.48" width="79.24" height="20.87"/>
      <rect class="cls-1" y="1112.94" width="0" height="20.87"/>
      <polygon class="cls-1" points="79.24 1133.82 153.83 1133.82 153.83 1112.94 79.24 1112.94 74.58 1112.94 0 1112.94 0 1133.82 74.58 1133.82 79.24 1133.82"/>
      <rect class="cls-1" y="962.12" width="0" height="19.15"/>
      <rect class="cls-1" x="0" y="962.12" width="79.24" height="19.15"/>
      <rect class="cls-1" y="931.91" width="0" height="19.15"/>
      <rect class="cls-1" x="0" y="931.91" width="79.24" height="19.15"/>
      <rect class="cls-1" y="204.02" width="0" height="19.15"/>
      <rect class="cls-1" x="0" y="204.02" width="79.24" height="19.15"/>
      <rect class="cls-1" y="147.32" width="0" height="47.46"/>
      <rect class="cls-1" x="0" y="147.32" width="79.24" height="47.46"/>
      <rect class="cls-1" y="577.9" width="0" height="19.15"/>
      <rect class="cls-1" x="0" y="577.9" width="79.24" height="19.15"/>
      <rect class="cls-1" y="544.43" width="0" height="19.15"/>
      <rect class="cls-1" x="0" y="544.43" width="79.24" height="19.15"/>
      <rect class="cls-1" y="26.03" width="0" height="19.15"/>
      <rect class="cls-1" y="57.44" width="0" height="19.15"/>
      <polygon class="cls-1" points="79.24 60.5 153.83 60.5 153.83 41.35 79.24 41.35 79.24 27.83 153.83 27.83 153.83 8.68 74.58 8.68 74.58 26.03 0 26.03 0 45.18 74.58 45.18 74.58 57.44 0 57.44 0 76.59 79.24 76.59 79.24 60.5"/>
      <rect class="cls-1" y="444.02" width="0" height="19.15"/>
      <rect class="cls-1" y="477.49" width="0" height="19.15"/>
      <rect class="cls-1" y="510.96" width="0" height="19.15"/>
      <polygon class="cls-1" points="79.24 513.37 153.83 513.37 153.83 499.33 153.83 494.23 153.83 460.75 79.24 460.75 79.24 444.02 0 444.02 0 463.17 74.58 463.17 74.58 477.49 0 477.49 0 496.64 74.58 496.64 74.58 499.33 74.58 510.96 0 510.96 0 530.11 79.24 530.11 79.24 513.37"/>
      <rect class="cls-1" y="410.55" width="0" height="19.15"/>
      <rect class="cls-1" x="0" y="410.55" width="79.24" height="19.15"/>
      <rect class="cls-1" y="377.08" width="0" height="19.15"/>
      <rect class="cls-1" x="0" y="377.08" width="79.24" height="19.15"/>
      <rect class="cls-1" y="777.88" width="0" height="19.15"/>
      <rect class="cls-1" x="0" y="777.88" width="79.24" height="19.15"/>
      <rect class="cls-1" y="747.67" width="0" height="19.15"/>
      <rect class="cls-1" x="0" y="747.67" width="79.24" height="19.15"/>
      <rect class="cls-1" y="717.83" width="0" height="19.15"/>
      <rect class="cls-1" x="0" y="717.83" width="79.24" height="19.15"/>
      <rect class="cls-1" x="2447.25" y="1075.49" width="90.9" height="58.34"/>
      <rect class="cls-1" x="2447.25" y="919.33" width="90.9" height="84.6"/>
      <rect class="cls-1" x="2447.25" y="763.18" width="90.9" height="84.59"/>
      <rect class="cls-1" x="2447.25" y="607.02" width="90.9" height="84.6"/>
      <rect class="cls-1" x="2447.25" y="450.86" width="90.9" height="84.6"/>
      <rect class="cls-1" x="2447.25" y="294.72" width="90.9" height="84.6"/>
      <rect class="cls-1" x="2447.25" y="138.56" width="90.9" height="84.6"/>
      <rect class="cls-1" x="2447.25" y="8.68" width="90.9" height="58.32"/>
      <rect class="cls-1" x="2647.68" y="992.33" width="79.24" height="30.85"/>
      <rect class="cls-1" x="2647.68" y="1075.48" width="79.24" height="20.87"/>
      <polygon class="cls-1" points="2647.68 1133.82 2652.34 1133.82 2726.93 1133.82 2726.93 1112.94 2652.34 1112.94 2647.68 1112.94 2573.1 1112.94 2573.1 1133.82 2647.68 1133.82"/>
      <rect class="cls-1" x="2647.68" y="962.12" width="79.24" height="19.15"/>
      <rect class="cls-1" x="2647.68" y="931.91" width="79.24" height="19.15"/>
      <rect class="cls-1" x="2647.68" y="204.02" width="79.24" height="19.15"/>
      <rect class="cls-1" x="2647.68" y="147.32" width="79.24" height="47.46"/>
      <rect class="cls-1" x="2647.68" y="577.9" width="79.24" height="19.15"/>
      <rect class="cls-1" x="2647.68" y="544.43" width="79.24" height="19.15"/>
      <polygon class="cls-1" points="2647.68 27.83 2647.68 41.35 2573.1 41.35 2573.1 60.5 2647.68 60.5 2647.68 76.59 2726.93 76.59 2726.93 57.44 2652.34 57.44 2652.34 45.18 2726.93 45.18 2726.93 26.03 2652.34 26.03 2652.34 8.68 2573.1 8.68 2573.1 27.83 2647.68 27.83"/>
      <polygon class="cls-1" points="2573.1 460.75 2573.1 494.23 2573.1 499.33 2573.1 513.37 2647.68 513.37 2647.68 530.11 2726.93 530.11 2726.93 510.96 2652.34 510.96 2652.34 499.33 2652.34 496.64 2726.93 496.64 2726.93 477.49 2652.34 477.49 2652.34 463.17 2726.93 463.17 2726.93 444.02 2647.68 444.02 2647.68 460.75 2573.1 460.75"/>
      <rect class="cls-1" x="2647.68" y="410.55" width="79.24" height="19.15"/>
      <rect class="cls-1" x="2647.68" y="377.08" width="79.24" height="19.15"/>
      <rect class="cls-1" x="2647.68" y="777.88" width="79.24" height="19.15"/>
      <rect class="cls-1" x="2647.68" y="747.67" width="79.24" height="19.15"/>
      <rect class="cls-1" x="2647.68" y="717.83" width="79.24" height="19.15"/>
      <rect class="cls-2" x="279.71" width="2167.54" height="8.68"/>
      <polygon class="cls-2" points="79.24 8.68 74.58 8.68 0 8.68 0 8.68 74.58 8.68 74.58 8.68 153.83 8.68 153.83 8.68 188.8 8.68 188.8 0 153.83 0 153.83 8.68 79.24 8.68"/>
      <polygon class="cls-2" points="2573.1 8.68 2573.1 8.68 2652.34 8.68 2652.34 8.68 2726.95 8.68 2726.95 0 2726.93 0 2726.93 8.68 2652.34 8.68 2647.68 8.68 2573.1 8.68 2573.1 0 2538.15 0 2538.15 8.68 2573.1 8.68"/>
      <rect class="cls-2" x="74.58" y="8.68" width="79.24" height="0"/>
      <rect class="cls-2" x="2573.1" y="8.68" width="79.24" height="0"/>
      <rect class="cls-1" x="188.8" width="90.9" height="8.68"/>
      <rect class="cls-1" width="0" height="8.68"/>
      <polygon class="cls-1" points="74.58 8.68 79.24 8.68 153.83 8.68 153.83 0 0 0 0 8.68 74.58 8.68"/>
      <rect class="cls-1" x="2447.25" width="90.9" height="8.68"/>
      <polygon class="cls-1" points="2647.68 8.68 2652.34 8.68 2726.93 8.68 2726.93 0 2573.1 0 2573.1 8.68 2647.68 8.68"/>
      <path class="cls-5" d="m440.21,2320.79v1001.54c0,.81.12,1.61.3,2.41v-1006.37c-.18.8-.3,1.6-.3,2.41Z"/>
      <path class="cls-5" d="m2314.43,3322.33v-1001.54c0-.17-.03-.35-.04-.52v1002.58c0-.17.04-.35.04-.52Z"/>
      <path class="cls-5" d="m2205.28,3411.02H549.62c-.22,0-.44,0-.67,0h1656.99c-.22,0-.44,0-.67,0Z"/>
      <path class="cls-5" d="m549.62,3411.02h1655.66c.22,0,.44,0,.67,0h8.83c-3.85-.12-7.75-.19-11.71-.19H552.76c-3.96,0-7.86.07-11.71.19h7.9c.22,0,.44,0,.67,0Z"/>
      <path class="cls-5" d="m440.8,3445.68v2.42c3.88-20.63,50.74-36.94,108.15-37.07h-7.9c-56.33,1.82-100.25,16.64-100.25,34.64Z"/>
      <path class="cls-5" d="m536.27,5607.15c-.32-.01-.65-.03-.97-.05.32.02.65.03.97.05Z"/>
      <path class="cls-5" d="m539.74,5607.28c1.99.07,4,.13,6.02.17h3.56c-3.23,0-6.42-.06-9.58-.17Z"/>
      <path class="cls-5" d="m530.82,5606.85c-.51-.03-1.02-.06-1.52-.1.51.03,1.01.07,1.52.1Z"/>
      <path class="cls-5" d="m549.62,2232.03h1655.66c.1,0,.19,0,.29,0H549.33c.1,0,.19,0,.29,0Z"/>
    </g>
  </g>
</svg>